<?xml version="1.0" encoding="UTF-8"?>
<svg width="800px" height="450px" viewBox="0 0 800 450" version="1.1" xmlns="http://www.w3.org/2000/svg" xmlns:xlink="http://www.w3.org/1999/xlink">
    <!-- Generator: Sketch 60.1 (88133) - https://sketch.com -->
    <title>CardMedia</title>
    <desc>Created with Sketch.</desc>
    <defs>
        <linearGradient x1="50%" y1="0%" x2="50%" y2="100%" id="linearGradient-1">
            <stop stop-color="#ACECF7" offset="0%"></stop>
            <stop stop-color="#70BAC7" offset="100%"></stop>
        </linearGradient>
    </defs>
    <g id="Page-1" stroke="none" stroke-width="1" fill="none" fill-rule="evenodd">
        <g id="CardMedia">
            <rect id="background" fill="#FAFAFA" fill-rule="nonzero" x="0" y="0" width="800" height="450"></rect>
            <rect id="Sky" fill="url(#linearGradient-1)" x="0" y="0" width="800" height="450"></rect>
            <path d="M688.673232,88 C685.370197,88 682.69234,85.3155264 682.69234,82.0043287 C682.69234,81.8925273 682.696034,81.781431 682.702015,81.6712165 C681.464673,82.0568792 680.149053,82.2647881 678.785234,82.2647881 C677.797859,82.2647881 676.837398,82.1524571 675.912119,81.9461356 C670.019884,80.6313204 665.613374,75.3634181 665.613374,69.060557 C665.613374,61.7680574 671.510534,55.8561494 678.785234,55.8561494 C678.987001,55.8561494 679.187537,55.8626741 679.387193,55.8714913 C678.461914,55.6649933 677.501453,55.552839 676.514078,55.552839 C669.239554,55.552839 663.342394,61.4645707 663.342394,68.7570703 C663.342394,71.5566958 664.214021,74.1507051 665.696579,76.287104 C664.135214,77.2293058 662.306996,77.7720904 660.351947,77.7720904 C657.466167,77.7720904 654.856211,76.5902381 652.975045,74.6844961 C651.442177,76.1587259 649.362937,77.0667173 647.070848,77.0667173 C642.35896,77.0667173 638.539281,73.2374236 638.539281,68.5140689 C638.539281,66.8030104 639.04238,65.210807 639.905739,63.8739487 C637.000081,62.4397489 635,59.4431478 635,55.9771209 C635,51.7052053 638.03759,48.1457164 642.065017,47.3472341 C641.15944,46.0177822 640.629075,44.4111188 640.629075,42.6797805 C640.629075,38.102262 644.33072,34.391647 648.896779,34.391647 C650.233861,34.391647 651.495829,34.71171 652.613552,35.2767139 C653.220965,32.8747423 655.391501,31.0973785 657.976654,31.0973785 C659.225429,31.0973785 660.377279,31.5124905 661.303437,32.2120443 C661.275995,32.50883 661.260163,32.8087899 661.260163,33.1128056 C661.260163,35.2266324 661.938819,37.1805158 663.086799,38.7718374 L663.078179,38.7938803 L663.113185,38.8086932 C663.510914,39.3548283 663.963703,39.8577593 664.464515,40.308669 C663.711802,38.9314281 663.283288,37.3508634 663.283288,35.669783 C663.283288,30.3292272 667.601845,26 672.929237,26 C675.405326,26 677.662761,26.9363828 679.370834,28.4739197 C680.469207,29.4626764 681.338195,30.7007825 681.893011,32.0988319 C683.345137,30.2576318 685.591138,29.0747212 688.114371,29.0747212 C691.316962,29.0747212 694.069229,30.9822263 695.320466,33.722248 C696.490083,31.2215241 699.016482,29.4857774 701.953804,29.4857774 C705.527211,29.4857774 708.499714,32.0503375 709.14829,35.4431819 C710.358189,34.3380387 711.961772,33.6584117 713.727718,33.6584117 C717.488116,33.6584117 720.536612,36.7144405 720.536612,40.4843069 C720.536612,41.0225065 720.468184,41.5436009 720.350501,42.0460029 C719.692779,41.9275002 719.016762,41.8622532 718.324914,41.8622532 C715.937482,41.8622532 713.722617,42.6000734 711.892112,43.8591643 C709.363954,39.2573104 704.480731,36.1383271 698.869774,36.1383271 C690.663638,36.1383271 684.011654,42.8069241 684.011654,51.0331611 C684.011654,51.4719031 684.034347,51.9051785 684.071463,52.3342217 C684.883281,44.877194 691.184152,39.0733844 698.838814,39.0733844 C703.632675,39.0733844 707.893182,41.3513867 710.609914,44.8837187 C708.353359,46.9696832 706.938526,49.9571145 706.938526,53.2769528 C706.938526,53.7588989 706.971772,54.2327333 707.029646,54.6989849 C707.728531,49.0664046 712.517291,44.7064937 718.324914,44.7064937 C724.132888,44.7064937 728.921824,49.0664046 729.620533,54.6989849 C729.678407,54.2327333 729.711653,53.7588989 729.711653,53.2769528 C729.711653,52.2051384 729.561076,51.1694744 729.285603,50.186008 C730.80387,49.1489333 732.637717,48.5419598 734.613523,48.5419598 C738.652911,48.5419598 742.099841,51.0775996 743.462253,54.6467873 C742.685968,55.7554574 742.226319,57.1036017 742.226319,58.5610788 C742.226319,58.6538353 742.236522,58.7444758 742.240215,58.8365269 C743.053265,55.9788843 745.671489,53.884279 748.783136,53.884279 C752.451358,53.884279 755.433009,56.7935902 755.579013,60.434726 C755.747885,59.8386858 755.844635,59.2116091 755.844635,58.5610788 C755.844635,54.7912124 752.796139,51.7351836 749.035213,51.7351836 C747.028975,51.7351836 745.231189,52.6103753 743.985053,53.9944935 C743.526283,50.8606973 741.541331,48.2255999 738.810878,46.8702256 C739.907492,46.1130076 741.234722,45.6675645 742.667146,45.6675645 C745.206387,45.6675645 747.416678,47.0638505 748.587174,49.1295355 C749.34833,48.5257362 750.307032,48.1624691 751.353689,48.1624691 C753.816409,48.1624691 755.814731,50.1646705 755.814731,52.6347106 C755.814731,53.1166568 755.735572,53.5799105 755.594845,54.0149494 C756.022303,53.9306573 756.463833,53.884279 756.915919,53.884279 C759.957378,53.884279 762.53268,55.884188 763.405187,58.6432547 C763.997999,58.3693937 764.654138,58.2120955 765.350736,58.2120955 C767.919002,58.2120955 770,60.2992943 770,62.873906 C770,65.4486941 767.919002,67.5358929 765.350736,67.5358929 C764.729778,67.5358929 764.140485,67.4122765 763.600445,67.1911419 C763.586372,69.1413221 762.006713,70.7183598 760.057646,70.7183598 C758.940626,70.7183598 757.944984,70.1993815 757.295881,69.3903188 C756.868423,72.2564258 754.403943,74.4548975 751.425811,74.4548975 C749.056674,74.4548975 747.01244,73.0639015 746.059895,71.0527068 C745.107526,73.0639015 743.063292,74.4548975 740.694859,74.4548975 C739.183628,74.4548975 737.805208,73.8877774 736.757145,72.955627 C736.981252,72.2107532 737.103157,71.4212641 737.103157,70.6030313 C737.103157,66.1080415 733.468006,62.4640843 728.984271,62.4640843 C728.530779,62.4640843 728.086434,62.5032325 727.653171,62.5748279 C731.868644,62.8707319 735.197363,66.3901908 735.197363,70.6913795 C735.197363,74.7314035 732.259865,78.0824546 728.409578,78.7194066 C727.976315,78.791002 727.53197,78.8299737 727.078477,78.8299737 C724.454976,78.8299737 722.12366,77.5814634 720.639343,75.6459198 C722.254008,73.3763818 722.664403,70.3349897 721.451513,67.6041378 C721.267161,67.1886731 721.050969,66.7975437 720.809271,66.429868 C722.254184,70.4108174 720.400635,74.890818 716.48104,76.6399668 C715.408701,77.1183861 714.288339,77.3449873 713.18592,77.3449873 C711.297365,77.3449873 709.461231,76.6803494 708.008754,75.4794517 C707.940853,75.6921215 707.865036,75.9010887 707.784118,76.1075862 C706.293293,79.9039045 702.605897,82.5920812 698.289628,82.5920812 C697.524777,82.5920812 696.78086,82.5051438 696.064032,82.3450241 C691.500083,81.3268181 688.086929,77.2462351 688.086929,72.3641715 C688.086929,66.7155441 692.654748,62.1362621 698.289628,62.1362621 C698.44601,62.1362621 698.601162,62.1410234 698.755961,62.1480772 C698.03931,61.9881338 697.295216,61.9011966 696.530541,61.9011966 C690.895662,61.9011966 686.327843,66.4803022 686.327843,72.1291059 C686.327843,77.1333753 689.913915,81.2952526 694.649551,82.1806721 C694.556495,85.4100464 691.917339,88 688.673232,88" id="cloud3" fill="#FFFFFF" fill-rule="nonzero"></path>
            <path d="M96.1062179,434 C91.1149638,434 87.0684249,429.929992 87.0684249,424.909789 C87.0684249,424.740283 87.0740067,424.571847 87.0830449,424.404748 C85.2132843,424.989462 83.2252363,425.304679 81.1643534,425.304679 C79.6723201,425.304679 78.220957,425.13437 76.8227574,424.82156 C67.9189363,422.828131 61.2602089,414.841311 61.2602089,405.285361 C61.2602089,394.22899 70.1714733,385.265775 81.1643534,385.265775 C81.4692459,385.265775 81.7722776,385.275667 82.073981,385.289035 C80.6757813,384.975958 79.2244175,384.805917 77.7323842,384.805917 C66.73977,384.805917 57.8285063,393.768865 57.8285063,404.825236 C57.8285063,409.069829 59.1456315,413.002682 61.3859412,416.241738 C59.0265455,417.670238 56.2639049,418.493169 53.3096094,418.493169 C48.9488746,418.493169 45.0049409,416.701329 42.1622896,413.811978 C39.8459561,416.0471 36.7039941,417.423733 33.2403928,417.423733 C26.1202069,417.423733 20.3482469,411.618029 20.3482469,404.456814 C20.3482469,401.862629 21.1084848,399.448643 22.4131168,397.421793 C18.0223443,395.247361 15,390.704127 15,385.449183 C15,378.972408 19.5901356,373.575764 25.6760259,372.365161 C24.3075977,370.349541 23.5061581,367.913632 23.5061581,365.2887 C23.5061581,358.348591 29.0997544,352.72282 35.9995777,352.72282 C38.0200563,352.72282 39.9270306,353.208077 41.6160346,354.064695 C42.5339025,350.422996 45.8138234,347.728284 49.7202766,347.728284 C51.6073144,347.728284 53.3478876,348.357647 54.7474163,349.418261 C54.7059483,349.868226 54.6820248,350.323004 54.6820248,350.783931 C54.6820248,353.988765 55.7075486,356.951105 57.4422734,359.363754 L57.4292483,359.397173 L57.4821458,359.419632 C58.0831592,360.247643 58.7673731,361.010151 59.5241558,361.693788 C58.3867227,359.605714 57.7391914,357.209374 57.7391914,354.660639 C57.7391914,346.563667 64.2650099,340 72.3152907,340 C76.0569371,340 79.4681721,341.419677 82.0492597,343.750781 C83.7090237,345.249864 85.0221621,347.126993 85.8605504,349.246616 C88.0548733,346.455119 91.4488303,344.661674 95.2617159,344.661674 C100.101188,344.661674 104.260168,347.553698 106.150927,351.707924 C107.918347,347.916504 111.736017,345.284888 116.174637,345.284888 C121.574452,345.284888 126.066235,349.173092 127.046305,354.317082 C128.874597,352.641542 131.297789,351.61114 133.96633,351.61114 C139.648709,351.61114 144.255325,356.244474 144.255325,361.960078 C144.255325,362.776058 144.151922,363.566105 143.974091,364.327811 C142.980199,364.148145 141.958663,364.049223 140.913203,364.049223 C137.305529,364.049223 133.958621,365.167853 131.192525,367.076798 C127.372197,360.099793 119.993105,355.371012 111.514325,355.371012 C99.113942,355.371012 89.0620554,365.481466 89.0620554,377.953502 C89.0620554,378.618692 89.096346,379.275593 89.1524333,379.926078 C90.3791806,368.620262 99.9004959,359.820938 111.467541,359.820938 C118.711598,359.820938 125.149697,363.274683 129.254982,368.630154 C125.845075,371.792745 123.707105,376.322077 123.707105,381.35538 C123.707105,382.086073 123.757345,382.804467 123.844799,383.511364 C124.900892,374.971646 132.13724,368.361458 140.913203,368.361458 C149.689698,368.361458 156.926311,374.971646 157.982138,383.511364 C158.069592,382.804467 158.119832,382.086073 158.119832,381.35538 C158.119832,379.730371 157.892292,378.160171 157.476022,376.669109 C159.770292,375.09677 162.541439,374.17652 165.527101,374.17652 C171.631066,374.17652 176.839759,378.020877 178.898515,383.432226 C177.725463,385.113113 177.030882,387.157073 177.030882,389.366797 C177.030882,389.507428 177.046299,389.64485 177.051881,389.784412 C178.28049,385.451857 182.236916,382.276165 186.938961,382.276165 C192.482053,382.276165 196.987658,386.687056 197.208287,392.207488 C197.463471,391.303814 197.609671,390.353085 197.609671,389.366797 C197.609671,383.651193 193.003054,379.017859 187.319877,379.017859 C184.28823,379.017859 181.571575,380.344762 179.688525,382.443264 C178.995273,377.692025 175.995788,373.696877 171.869771,371.641955 C173.526876,370.493915 175.532469,369.818566 177.69702,369.818566 C181.534095,369.818566 184.874091,371.935515 186.642841,375.06736 C187.793032,374.151923 189.241737,373.601163 190.823352,373.601163 C194.544795,373.601163 197.564482,376.636758 197.564482,380.381658 C197.564482,381.112351 197.444864,381.814703 197.23221,382.474278 C197.878146,382.34648 198.545348,382.276165 199.228499,382.276165 C203.824482,382.276165 207.71605,385.308285 209.034504,389.491386 C209.930309,389.076177 210.921808,388.837693 211.974445,388.837693 C215.85538,388.837693 219,392.002156 219,395.905599 C219,399.80931 215.85538,402.973773 211.974445,402.973773 C211.036109,402.973773 210.145621,402.786355 209.329562,402.451086 C209.308296,405.407811 206.921255,407.798803 203.975998,407.798803 C202.288058,407.798803 200.783531,407.011965 199.802665,405.785322 C199.156728,410.13071 195.432626,413.463877 190.932336,413.463877 C187.352307,413.463877 184.263242,411.354947 182.823841,408.305717 C181.384706,411.354947 178.295641,413.463877 174.716675,413.463877 C172.433038,413.463877 170.350092,412.60405 168.766352,411.190789 C169.105003,410.061464 169.289215,408.864497 169.289215,407.623951 C169.289215,400.808966 163.796098,395.284257 157.020677,395.284257 C156.335399,395.284257 155.663944,395.343611 155.009236,395.452158 C161.379285,395.900787 166.409348,401.236741 166.409348,407.757898 C166.409348,413.883096 161.970463,418.963721 156.152251,419.929423 C155.497543,420.037971 154.826088,420.097057 154.14081,420.097057 C150.176409,420.097057 146.653531,418.204154 144.410563,415.26962 C146.850501,411.828708 147.470653,407.217565 145.637842,403.077241 C145.359265,402.447343 145.032576,401.85434 144.667343,401.296897 C146.850767,407.33253 144.049848,414.124789 138.126904,416.776724 C136.506481,417.502069 134.81349,417.845626 133.147612,417.845626 C130.293796,417.845626 127.519194,416.837949 125.324339,415.017233 C125.221733,415.339668 125.107166,415.656489 124.98489,415.969566 C122.732087,421.725275 117.160022,425.800897 110.637659,425.800897 C109.481885,425.800897 108.357743,425.669089 107.274537,425.426327 C100.377904,423.882595 95.2202479,417.695905 95.2202479,410.294067 C95.2202479,401.730018 102.12273,394.787236 110.637659,394.787236 C110.873971,394.787236 111.108422,394.794455 111.342342,394.805149 C110.259402,394.562654 109.134994,394.430846 107.979485,394.430846 C99.4645553,394.430846 92.5620734,401.373361 92.5620734,409.937677 C92.5620734,417.524795 97.9810277,423.834738 105.137099,425.177148 C104.996482,430.073296 101.008423,434 96.1062179,434" id="cloud1" fill="#FFFFFF" fill-rule="nonzero"></path>
            <path d="M306.383674,281 C302.175362,281 298.763574,277.579461 298.763574,273.360354 C298.763574,273.217898 298.76828,273.07634 298.775901,272.935905 C297.199436,273.427314 295.523238,273.69223 293.785631,273.69223 C292.527642,273.69223 291.303944,273.549099 290.12507,273.286205 C282.617927,271.610876 277.003706,264.898549 277.003706,256.867484 C277.003706,247.575428 284.517125,240.042513 293.785631,240.042513 C294.042698,240.042513 294.298195,240.050827 294.552572,240.062061 C293.373698,239.798943 292.149999,239.656037 290.89201,239.656037 C281.623728,239.656037 274.110309,247.188727 274.110309,256.480783 C274.110309,260.048048 275.220827,263.353318 277.109715,266.075503 C275.120421,267.276051 272.791135,267.967664 270.300259,267.967664 C266.623561,267.967664 263.298284,266.461755 260.901538,264.033471 C258.948551,265.911925 256.299446,267.068882 253.379155,267.068882 C247.375861,267.068882 242.509306,262.18962 242.509306,256.171152 C242.509306,253.990933 243.150291,251.962157 244.250275,250.258741 C240.548251,248.431293 238,244.613043 238,240.196654 C238,234.753407 241.870114,230.217929 247.001355,229.200508 C245.847582,227.506529 245.171859,225.459329 245.171859,223.253269 C245.171859,217.420624 249.888028,212.692583 255.705526,212.692583 C257.409067,212.692583 259.016908,213.100405 260.44097,213.820329 C261.214859,210.759752 263.980282,208.495047 267.273959,208.495047 C268.864991,208.495047 270.332533,209.02398 271.512527,209.915347 C271.477564,210.293509 271.457393,210.675716 271.457393,211.063091 C271.457393,213.756515 272.322051,216.246141 273.784662,218.273793 L273.77368,218.30188 L273.81828,218.320754 C274.325017,219.016636 274.901903,219.657467 275.539975,220.232014 C274.580962,218.477142 274.035005,216.463197 274.035005,214.321175 C274.035005,207.516273 279.537165,202 286.324657,202 C289.479378,202 292.355518,203.193133 294.531729,205.152252 C295.931138,206.41212 297.038293,207.989707 297.74517,209.771092 C299.595285,207.425047 302.456857,205.91779 305.671643,205.91779 C309.751982,205.91779 313.258573,208.348321 314.852742,211.839639 C316.34292,208.653232 319.56174,206.441555 323.304105,206.441555 C327.856891,206.441555 331.644081,209.709301 332.470414,214.032441 C334.011915,212.624275 336.054998,211.758299 338.304945,211.758299 C343.095971,211.758299 346.97998,215.652271 346.97998,220.45581 C346.97998,221.141581 346.892797,221.805556 346.742861,222.445713 C345.904874,222.294718 345.043578,222.211581 344.162112,222.211581 C341.120348,222.211581 338.298445,223.151706 335.966247,224.756032 C332.745186,218.892379 326.523598,214.918191 319.374823,214.918191 C308.919598,214.918191 300.444478,223.415274 300.444478,233.897092 C300.444478,234.456135 300.47339,235.008211 300.520679,235.554895 C301.554995,226.053199 309.582771,218.658022 319.335378,218.658022 C325.443112,218.658022 330.871313,221.560638 334.332632,226.061513 C331.457612,228.719435 329.65501,232.526001 329.65501,236.756117 C329.65501,237.37021 329.697369,237.973967 329.771105,238.568061 C330.661536,231.391064 336.762771,225.835694 344.162112,225.835694 C351.561902,225.835694 357.663361,231.391064 358.553567,238.568061 C358.627303,237.973967 358.669662,237.37021 358.669662,236.756117 C358.669662,235.390418 358.477815,234.070782 358.126842,232.817655 C360.061227,231.496221 362.397684,230.72282 364.915006,230.72282 C370.061487,230.72282 374.45313,233.953716 376.188944,238.501552 C375.1999,239.914212 374.614273,241.632009 374.614273,243.489117 C374.614273,243.607306 374.627272,243.7228 374.631978,243.840091 C375.667864,240.198901 379.003674,237.529968 382.968143,237.529968 C387.641731,237.529968 391.440574,241.236994 391.626595,245.876506 C391.84175,245.117035 391.965016,244.318018 391.965016,243.489117 C391.965016,238.685577 388.081007,234.791605 383.289308,234.791605 C380.733213,234.791605 378.442701,235.906768 376.855031,237.670403 C376.270524,233.67734 373.741547,230.319716 370.262748,228.592707 C371.659915,227.627864 373.350905,227.060284 375.175919,227.060284 C378.4111,227.060284 381.227175,228.839422 382.718473,231.471505 C383.688243,230.702148 384.9097,230.239275 386.243218,230.239275 C389.380906,230.239275 391.926916,232.790467 391.926916,235.937776 C391.926916,236.551869 391.826062,237.142144 391.646765,237.696468 C392.191378,237.589063 392.753921,237.529968 393.329911,237.529968 C397.204956,237.529968 400.486081,240.07824 401.597719,243.593825 C402.353006,243.244873 403.188975,243.044444 404.076493,243.044444 C407.348654,243.044444 410,245.70394 410,248.984493 C410,252.265271 407.348654,254.924767 404.076493,254.924767 C403.285347,254.924767 402.534544,254.767256 401.846493,254.485487 C401.828563,256.970394 399.81596,258.979845 397.332704,258.979845 C395.909539,258.979845 394.641017,258.318567 393.814011,257.287664 C393.269398,260.939639 390.129469,263.740918 386.335107,263.740918 C383.316651,263.740918 380.712146,261.96852 379.498533,259.405868 C378.285144,261.96852 375.680639,263.740918 372.663079,263.740918 C370.737659,263.740918 368.98145,263.018297 367.64614,261.830557 C367.931669,260.881444 368.086985,259.875482 368.086985,258.832895 C368.086985,253.105408 363.455533,248.462301 357.742924,248.462301 C357.16514,248.462301 356.599012,248.512183 356.047003,248.60341 C361.417828,248.980449 365.658862,253.46492 365.658862,258.945467 C365.658862,264.09324 361.916273,268.363128 357.010721,269.174728 C356.458712,269.265954 355.892584,269.315612 355.314801,269.315612 C351.972266,269.315612 349.001996,267.724768 347.110867,265.258511 C349.16807,262.36668 349.690943,258.491358 348.145632,255.011724 C347.910753,254.482342 347.635309,253.983967 347.327367,253.515477 C349.168294,258.587977 346.806735,264.296365 341.81288,266.525119 C340.446641,267.134718 339.019217,267.423452 337.614653,267.423452 C335.208495,267.423452 332.869124,266.576574 331.01856,265.046398 C330.93205,265.317381 330.835454,265.583645 330.732358,265.846763 C328.832936,270.684007 324.134921,274.109265 318.635674,274.109265 C317.661197,274.109265 316.713391,273.99849 315.8001,273.794466 C309.985291,272.497075 305.63668,267.297622 305.63668,261.076928 C305.63668,253.879484 311.456419,248.044592 318.635674,248.044592 C318.834917,248.044592 319.032591,248.050659 319.229818,248.059647 C318.31675,247.855848 317.36872,247.745073 316.394468,247.745073 C309.215213,247.745073 303.395474,253.57974 303.395474,260.777409 C303.395474,267.153817 307.964396,272.456854 313.997947,273.58505 C313.879387,277.699898 310.516906,281 306.383674,281" id="cloud2" fill="#FFFFFF" fill-rule="nonzero"></path>
            <g id="Machine" transform="translate(414.000000, 131.000000)" fill-rule="nonzero">
                <g id="controls" transform="translate(91.364271, 98.345311) rotate(-2.000000) translate(-91.364271, -98.345311) translate(53.216681, 84.021502)">
                    <g id="buttons" transform="translate(50.219476, 19.031641)">
                        <polygon id="Fill-120" fill="#FFFFFE" points="0 1.55149249 1.56207542 1.55149249 1.56207542 0 0 0"></polygon>
                        <polygon id="Fill-121" fill="#F4E92A" points="2.92438275 1.55149249 4.48368361 1.55149249 4.48368361 0 2.92438275 0"></polygon>
                        <polygon id="Fill-122" fill="#FFFFFE" points="5.84599095 1.55149249 7.40806637 1.55149249 7.40806637 0 5.84599095 0"></polygon>
                        <polygon id="Fill-123" fill="#F4E92A" points="8.7703737 1.55149249 10.3296746 1.55149249 10.3296746 0 8.7703737 0"></polygon>
                        <polygon id="Fill-124" fill="#F4E92A" points="11.6919819 1.55149249 13.2540573 1.55149249 13.2540573 0 11.6919819 0"></polygon>
                        <polygon id="Fill-125" fill="#FFFFFE" points="14.6163647 1.55149249 16.1756655 1.55149249 16.1756655 0 14.6163647 0"></polygon>
                        <polygon id="Fill-126" fill="#FFFFFE" points="17.5407474 1.55149249 19.1000483 1.55149249 19.1000483 0 17.5407474 0"></polygon>
                        <polygon id="Fill-127" fill="#F4E92A" points="20.4623556 1.55149249 22.024431 1.55149249 22.024431 0 20.4623556 0"></polygon>
                    </g>
                    <g id="levers" transform="translate(6.670034, 0.063855)" fill="#0A0B09">
                        <path d="M62.2194338,10.4929141 C62.2194338,9.47734159 61.3898414,8.65429206 60.3688045,8.65429206 C59.3477676,8.65429206 58.5209497,9.47734159 58.5209497,10.4929141 C58.5209497,11.3162394 59.0647629,12.012963 59.8138932,12.2474108 L59.8138932,20.422466 L60.9237158,20.422466 L60.9237158,12.2474108 C61.6756207,12.012963 62.2194338,11.3162394 62.2194338,10.4929141" id="Fill-88"></path>
                        <path d="M55.4911338,10.4929141 C55.4911338,9.47734159 54.6615414,8.65429206 53.6405045,8.65429206 C52.6194677,8.65429206 51.7926498,9.47734159 51.7926498,10.4929141 C51.7926498,11.3162394 52.3364629,12.012963 53.0855932,12.2474108 L53.0855932,20.422466 L54.1954159,20.422466 L54.1954159,12.2474108 C54.9473207,12.012963 55.4911338,11.3162394 55.4911338,10.4929141" id="Fill-89"></path>
                        <path d="M13.0903585,4.9982862 C13.1375259,3.9840928 12.3495518,3.12297999 11.3312895,3.07526298 C10.3102527,3.02754596 9.44459098,3.81142893 9.39464896,4.82562233 C9.35580516,5.64812021 9.8663236,6.36939183 10.6071302,6.63859302 L10.2186923,14.804822 L11.328515,14.8566764 L11.7141784,6.69044735 C12.4744069,6.49130467 13.0515147,5.82078409 13.0903585,4.9982862" id="Fill-90"></path>
                        <path d="M6.40367684,2.61657284 C6.83373313,1.69615854 6.43419697,0.601977084 5.50749503,0.172799783 C4.58356765,-0.256377517 3.48206865,0.141356202 3.0492378,1.0617705 C2.69964366,1.807866 2.89663719,2.66815135 3.47651953,3.19579671 L-1.11910481e-13,10.6046216 L1.00716408,11.0707589 L4.48368361,3.66220983 C5.26333404,3.76536684 6.05130814,3.36266834 6.40367684,2.61657284" id="Fill-91"></path>
                    </g>
                    <path d="M1.90612045,3.54650497 L0.119305938,4.96808582 C5.16899912,10.4552665 13.8422633,15.7830228 23.4949461,19.9192328 L22.8540235,15.682624 L1.90612045,3.54650497" id="Fill-9" fill="#126A71"></path>
                    <path d="M35.386696,24.2496208 C53.0412003,29.5870307 70.8066868,30.1982498 74.1278311,21.1720113 C74.6633206,19.7134704 75.1100242,18.2436209 75.4707166,16.7688067 L49.212312,16.923818 L35.386696,24.2496208" id="Fill-10" fill="#126A71"></path>
                </g>
                <g id="man" transform="translate(95.537172, 89.512030) rotate(-2.000000) translate(-95.537172, -89.512030) translate(67.263075, 70.264411)">
                    <path d="M20.8135376,5.97453542 C20.9439418,2.54939164 23.8405789,-0.123312753 27.2865784,0.00439231796 C30.7325778,0.13237321 33.4211232,3.01249491 33.290719,6.43763869 C33.1630894,9.86278246 30.2664522,12.5357627 26.8204528,12.4077818 C23.3744534,12.2798009 20.685908,9.3996792 20.8135376,5.97453542" id="Fill-128" fill="#006D73"></path>
                    <path d="M31.6537306,8.21861416 C28.7182496,9.05573055 24.9809217,7.15035986 24.9809217,7.15035986 C27.5501612,12.7321472 31.6537306,8.21861416 31.6537306,8.21861416" id="Fill-129" fill="#FFFFFE"></path>
                    <path d="M32.9383503,13.4216994 L51.1616387,8.8596219 C51.860827,8.68502728 51.7748157,7.13601717 51.3419849,5.94805661 L55.4067104,4.93082918 C55.8478649,4.82022501 56.1169969,4.37422263 56.0060147,3.93483996 C55.8922578,3.49545729 55.4455542,3.22873849 55.0016251,3.33961848 L47.8682399,5.12583455 L47.798876,5.15093425 L33.4433197,8.74377713 C32.5443633,10.9975096 30.4828677,12.6642952 27.9413737,12.9903155 C27.564034,13.0385842 27.1783706,13.0556851 26.7954818,13.0416182 C24.9587253,12.9734904 23.2606966,12.1984337 22.0093715,10.8590475 C21.6292573,10.4516601 21.3046341,10.006761 21.0382767,9.53372815 L20.541631,9.47249591 C20.3113428,9.41733173 20.0644073,9.39719681 19.8146972,9.42174487 C18.3414076,9.56324098 16.6544771,10.4899992 15.1062745,11.6120385 C13.7273198,12.6132684 12.4537983,13.7700612 11.5381946,14.6637208 C8.0061839,13.3566056 3.89429089,12.2869722 1.84944261,13.3828086 C1.03094838,13.8219155 0.481586157,14.5506343 0.304014529,15.4351918 C0.0654026533,16.6300479 0.842278527,17.792633 2.04643613,18.0317697 C2.85938124,18.1928491 3.65567901,17.8913768 4.16342289,17.3093948 C5.42584618,17.3375285 8.50837867,18.1859536 11.2690626,19.2930986 C11.5381946,19.4012204 11.8184248,19.4539022 12.098655,19.4539022 C12.7007338,19.4539022 13.2889398,19.210904 13.7162216,18.7582819 C14.4237335,18.0091524 15.253326,17.2244419 16.0884675,16.5042736 C16.5906623,16.0687524 17.0956316,15.6594342 17.5784045,15.2956265 L15.7360988,30.0363221 C15.7139024,30.216709 15.7194515,30.3940618 15.7388734,30.5667257 C15.7471971,30.9674935 15.8221101,31.3737776 15.9830344,31.7679257 L18.4607135,37.9052162 L30.6798612,31.4769346 L32.9383503,13.4216994" id="Fill-3" fill="#006D73"></path>
                    <path d="M25.1862389,16.7323775 L25.2916721,16.6656288 L25.6135207,14.9323704 L24.822772,14.5704934 L24.0320234,14.2083405 L22.9166516,15.579722 L22.9332989,15.7030139 C23.133067,16.12171 23.4715629,16.4391799 23.8710991,16.6231524 C24.2734098,16.8065733 24.7339862,16.8537387 25.1862389,16.7323775" id="Fill-4" fill="#FFFFFE"></path>
                    <path d="M22.4588497,16.5553005 C22.4366533,16.7020372 22.4200059,17.1408682 22.400584,17.2870533 C19.2625604,20.6939929 16.7515866,22.4032549 13.8050074,24.5579677 C13.8105565,25.9903056 12.9920623,28.7548583 12.9920623,28.7548583 C12.9920623,28.7548583 15.9608379,28.1077825 17.4535494,27.8079652 C19.5982818,24.7750387 21.9927242,22.098197 24.1069364,17.9755022 C24.2567624,17.8679321 24.4065885,17.7565004 24.55364,17.6420348 C23.8156079,17.615556 22.863935,17.2925697 22.4588497,16.5553005" id="Fill-5" fill="#FFFFFE"></path>
                </g>
                <g id="machine" transform="translate(74.407715, 102.105834) rotate(-4.000000) translate(-74.407715, -102.105834) translate(5.742053, 21.086786)">
                    <path d="M64.6791623,89.7025082 C64.0798581,91.3342646 62.2625235,92.1730359 60.6227605,91.5761595 C58.9802229,90.9792831 58.1367577,89.1734838 58.7360619,87.5417274 C59.3381407,85.9105227 61.1527008,85.0717514 62.7952383,85.6683519 C64.4350013,86.2652283 65.2784666,88.0713035 64.6791623,89.7025082" id="Fill-84" fill="#FFFFFE"></path>
                    <path d="M95.6265677,100.954621 C95.0244889,102.585826 93.2071542,103.424597 91.5673912,102.827997 C89.9276282,102.231396 89.0813884,100.425045 89.6834672,98.7938405 C90.2827715,97.16236 92.1001061,96.3235886 93.7398691,96.9201892 C95.3824067,97.5170656 96.2258719,99.3231408 95.6265677,100.954621" id="Fill-85" fill="#FFFFFE"></path>
                    <path d="M110.623047,13.0805691 C110.886629,13.1760031 111.180732,13.0405751 111.275067,12.7793727 C111.372177,12.5184461 111.236224,12.2269034 110.972641,12.1314694 L108.78629,11.3357262 L109.679697,8.8999519 C111.677378,9.10543847 113.636215,7.95719611 114.3576,5.99776453 C115.209389,3.682524 114.01078,1.1193205 111.682927,0.272826198 C109.355074,-0.573943926 106.774736,0.616223202 105.922948,2.93146373 C105.201563,4.89089531 105.953468,7.02436987 107.612653,8.14806417 L106.716471,10.5838384 L104.527346,9.78837098 C104.266537,9.69266113 103.972434,9.82836501 103.875325,10.0892916 C103.78099,10.3502181 103.916943,10.6417608 104.180526,10.7371948 L106.366877,11.5329381 L105.831387,12.9912031 L103.642262,12.1957357 C103.381454,12.1000258 103.087351,12.2354539 102.990241,12.4966563 C102.895906,12.7575828 103.031859,13.0491255 103.292668,13.1445595 L105.481793,13.9403028 L104.946304,15.398292 L102.757178,14.6028246 C102.493595,14.5073905 102.202267,14.6428186 102.105158,14.9037452 C102.008048,15.1649475 102.144001,15.4564902 102.407584,15.5519242 L104.596709,16.3473917 L104.058445,17.8056567 L101.872095,17.0101893 C101.608512,16.9147552 101.314409,17.0501833 101.220074,17.3111099 C101.122964,17.5723122 101.258918,17.8638549 101.522501,17.9592889 L103.708851,18.7547564 L103.173362,20.2130214 L100.984237,19.417554 C100.723428,19.3221199 100.429325,19.457548 100.33499,19.7184746 C100.237881,19.9794011 100.373834,20.2712196 100.637417,20.3666536 L102.823768,21.1621211 L100.470944,27.5597866 L102.537988,28.3119501 L104.893587,21.9142846 L107.079938,22.7097521 C107.343521,22.8051861 107.637624,22.6697581 107.731959,22.4088315 C107.829068,22.1479049 107.693115,21.8560864 107.429532,21.7606524 L105.243181,20.965185 L105.778671,19.5069199 L107.965021,20.3023874 C108.228604,20.3978214 108.522707,20.2623933 108.617042,20.0014668 C108.714152,19.7405402 108.578198,19.4487217 108.314615,19.3532877 L106.128265,18.5578203 L106.663754,17.0995552 L108.852879,17.8950227 C109.113688,17.9904567 109.407791,17.8553045 109.5049,17.5941021 C109.599235,17.3331755 109.463282,17.041357 109.202474,16.945923 L107.013348,16.1504556 L107.548838,14.6921905 L109.737963,15.4879338 C110.001546,15.5833678 110.292874,15.4479398 110.389984,15.1867374 C110.487093,14.9258108 110.348365,14.6342681 110.087557,14.5388341 L107.898432,13.7430909 L108.436696,12.2851017 L110.623047,13.0805691" id="antenna" fill="#126A71"></path>
                    <path d="M107.834617,3.6257049 L106.877395,3.2784464 C107.53774,1.49085124 109.53542,0.567954547 111.333333,1.22192587 L110.983739,2.17102554 C109.712992,1.70847392 108.297968,2.36106613 107.834617,3.6257049" id="Fill-87" fill="#FFFFFE"></path>
                    <path d="M60.0262308,140.67145 L60.0262308,140.67145 C58.7360619,140.202279 58.0673937,138.769389 58.5390684,137.487374 L68.8326737,109.511137 C69.3043483,108.228846 70.7443433,107.563566 72.0345121,108.032737 C73.324681,108.501632 73.9933492,109.934246 73.5216745,111.216537 L63.2308437,139.192498 C62.7591691,140.475066 61.3163996,141.140345 60.0262308,140.67145" id="Fill-11" fill="#126A71"></path>
                    <path d="M1.51083014,119.417796 L1.51083014,119.417796 C3.04793455,120.572382 5.25648167,120.266772 6.41624637,118.738449 L29.8529267,87.9030528 C31.015466,86.3744534 30.7074902,84.1789192 29.1703858,83.0240571 C27.6332814,81.8691951 25.4247343,82.1745288 24.262195,83.7031281 L0.825514638,114.538524 C-0.334250059,116.067124 -0.0290488233,118.262658 1.51083014,119.417796" id="Fill-12" fill="#126A71"></path>
                    <polyline id="Fill-13" fill="#126A71" points="24.2320904 92.7835003 41.978155 90.5653487 41.4953821 86.7471602 23.7493175 88.9653117 24.2320904 92.7835003"></polyline>
                    <path d="M44.9465151,57.2618346 C53.0870645,35.1332765 77.8194628,23.7151192 100.079731,31.8085315 C122.34,39.9022196 133.826664,64.489721 125.68334,86.6185549 C117.542791,108.746837 36.8031913,79.3906686 44.9465151,57.2618346 Z M102.940299,24.0375538 C76.3267513,14.3612055 46.8609593,27.9638642 37.1278144,54.4197762 C27.3946695,80.8756882 41.0760086,110.166487 67.6895563,119.842836 C94.3031041,129.519184 123.768896,115.916801 133.502041,89.4608891 C143.235186,63.0049771 129.551072,33.7139022 102.940299,24.0375538 L102.940299,24.0375538 Z" id="Fill-20" fill="#126A71"></path>
                    <path d="M118.530533,161.965926 L118.530533,161.965926 C116.604991,161.862217 115.115054,160.211981 115.220487,158.299163 L117.326376,119.708511 C117.431809,117.795417 119.090994,116.315087 121.016536,116.419071 C122.939304,116.52278 124.429241,118.17274 124.323808,120.085834 L122.217919,158.676486 C122.112486,160.58958 120.453301,162.06991 118.530533,161.965926" id="Fill-16" fill="#126A71"></path>
                    <polyline id="Fill-17" fill="#126A71" points="120.314573 122.282471 108.195309 109.204976 111.042005 106.597365 123.161268 119.674861 120.314573 122.282471"></polyline>
                    <path d="M27.2004505,87.8754707 C26.9229949,88.6268068 26.0878533,89.0126802 25.3303993,88.7379626 C24.5757199,88.4635208 24.187282,87.6319208 24.4647377,86.8808606 C24.7394188,86.1295245 25.5773349,85.7436511 26.3320143,86.0183687 C27.0866937,86.2930863 27.4751317,87.1246862 27.2004505,87.8754707" id="Fill-14" fill="#FFFFFE"></path>
                    <path d="M26.3736327,87.5756534 C26.2654249,87.8738158 25.9324781,88.0268964 25.632826,87.9179471 C25.3331739,87.808722 25.1805733,87.4788403 25.288781,87.1809537 C25.3997633,86.8827913 25.7299355,86.7294349 26.0295876,86.83866 C26.3292397,86.9476092 26.4846149,87.277491 26.3736327,87.5756534" id="Fill-15" fill="#0A0B09"></path>
                    <path d="M119.373998,121.389639 C119.096543,122.140699 119.484981,122.972575 120.23966,123.247017 C120.997114,123.521735 121.832256,123.135585 122.109711,122.384525 C122.384392,121.633465 121.995954,120.801865 121.241275,120.527147 C120.486596,120.25243 119.64868,120.638579 119.373998,121.389639" id="Fill-18" fill="#FFFFFE"></path>
                    <path d="M120.198042,121.689732 C120.087059,121.987619 120.242435,122.317777 120.542087,122.426726 C120.841739,122.535951 121.174686,122.382594 121.282893,122.084432 C121.393876,121.786545 121.2385,121.456388 120.938848,121.347439 C120.639196,121.238214 120.309024,121.39157 120.198042,121.689732" id="Fill-19" fill="#126A71"></path>
                </g>
                <g id="clock-middle" transform="translate(80.181963, 128.435687) rotate(-4.000000) translate(-80.181963, -128.435687) translate(65.820517, 114.111877)">
                    <path d="M23.964193,4.0874587 C29.4439425,9.53795525 29.4439425,18.3727741 23.9614185,23.8216157 C18.4788945,29.2707332 9.59198937,29.2701815 4.10946535,23.819685 C-1.37028412,18.3700159 -1.37028412,9.53519705 4.1122399,4.08663124 C9.59476392,-1.36276202 18.481669,-1.36193456 23.964193,4.0874587" id="Fill-21" fill="#126A71"></path>
                    <path d="M25.6677708,18.1824577 C23.3177213,24.5677112 16.2065325,27.8502556 9.78343378,25.5148801 C3.3631096,23.1797805 0.0586125759,16.1104912 2.40866209,9.72523764 C4.75871161,3.34025992 11.8699004,0.0577155442 18.2902246,2.39281517 C24.7133233,4.72819063 28.0178204,11.7977558 25.6677708,18.1824577" id="Fill-22" fill="#FFFFFE"></path>
                    <polyline id="Fill-23" fill="#0A0B09" points="17.4523085 5.72583477 16.7697675 5.47732015 18.0682601 1.94846773 18.750801 2.19725817 17.4523085 5.72583477"></polyline>
                    <polyline id="Fill-24" fill="#0A0B09" points="10.0081729 25.9600551 9.32285737 25.7115404 10.6213499 22.182688 11.3066654 22.4314784 10.0081729 25.9600551"></polyline>
                    <polyline id="Fill-25" fill="#0A0B09" points="12.5829615 3.56781215 11.8643513 3.69275902 11.5064335 1.6602349 12.2250437 1.53528804 12.5829615 3.56781215"></polyline>
                    <polyline id="Fill-26" fill="#0A0B09" points="16.5672249 26.2480121 15.8513893 26.3726831 15.4934715 24.3409864 16.2120816 24.2157638 16.5672249 26.2480121"></polyline>
                    <polyline id="Fill-27" fill="#0A0B09" points="7.5526902 5.68225507 6.9950043 6.14728909 5.66321709 4.56462884 6.22090299 4.10042229 7.5526902 5.68225507"></polyline>
                    <polyline id="Fill-28" fill="#0A0B09" points="22.4132158 23.3427907 21.8527554 23.8078247 20.5209682 22.2257161 21.0814286 21.7609579 22.4132158 23.3427907"></polyline>
                    <polyline id="Fill-29" fill="#0A0B09" points="3.59062324 15.4010799 3.7154783 16.1149043 1.67063001 16.4701616 1.54577496 15.7560613 3.59062324 15.4010799"></polyline>
                    <polyline id="Fill-30" fill="#0A0B09" points="26.4030284 11.438637 26.530658 12.1521856 24.4858097 12.5077187 24.3609546 11.7938943 26.4030284 11.438637"></polyline>
                    <polyline id="Fill-31" fill="#0A0B09" points="5.71593367 20.4003334 6.18483375 20.9563883 4.59223821 22.279777 4.12611269 21.7239979 5.71593367 20.4003334"></polyline>
                    <polyline id="Fill-32" fill="#0A0B09" points="23.4814202 5.62819418 23.9503202 6.18480073 22.3577247 7.50846517 21.8915992 6.95268608 23.4814202 5.62819418"></polyline>
                    <polyline id="Fill-33" fill="#0A0B09" points="5.76032658 10.5587684 5.51061647 11.2392185 1.95918391 9.94865256 2.21166857 9.26847825 5.76032658 10.5587684"></polyline>
                    <polyline id="Fill-34" fill="#0A0B09" points="26.1144745 17.9595944 25.8647644 18.6400445 22.3161064 17.3497544 22.5658165 16.6695801 26.1144745 17.9595944"></polyline>
                    <polyline id="Fill-35" fill="#0A0B09" points="12.610707 12.436557 13.5929001 11.9158071 17.9545032 20.0318367 16.9750847 20.5528624 12.610707 12.436557"></polyline>
                    <polyline id="Fill-36" fill="#0A0B09" points="14.0590256 11.6645343 14.8525489 11.8209247 12.6606491 22.8545877 11.8671259 22.6987489 14.0590256 11.6645343"></polyline>
                </g>
                <g id="clock-left" transform="translate(48.703010, 119.047570) rotate(-4.000000) translate(-48.703010, -119.047570) translate(33.892769, 104.276142)">
                    <path d="M28.258294,18.2732815 C26.0636196,25.8768359 18.0839946,30.2714901 10.4373163,28.0897469 C2.78786355,25.9085553 -1.63200526,17.9781531 0.562669081,10.3745987 C2.75734342,2.77242344 10.7341939,-1.62195493 18.3836467,0.558960825 C26.030325,2.73987658 30.4501938,10.6705545 28.258294,18.2732815" id="Fill-37" fill="#126A71"></path>
                    <path d="M26.3466244,18.6641197 C23.9355347,25.217624 16.635676,28.5862244 10.0461039,26.1896168 C3.45375715,23.7930091 0.0632488768,16.5380923 2.47433864,9.984588 C4.88542841,3.43191119 12.1852871,0.0627590491 18.7748592,2.45936674 C25.3672059,4.85597443 28.7577142,12.1114429 26.3466244,18.6641197" id="Fill-38" fill="#FFFFFE"></path>
                    <polyline id="Fill-39" fill="#0A0B09" points="17.9147466 5.88009738 17.2127838 5.62468724 18.544571 2.00315899 19.2465338 2.25856913 17.9147466 5.88009738"></polyline>
                    <polyline id="Fill-40" fill="#0A0B09" points="10.2736175 26.646652 9.57165466 26.3912418 10.9062164 22.7697136 11.6081793 23.0251237 10.2736175 26.646652"></polyline>
                    <polyline id="Fill-41" fill="#0A0B09" points="12.91777 3.66525566 12.1797379 3.79323655 11.8134965 1.70720318 12.548754 1.57894647 12.91777 3.66525566"></polyline>
                    <polyline id="Fill-42" fill="#0A0B09" points="17.0074666 26.9420561 16.2694345 27.0703129 15.903193 24.9848311 16.6412251 24.8565744 17.0074666 26.9420561"></polyline>
                    <polyline id="Fill-43" fill="#0A0B09" points="7.75432003 5.8354144 7.17998679 6.31230871 5.8149049 4.68827533 6.38923813 4.21193265 7.75432003 5.8354144"></polyline>
                    <polyline id="Fill-44" fill="#0A0B09" points="23.0060582 23.9604323 22.4317249 24.4376025 21.066643 22.8138449 21.6382017 22.3369506 23.0060582 23.9604323"></polyline>
                    <polyline id="Fill-45" fill="#0A0B09" points="3.68681992 15.8096493 3.81722408 16.5422296 1.71688467 16.9068648 1.58925506 16.1740087 3.68681992 15.8096493"></polyline>
                    <polyline id="Fill-46" fill="#0A0B09" points="27.1013038 11.7429462 27.231708 12.4755264 25.1341431 12.8401616 25.003739 12.1075814 27.1013038 11.7429462"></polyline>
                    <polyline id="Fill-47" fill="#0A0B09" points="5.87039603 20.9404695 6.35039434 21.5111429 4.71618045 22.8692849 4.23618214 22.2988873 5.87039603 20.9404695"></polyline>
                    <polyline id="Fill-48" fill="#0A0B09" points="24.1047826 5.78025022 24.5847809 6.35092363 22.950567 7.7093415 22.4705687 7.13921973 24.1047826 5.78025022"></polyline>
                    <polyline id="Fill-49" fill="#0A0B09" points="5.91478894 10.8401844 5.65675517 11.5385629 2.01376223 10.214071 2.271796 9.51569249 5.91478894 10.8401844"></polyline>
                    <polyline id="Fill-50" fill="#0A0B09" points="26.8044263 18.43574 26.5491671 19.1341185 22.9061741 17.8096266 23.1614333 17.1115239 26.8044263 18.43574"></polyline>
                    <polyline id="Fill-51" fill="#0A0B09" points="12.6930309 15.5994738 12.2685238 14.5472171 21.0888395 11.0349139 21.5133467 12.0877223 12.6930309 15.5994738"></polyline>
                    <polyline id="Fill-52" fill="#0A0B09" points="15.7561415 16.2548242 14.9986875 16.592429 10.2541956 6.05689857 11.0116496 5.7192938 15.7561415 16.2548242"></polyline>
                </g>
                <g id="clock-right" transform="translate(112.152110, 137.296669) rotate(-4.000000) translate(-112.152110, -137.296669) translate(97.341869, 122.525241)">
                    <path d="M18.486334,28.0601542 C10.8563031,30.2989924 2.84338334,25.9639155 0.593217861,18.3780136 C-1.65972217,10.7921118 2.70188095,2.82833531 10.3319118,0.58922135 C17.9619428,-1.64906515 25.9748625,2.68546009 28.225028,10.2710861 C30.477968,17.8572638 26.1191394,25.8215919 18.486334,28.0601542" id="Fill-53" fill="#126A71"></path>
                    <path d="M26.3466531,18.6645915 C23.9355633,25.2180958 16.6357047,28.5866963 10.043358,26.1900886 C3.45378581,23.7934809 0.0632775333,16.5382883 2.4743673,9.98505987 C4.88545706,3.43210723 12.1853157,0.0632309178 18.7748879,2.45956278 C25.3672346,4.85644629 28.7577428,12.1119147 26.3466531,18.6645915" id="Fill-54" fill="#FFFFFE"></path>
                    <polyline id="Fill-55" fill="#0A0B09" points="17.9147753 5.88056925 17.2128124 5.62515911 18.5445997 2.00363086 19.2465625 2.259041 17.9147753 5.88056925"></polyline>
                    <polyline id="Fill-56" fill="#0A0B09" points="10.2736462 26.6471238 9.57168332 26.3917137 10.9034705 22.7701854 11.6082079 23.0255956 10.2736462 26.6471238"></polyline>
                    <polyline id="Fill-57" fill="#0A0B09" points="12.9177987 3.66572752 12.1797666 3.79370842 11.8135251 1.70767505 12.5487826 1.57941833 12.9177987 3.66572752"></polyline>
                    <polyline id="Fill-58" fill="#0A0B09" points="17.0074952 26.942528 16.2694632 27.0705089 15.9032217 24.9850272 16.6412538 24.8570463 17.0074952 26.942528"></polyline>
                    <polyline id="Fill-59" fill="#0A0B09" points="7.75434868 6.38752804 7.18001545 6.86442235 5.81493355 5.24038897 6.38926679 4.7640463 7.75434868 6.38752804"></polyline>
                    <polyline id="Fill-60" fill="#0A0B09" points="23.0060868 23.9609042 22.4317536 24.4377985 21.0638971 22.8143168 21.6382304 22.3374225 23.0060868 23.9609042"></polyline>
                    <polyline id="Fill-61" fill="#0A0B09" points="3.68684857 15.8101212 3.81447818 16.5427015 1.71691332 16.9073367 1.58928371 16.1744806 3.68684857 15.8101212"></polyline>
                    <polyline id="Fill-62" fill="#0A0B09" points="27.1013325 11.743418 27.2317367 12.4757225 25.1313972 12.8406335 25.0037676 12.1080532 27.1013325 11.743418"></polyline>
                    <polyline id="Fill-63" fill="#0A0B09" points="5.87042469 20.9409413 6.350423 21.5116147 4.71620911 22.8697568 4.2362108 22.2993592 5.87042469 20.9409413"></polyline>
                    <polyline id="Fill-64" fill="#0A0B09" points="24.1020367 5.78044627 24.5848096 6.3513955 22.9478211 7.70981337 22.4705974 7.1396916 24.1020367 5.78044627"></polyline>
                    <polyline id="Fill-65" fill="#0A0B09" points="5.9148176 10.8403804 5.65678382 11.5387589 2.01379089 10.214267 2.27182466 9.51588854 5.9148176 10.8403804"></polyline>
                    <polyline id="Fill-66" fill="#0A0B09" points="26.8044549 18.4362118 26.5464212 19.1345903 22.9062028 17.8100984 23.161462 17.1119958 26.8044549 18.4362118"></polyline>
                    <polyline id="Fill-67" fill="#0A0B09" points="16.3970928 15.1269128 15.7090027 16.0318812 8.12336472 10.3439028 8.81145478 9.43865869 16.3970928 15.1269128"></polyline>
                    <polyline id="Fill-68" fill="#0A0B09" points="13.0176827 12.4255231 13.7695876 12.0710932 18.755466 22.4957437 18.0035611 22.8507251 13.0176827 12.4255231"></polyline>
                </g>
                <g id="cog-left" transform="translate(59.411424, 140.161295) rotate(-4.000000) translate(-59.411424, -140.161295) translate(48.640340, 129.418438)">
                    <path d="M20.4928533,14.1154521 C18.4896234,19.5637421 12.4216679,22.364979 6.93914391,20.3721731 C1.45939444,18.3793672 -1.35955515,12.3474402 0.646449333,6.89915021 C2.64967926,1.4505844 8.71763475,-1.35092835 14.2001588,0.642153382 C19.6799082,2.63495929 22.4988578,8.66688627 20.4928533,14.1154521" id="Fill-69" fill="#126A71"></path>
                    <path d="M8.99786497,14.7754915 C6.55348053,13.8862449 5.27440989,11.254362 6.14007158,8.89692089 C7.00850783,6.53947977 9.6942787,5.34903682 12.1386631,6.23855918 C14.5858222,7.12808154 15.8648928,9.75996445 14.9992311,12.1174056 C14.1307949,14.4745709 11.445024,15.664738 8.99786497,14.7754915 Z M16.9663918,13.3704599 L17.3132114,12.4219118 L16.2783017,12.0451405 C16.3199201,11.8884742 16.3559893,11.731808 16.3837349,11.5745901 L17.4769102,11.6802295 L17.5601469,10.6710008 L16.4669716,10.5661889 C16.464197,10.404282 16.4558734,10.2429268 16.439226,10.0826749 L17.5185286,9.90973519 L17.3298587,8.90933283 L16.2477816,9.08254835 C16.2033887,8.9261579 16.1534467,8.77169821 16.095181,8.6197209 L17.0884723,8.18006241 L16.6389941,7.25661408 L15.6457028,7.69599675 C15.5624661,7.55560392 15.4709057,7.41879676 15.3765708,7.28557527 L16.2117124,6.60926245 L15.5347205,5.82482785 L14.699579,6.50058902 C14.580273,6.38557171 14.4581925,6.2744159 14.3305629,6.16850068 L14.9492891,5.30380219 L14.0891765,4.71271803 L13.4676758,5.57934726 C13.3233989,5.49825592 13.1763474,5.42185353 13.0237467,5.35151921 L13.3927628,4.3530476 L12.4077951,3.99503209 L12.0387791,4.9935037 C11.8778548,4.949924 11.7169305,4.91323982 11.5532317,4.88317534 L11.6392429,3.82154075 L10.5987842,3.72141777 L10.5127729,4.78084579 C10.3462995,4.77919087 10.1798261,4.78581057 10.0161273,4.79767087 L9.8163592,3.74569 L8.78699867,3.91035507 L8.9895413,4.9631634 C8.82861702,5.00370907 8.67046729,5.04977116 8.51509211,5.10272877 L8.04341747,4.13101178 L7.1000682,4.54832878 L7.57174284,5.52059741 C7.43024044,5.59948219 7.29151261,5.68498666 7.15555933,5.77573173 L6.43972371,4.95019982 L5.64620049,5.59258666 L6.35926156,6.41756694 C6.24273018,6.52982604 6.13174791,6.64677409 6.0235402,6.76923857 L5.12180928,6.14836575 L4.5308287,6.97196692 L5.43533418,7.59421884 C5.35487204,7.73212928 5.27995901,7.87390122 5.20782053,8.02036211 L4.17291089,7.64359078 L3.82331675,8.59213881 L4.86100095,8.96891014 C4.8193826,9.12530059 4.78331336,9.28224267 4.75556779,9.43946058 L3.6596179,9.334097 L3.57915576,10.342774 L4.67233109,10.4481376 C4.67233109,10.6100444 4.68342932,10.7711238 4.70007666,10.9313758 L3.61799955,11.1043155 L3.80944396,12.1047178 L4.88874651,11.9317781 C4.93591398,12.0878927 4.985856,12.2423524 5.04412169,12.3943297 L4.05083039,12.8337124 L4.50030858,13.7577124 L5.49359987,13.3180539 C5.57683657,13.4584467 5.66839694,13.5949781 5.76273187,13.7284754 L4.92759031,14.405064 L5.60458214,15.188947 L6.43972371,14.5134616 C6.55902964,14.6282031 6.68111014,14.7396347 6.80873975,14.8452741 L6.18723905,15.7102484 L7.04735162,16.3016084 L7.67162688,15.4347034 C7.81590382,15.5160705 7.96295533,15.5919213 8.11555595,15.6625314 L7.74653991,16.661003 L8.73150753,17.0187427 L9.09774902,16.0202711 C9.26144786,16.0641266 9.42237215,16.1008108 9.58607099,16.1305995 L9.50005974,17.1925099 L10.5405185,17.2923571 L10.6265298,16.232929 C10.7930032,16.2348598 10.9594766,16.2282401 11.1231754,16.2163798 L11.3229435,17.2680848 L12.3495295,17.1039714 L12.1497614,16.0506114 C12.3106857,16.0106174 12.4688354,15.9645553 12.6242106,15.911046 L13.0958852,16.8833147 L14.0392345,16.465446 L13.5675598,15.4934532 C13.7090622,15.4145685 13.8477901,15.329064 13.9837433,15.2383189 L14.6968044,16.063575 L15.4931022,15.4211882 L14.7800411,14.5967595 C14.8937979,14.4842246 15.0075548,14.3675524 15.1129879,14.2448121 L16.0174934,14.8654091 L16.608474,14.0418079 L15.7039685,13.4198318 C15.7844306,13.2819214 15.8593437,13.1401494 15.9287076,12.9936885 L16.9663918,13.3704599 L16.9663918,13.3704599 Z" id="Fill-70" fill="#FFFFFE"></path>
                    <path d="M10.2103462,8.00408868 C9.98838171,8.60510239 10.3157794,9.27589879 10.9400547,9.50262356 C11.5615554,9.72934833 12.2468709,9.42622117 12.4688354,8.82520746 C12.6880254,8.22419375 12.3634022,7.55339735 11.739127,7.32639676 C11.1148517,7.09994781 10.4323108,7.40335079 10.2103462,8.00408868" id="Fill-71" fill="#E5E5E0"></path>
                    <path d="M10.9289564,13.009962 C11.1481464,12.4089482 10.8235233,11.7381518 10.199248,11.5111513 C9.57497277,11.2847023 8.89243182,11.5881053 8.67046729,12.1888432 C8.44850275,12.7898569 8.77590044,13.4609291 9.4001757,13.6873781 C10.0216764,13.9141028 10.7069919,13.6109757 10.9289564,13.009962" id="Fill-72" fill="#FFFFFE"></path>
                    <path d="M9.5278053,10.1281853 C9.74699528,9.52717162 9.42237215,8.85637522 8.79809689,8.62965045 C8.17382164,8.40292568 7.49128069,8.70632866 7.26931616,9.30706655 C7.04735162,9.90808026 7.37474931,10.5788767 7.99902457,10.8058773 C8.62052526,11.0323262 9.30584077,10.7289232 9.5278053,10.1281853" id="Fill-73" fill="#FFFFFE"></path>
                    <path d="M13.1402781,10.2084492 C12.5160029,9.98144862 11.8334619,10.2851274 11.6114974,10.8858653 C11.3895328,11.4866032 11.7169305,12.1576754 12.3412058,12.3844002 C12.9627065,12.611125 13.648022,12.307722 13.8699865,11.7067083 C14.0891765,11.1059704 13.7645534,10.4348982 13.1402781,10.2084492" id="Fill-74" fill="#FFFFFE"></path>
                </g>
                <g id="cog-right" transform="translate(91.313179, 149.337206) rotate(-4.000000) translate(-91.313179, -149.337206) translate(80.542095, 138.594349)">
                    <path d="M20.4944881,14.1153445 C18.4884836,19.5636345 12.4205281,22.3648714 6.94077864,20.3720655 C1.45825461,18.3792596 -1.35792043,12.3473326 0.645309504,6.89876683 C2.65131399,1.45047685 8.71926948,-1.35076008 14.1990189,0.642045829 C19.6787684,2.63485174 22.497718,8.66677872 20.4944881,14.1153445" id="Fill-75" fill="#126A71"></path>
                    <path d="M8.9994997,14.7756597 C6.5523407,13.8861374 5.27327007,11.2539786 6.14170631,8.89653752 C7.007368,6.5390964 9.69313888,5.34920509 12.1402979,6.23872745 C14.5874569,7.12797399 15.8665275,9.75985689 14.9980913,12.117298 C14.129655,14.4747391 11.4438841,15.6646304 8.9994997,14.7756597 Z M16.965252,13.3703523 L17.3148461,12.4218043 L16.2799365,12.0450329 C16.3215548,11.8886425 16.3548495,11.7319762 16.3825951,11.5744825 L17.478545,11.6801219 L17.5617817,10.6711691 L16.4686063,10.5660813 C16.4658318,10.4041745 16.4547335,10.2428193 16.4408607,10.0825673 L17.5201633,9.90962764 L17.3287189,8.90922528 L16.2494163,9.0824408 C16.2050234,8.92632617 16.1550814,8.77159066 16.0968157,8.61961335 L17.0873325,8.18023067 L16.6378543,7.25650652 L15.6473375,7.69616502 C15.5613263,7.55577219 15.4725405,7.41896503 15.375431,7.28546772 L16.2105725,6.6091549 L15.5335807,5.82499612 L14.6984391,6.50075729 C14.5819078,6.38573998 14.4570527,6.27430834 14.3294231,6.16866894 L14.9509238,5.30369464 L14.0908112,4.71261048 L13.466536,5.57951553 C13.3250336,5.49814837 13.1779821,5.4220218 13.0253815,5.35168748 L13.3916229,4.35321587 L12.4066553,3.99520035 L12.0404138,4.99367196 C11.8794895,4.94981644 11.7157907,4.91340809 11.5520919,4.88334361 L11.6408777,3.82170902 L10.6004189,3.72158603 L10.5116331,4.78073824 C10.3451597,4.77935914 10.1814609,4.78570302 10.0149875,4.79783914 L9.81521937,3.74558245 L8.78863339,3.91024752 L8.98840148,4.96333167 C8.82747719,5.00360152 8.66932746,5.04966361 8.51395228,5.10262122 L8.04227764,4.13090423 L7.09892837,4.54849705 L7.57337756,5.52048986 C7.42910061,5.59937463 7.29037278,5.68515493 7.1544195,5.7759 L6.44135843,4.95036809 L5.64783522,5.59275493 L6.36089629,6.41745938 C6.24436491,6.52971849 6.13060808,6.64639072 6.02517493,6.76913102 L5.12066945,6.1482582 L4.52968887,6.97213519 L5.43419435,7.59438711 C5.35373221,7.73202173 5.27881918,7.87379367 5.20945526,8.02053038 L4.17454562,7.64348323 L3.82495147,8.59230708 L4.85986112,8.96880259 C4.81824277,9.12519303 4.78494809,9.28241094 4.75720252,9.43935302 L3.66125263,9.33398944 L3.57801593,10.3426664 L4.67119126,10.44803 C4.67396582,10.6099369 4.68228949,10.7710163 4.69893683,10.9312682 L3.61963428,11.1042079 L3.80830413,12.1046103 L4.89038124,11.9316706 C4.93477415,12.088061 4.98471617,12.2422449 5.04298186,12.3942222 L4.05246512,12.8338807 L4.49916875,13.7576048 L5.49246004,13.3182222 C5.57569674,13.4583392 5.66725712,13.5948705 5.7643666,13.7286436 L4.92645048,14.4049565 L5.60621687,15.1891152 L6.44135843,14.5133541 C6.55788981,14.6283714 6.67997031,14.739803 6.81037447,14.8454424 L6.18887377,15.7101409 L7.04898635,16.3015009 L7.67048705,15.4345958 C7.814764,15.515963 7.9618155,15.5920896 8.11441612,15.6626997 L7.74817463,16.6611713 L8.7303677,17.018911 L9.09938374,16.0201636 C9.26030803,16.0642949 9.42400688,16.1007033 9.58493116,16.1307677 L9.49891991,17.1924023 L10.5393787,17.2925253 L10.6253899,16.2330973 C10.7946379,16.2347522 10.9583367,16.2281325 11.1248101,16.2159964 L11.3245782,17.2682531 L12.3511642,17.1038638 L12.1513961,16.0507797 C12.3095458,16.0105098 12.4676956,15.9641719 12.6230707,15.9112143 L13.0975199,16.8832071 L14.0408692,16.4656143 L13.56642,15.4933457 C13.710697,15.4144609 13.8494248,15.3289564 13.9853781,15.2382114 L14.6984391,16.0637433 L15.4919624,15.4213564 L14.7789013,14.596652 C14.8954327,14.484117 15.0064149,14.3674448 15.1146227,14.2449803 L16.0163536,14.8655773 L16.6101087,14.0419762 L15.7028287,13.4200001 C15.7860654,13.2820896 15.8609784,13.1400419 15.9303423,12.9938568 L16.965252,13.3703523 L16.965252,13.3703523 Z" id="Fill-76" fill="#FFFFFE"></path>
                    <path d="M10.2092064,8.00425695 C9.99001644,8.60527066 10.3146396,9.27579124 10.9389148,9.50279183 C11.5631901,9.7295166 12.2485056,9.4258378 12.4676956,8.82537573 C12.6896601,8.22436202 12.3622624,7.5532898 11.7407617,7.32656503 C11.1164865,7.10011608 10.431171,7.40324323 10.2092064,8.00425695" id="Fill-77" fill="#E5E5E0"></path>
                    <path d="M10.9278166,13.0098544 C11.1497811,12.4091165 10.8223834,11.7380443 10.2008827,11.5113195 C9.57660749,11.2845948 8.89129199,11.5879977 8.67210201,12.1890114 C8.45013748,12.7900252 8.77476061,13.4608216 9.39903587,13.6872705 C10.0233111,13.9142711 10.7086266,13.6108681 10.9278166,13.0098544" id="Fill-78" fill="#FFFFFE"></path>
                    <path d="M9.52666547,10.1280778 C9.74863001,9.52706407 9.42123232,8.85626767 8.79973162,8.62981872 C8.17545636,8.40281813 7.49014086,8.70622111 7.27095088,9.30723482 C7.04898635,9.90797271 7.37360948,10.5790449 7.99788474,10.8057697 C8.62215999,11.0322186 9.3074755,10.7290915 9.52666547,10.1280778" id="Fill-79" fill="#FFFFFE"></path>
                    <path d="M13.1419128,10.2083417 C12.5176376,9.98161689 11.8323221,10.284744 11.6131321,10.8857578 C11.3911676,11.4867715 11.7157907,12.1578437 12.340066,12.3845685 C12.9643412,12.6110174 13.6496567,12.3076144 13.8688467,11.7068765 C14.0908112,11.1058628 13.7634135,10.4347906 13.1419128,10.2083417" id="Fill-80" fill="#FFFFFE"></path>
                </g>
                <g id="zaps" transform="translate(102.115594, 10.485947) rotate(-4.000000) translate(-102.115594, -10.485947) translate(92.242100, 1.533566)" fill="#126A71">
                    <polyline id="Fill-81" points="13.2984502 14.5608605 11.2480528 6.67072815 8.66494055 8.87867436 5.73223412 0.541988043 7.27488765 0 9.21707733 7.00833292 12.2524424 4.76204762 13.656368 14.4524628 13.2984502 14.5608605"></polyline>
                    <polyline id="Fill-82" points="16.5973981 14.6427793 16.2894223 14.5729966 18.1206298 7.92543737 15.2878074 8.46632213 16.6612129 1.12038444 18.0235203 1.36834742 16.4836413 7.32414784 19.6632833 6.94241173 16.5973981 14.6427793"></polyline>
                    <polyline id="Fill-83" points="10.7486326 17.0471099 6.36205849 11.8473346 5.21339202 14.4290181 3.55271368e-15 9.2093836 0.965545729 8.25090602 4.95535825 12.8262229 6.4258733 10.0547746 10.9789208 16.8399684 10.7486326 17.0471099"></polyline>
                </g>
            </g>
        </g>
    </g>
</svg>