<?xml version="1.0" encoding="UTF-8"?> <svg xmlns="http://www.w3.org/2000/svg" xmlns:xlink="http://www.w3.org/1999/xlink" width="1024px" height="192px" viewBox="0 0 1024 192" version="1.1"><!-- Generator: Sketch 60.1 (88133) - https://sketch.com --><title>vectorimage</title><desc>Created with Sketch.</desc><g id="content" stroke="none" stroke-width="1" fill="none" fill-rule="evenodd"><g id="vectorimage" transform="translate(0.000000, -5.000000)"><rect id="invisible" fill-opacity="0.01" fill="#FFFFFF" x="0" y="5" width="1024" height="192"></rect><g id="privacy" transform="translate(435.000000, 9.000000)" fill="#18A2AD" fill-rule="nonzero"><path d="M75.4605523,183.740319 C76.4576545,184.08656 77.5423453,184.08656 78.5394475,183.740319 C155.849753,156.92836 154.685781,93.1091386 153.803414,46.5074005 C153.709545,41.4379125 153.615677,36.6312868 153.615677,31.9748682 C153.615677,30.7299498 153.121191,29.5360201 152.241001,28.6557299 C151.36081,27.7754397 150.167016,27.2808978 148.922239,27.2808978 C120.292269,27.2808978 98.4771708,19.0382858 80.2854063,1.33262871 C78.462705,-0.444209572 75.5560686,-0.444209572 73.7333673,1.33262871 C55.522829,19.0382858 33.7265044,27.2808978 5.09653472,27.2808978 C2.51894688,27.2704008 0.415233218,29.3408241 0.384323277,31.9185405 C0.384323277,36.5749592 0.384323277,41.3064813 0.196585769,46.4510729 C-0.685780516,93.1091386 -1.84975306,156.92836 75.4605523,183.740319 Z M76.9999999,174.352378 C57.8695479,167.480405 44.1271623,158.167568 34.2333957,147.333885 C41.6295198,142.187185 49.8991103,138.427275 58.6392717,136.237339 C61.2672269,135.581708 63.1103244,133.219487 63.1074244,130.510695 L63.1074244,117.705543 C63.1074594,116.150235 62.607217,114.636172 61.6806193,113.387091 C58.5038162,108.769814 56.5292484,103.432713 55.9358516,97.8594366 C55.7811487,96.5267987 55.0636823,95.3240518 53.9646077,94.5548814 C50.6011471,92.2152336 48.5901211,88.3819372 48.5765413,84.2844742 C48.5701311,83.6963788 48.8080921,83.1320072 49.2336225,82.726076 C49.65868,82.3103534 50.2352018,82.0865019 50.8293914,82.106472 C52.0966489,82.1572883 53.3305266,81.6930193 54.2500258,80.8193959 C55.169525,79.9457725 55.6963655,78.7371694 55.7105666,77.4688292 L55.8419828,65.3959374 C55.8313464,62.7753735 56.3154229,60.1763523 57.2687879,57.7353777 C60.197493,50.5629909 67.575577,42.8273277 76.8685837,42.8273277 L78.65209,42.8273277 L78.65209,46.432297 C78.6486676,48.8382667 80.4647562,50.8572728 82.8574101,51.1074915 C88.7287738,51.9835721 93.9612408,55.2883045 97.2756507,60.2137941 C98.692352,62.1827518 99.4541933,64.5473554 99.4534058,66.9731114 L99.4534058,77.3937257 C99.4534058,79.9861339 101.554729,82.0876961 104.146843,82.0876961 L104.146843,82.0876961 C104.732704,82.0920566 105.292981,82.3283449 105.705065,82.7448519 C106.109145,83.1468698 106.332727,83.6957247 106.324599,84.2656983 C106.307187,88.2718055 104.382943,92.0300839 101.143043,94.3858985 C100.088484,95.164872 99.4077619,96.3494633 99.2656683,97.6529019 C98.6838652,103.392555 96.6272141,108.884048 93.2956156,113.593625 C92.3395976,114.859425 91.8192541,116.400871 91.8124892,117.987182 L91.8124892,130.660902 C91.8519474,133.316129 93.6560823,135.619541 96.2243207,136.293666 C104.683553,138.51973 112.68454,142.218779 119.860473,147.221229 C109.872837,158.167568 96.1304519,167.480405 76.9999999,174.333602 L76.9999999,174.352378 Z M9.6022349,46.6763834 C9.6022349,43.2028454 9.73365115,39.8607384 9.77119865,36.593735 C37.0870058,35.7675963 58.5829504,27.6000878 77.0187737,11.114863 C95.3795019,27.6000878 116.950542,35.7675963 144.266349,36.593735 C144.266349,39.8607384 144.360218,43.2028454 144.435313,46.6763834 C145.017299,77.1120875 145.67438,112.391969 125.661562,140.030067 C118.175374,134.716302 109.866743,130.669349 101.067948,128.051054 L101.067948,118.663113 C104.798365,113.277335 107.2335,107.102056 108.1832,100.619491 C112.879437,96.4635174 115.577575,90.4996151 115.598831,84.2281466 C115.608436,81.1635094 114.391576,78.2224317 112.219556,76.0606381 C111.206619,75.0509657 110.016578,74.2363001 108.708865,73.6573253 L108.708865,67.0106632 C108.733525,62.5994723 107.34534,58.2962676 104.747604,54.7312366 C100.644469,48.8980516 94.6899664,44.6235572 87.8512278,42.6020171 L87.8512278,38.1521332 C87.8512278,35.559725 85.7499042,33.4581628 83.1577902,33.4581628 L76.8122624,33.4581628 C63.1074244,33.4581628 52.7255402,43.8787771 48.52022,54.205512 C47.1177538,57.7368966 46.3978821,61.5023165 46.3987862,65.302058 L46.3987862,73.6009976 C45.0471013,74.154087 43.811564,74.9566404 42.7566785,75.9667587 C40.4901507,78.1384281 39.2142334,81.1453192 39.2272134,84.2844742 C39.2361525,90.6941048 42.0484721,96.7790087 46.9244512,100.938681 C47.8570802,107.194175 50.193329,113.157421 53.7580965,118.381475 L53.7580965,127.769416 C44.6690891,130.375084 36.0870143,134.50155 28.3759855,139.973739 C8.36316735,112.429521 9.00147487,77.1120875 9.58346115,46.6763834 L9.6022349,46.6763834 Z" id="path3976"></path></g></g></g></svg> 