<?xml version="1.0" encoding="UTF-8"?>
<svg width="320px" height="150px" viewBox="0 0 320 150" version="1.1" xmlns="http://www.w3.org/2000/svg" xmlns:xlink="http://www.w3.org/1999/xlink">
    <!-- Generator: Sketch 60.1 (88133) - https://sketch.com -->
    <title>ReadyPlayerOne</title>
    <desc>Created with Sketch.</desc>
    <g id="Page-1" stroke="none" stroke-width="1" fill="none" fill-rule="evenodd">
        <g id="ReadyPlayerOne">
            <rect fill="none" x="0" y="0" width="320" height="150"></rect>
            <path d="M8.349,84.667 C10.7936667,84.6923333 13.7893333,84.6796667 17.336,84.629 C20.3,84.591 23.264,84.5466667 26.228,84.496 L26.228,84.496 L19.692,77.903 C20.3253333,77.7383333 20.9586667,77.5673333 21.592,77.39 C22.314,77.162 22.903,76.8706667 23.359,76.516 C25.0563333,75.1986667 25.905,73.6596667 25.905,71.899 C25.905,71.7216667 25.8986667,71.5506667 25.886,71.386 C25.2906667,68.992 23.9163333,67.3833333 21.763,66.56 C20.2556667,65.9773333 18.02,65.724 15.056,65.8 C11.294,65.914 9.05833333,65.9266667 8.349,65.838 L8.349,65.838 L8.349,84.667 Z M24.898,84.021 L8.919,84.021 L8.919,66.484 C9.59033333,66.5726667 10.382,66.617 11.294,66.617 C11.8893333,66.617 12.814,66.5885 14.068,66.5315 C15.322,66.4745 16.2593333,66.446 16.88,66.446 C19.122,66.446 20.8636667,66.7373333 22.105,67.32 C23.7136667,68.0926667 24.7776667,69.448 25.297,71.386 C25.411,73.4 24.594,74.9706667 22.846,76.098 C21.592,76.9213333 20.2936667,77.333 18.951,77.333 C18.8243333,77.3836667 18.7673333,77.4913333 18.78,77.656 C18.78,77.7826667 18.8116667,77.8903333 18.875,77.979 L18.875,77.979 L24.898,84.021 Z M17.469,72.868 C17.735,72.868 17.9566667,72.7761667 18.134,72.5925 C18.3113333,72.4088333 18.4,72.1776667 18.4,71.899 C18.4,71.7976667 18.3873333,71.7026667 18.362,71.614 C18.21,71.1833333 17.8933333,70.968 17.412,70.968 C17.298,70.968 17.184,70.9933333 17.07,71.044 C16.652,71.2846667 16.4873333,71.69 16.576,72.26 C16.7913333,72.6653333 17.089,72.868 17.469,72.868 Z M20.338,76.212 L22.048,75.452 C22.6433333,75.186 23.15,74.7585 23.568,74.1695 C23.986,73.5805 24.214,72.9756667 24.252,72.355 L24.252,72.355 L24.005,72.355 C23.8403333,73.913 22.618,75.0593333 20.338,75.794 L20.338,75.794 L20.338,76.212 Z M18.609,83.033 C20.4076667,83.1216667 21.7693333,83.1596667 22.694,83.147 L22.694,83.147 L19.008,79.461 L18.609,79.461 L21.801,82.729 C21.4463333,82.7923333 20.9143333,82.8176667 20.205,82.805 C19.4956667,82.7923333 18.9636667,82.8113333 18.609,82.862 L18.609,82.862 L18.609,83.033 Z M45.361,84.762 L45.361,81.114 L35.101,81.038 L35.101,79.176 L38.768,79.005 L38.768,76.63 L35.101,76.63 C34.987,76.3513333 34.93,76.0093333 34.93,75.604 C34.93,75.1986667 34.987,74.844 35.101,74.54 L35.101,74.54 L45.437,74.54 L45.361,65.838 L27.007,65.838 L27.007,84.762 L45.361,84.762 Z M44.848,84.192 L27.558,84.192 L27.558,66.484 L44.848,66.484 L44.848,73.97 L34.569,73.97 L34.398,74.141 C34.398,74.331 34.3916667,74.6793333 34.379,75.186 C34.3663333,75.642 34.3726667,75.9903333 34.398,76.231 C34.4233333,76.611 34.4803333,76.9403333 34.569,77.219 L34.569,77.219 L38.217,77.219 L38.217,78.492 L34.626,78.492 C34.4866667,79.974 34.512,81.057 34.702,81.741 L34.702,81.741 L44.848,81.741 L44.848,84.192 Z M28.717,73.894 L28.774,67.7 L36.26,67.643 L36.26,67.396 C32.8146667,67.3073333 30.218,67.2756667 28.47,67.301 L28.47,67.301 L28.47,73.894 L28.717,73.894 Z M45.247,84.762 L65.9,84.705 C65.9,84.705 64.2723333,81.57 61.017,75.3 C59.0663333,71.5506667 57.407,68.4536667 56.039,66.009 L56.039,66.009 L45.247,84.762 Z M46.235,84.192 L56.039,67.244 L64.912,84.135 L46.235,84.192 Z M55.697,78.701 C56.001,78.701 56.2353333,78.5616667 56.4,78.283 C56.5393333,78.0423333 56.59,77.77 56.552,77.466 C56.324,77.0606667 56.0136667,76.858 55.621,76.858 C55.545,76.858 55.469,76.8643333 55.393,76.877 C55.1523333,76.9403333 54.9813333,77.1113333 54.88,77.39 C54.804,77.618 54.785,77.8523333 54.823,78.093 C55.0256667,78.4983333 55.317,78.701 55.697,78.701 Z M59.459,83.318 L63.354,83.242 L61.017,78.777 L60.789,78.91 C60.941,79.366 61.2703333,80.0563333 61.777,80.981 C62.2583333,81.855 62.5686667,82.52 62.708,82.976 L62.708,82.976 L59.459,83.071 L59.459,83.318 Z M75.077,84.781 C77.547,84.781 79.5103333,84.4896667 80.967,83.907 C82.8796667,83.1343333 84.311,81.7726667 85.261,79.822 C85.945,78.4286667 86.287,76.9023333 86.287,75.243 C86.287,72.9123333 85.641,71.0186667 84.349,69.562 C83.3356667,68.0926667 81.9676667,67.0666667 80.245,66.484 C78.9023333,66.028 77.1733333,65.8 75.058,65.8 C74.374,65.8 73.3353333,65.8285 71.942,65.8855 C70.5486667,65.9425 69.5163333,65.971 68.845,65.971 C67.8696667,65.971 67.002,65.9266667 66.242,65.838 L66.242,65.838 L66.185,84.762 C66.9703333,84.6733333 67.8823333,84.629 68.921,84.629 C69.5923333,84.629 70.6183333,84.6543333 71.999,84.705 C73.3796667,84.7556667 74.4056667,84.781 75.077,84.781 Z M75.514,84.306 C74.792,84.306 73.7026667,84.2648333 72.246,84.1825 C70.7893333,84.1001667 69.7063333,84.059 68.997,84.059 C68.161,84.059 67.4136667,84.1033333 66.755,84.192 L66.755,84.192 L66.755,66.484 L78.364,66.579 C79.9346667,66.8576667 81.3945,67.5828333 82.7435,68.7545 C84.0925,69.9261667 84.9886667,71.2783333 85.432,72.811 C85.6726667,73.6343333 85.793,74.464 85.793,75.3 C85.793,77.7573333 84.862,79.9423333 83,81.855 C81.3913333,83.489 78.896,84.306 75.514,84.306 Z M76.901,83.299 C77.4456667,83.2863333 78.0283333,83.1913333 78.649,83.014 C79.0036667,82.9126667 79.5546667,82.7163333 80.302,82.425 C81.6446667,81.9056667 82.7213333,80.962 83.532,79.594 C84.2286667,78.4286667 84.672,77.0733333 84.862,75.528 L84.862,75.528 L84.52,75.528 C84.292,77.2633333 83.7853333,78.6946667 83,79.822 C81.8473333,81.4686667 79.7826667,82.5516667 76.806,83.071 L76.806,83.071 L76.901,83.299 Z M76.806,78.606 C77.034,78.5806667 77.2208333,78.4761667 77.3665,78.2925 C77.5121667,78.1088333 77.585,77.903 77.585,77.675 C77.585,77.5736667 77.5723333,77.4786667 77.547,77.39 C77.319,76.9846667 77.015,76.782 76.635,76.782 C76.559,76.782 76.483,76.7883333 76.407,76.801 C76.0016667,77.0036667 75.799,77.3266667 75.799,77.77 C75.799,77.846 75.8053333,77.9283333 75.818,78.017 C75.9446667,78.3083333 76.274,78.5046667 76.806,78.606 Z M84.197,84.61 L94.096,84.553 L104.736,66.313 L104.812,65.914 L84.425,65.914 C84.8936667,67.0286667 85.6916667,68.65 86.819,70.778 C87.9843333,72.9693333 88.8013333,74.6033333 89.27,75.68 C87.0533333,79.366 85.3623333,82.3426667 84.197,84.61 L84.197,84.61 Z M85.166,84.04 L90.011,75.585 L85.299,66.598 L103.824,66.598 L93.754,83.983 L85.166,84.04 Z M89.365,71.899 C89.4283333,71.899 89.4726667,71.8736667 89.498,71.823 C88.6746667,70.1636667 88.035,68.9223333 87.579,68.099 L87.579,68.099 L87.579,67.7 L90.714,67.7 L90.714,67.396 L86.914,67.396 C87.8766667,69.372 88.6366667,70.873 89.194,71.899 C89.2066667,71.8863333 89.2636667,71.8863333 89.365,71.899 Z M114.578,84.743 L124.192,84.667 L124.268,78.055 C126.826667,78.055 128.897667,77.295 130.481,75.775 C131.519667,74.7743333 132.039,73.5076667 132.039,71.975 C132.039,71.4683333 131.975667,70.968 131.849,70.474 C131.089,68.6626667 129.892,67.4023333 128.258,66.693 C126.978667,66.1356667 125.256,65.857 123.09,65.857 C122.431333,65.857 121.4275,65.8886667 120.0785,65.952 C118.7295,66.0153333 117.725667,66.047 117.067,66.047 C116.129667,66.047 115.3,66.0026667 114.578,65.914 L114.578,65.914 L114.578,84.743 Z M123.622,84.097 L115.053,84.097 L115.053,66.56 C115.737,66.6486667 116.535,66.693 117.447,66.693 C118.055,66.693 118.986,66.6645 120.24,66.6075 C121.494,66.5505 122.431333,66.522 123.052,66.522 C125.167333,66.522 126.833,66.788 128.049,67.32 C129.619667,68.0166667 130.728,69.239 131.374,70.987 C131.45,71.3036667 131.488,71.6266667 131.488,71.956 C131.488,73.1593333 131.019333,74.293 130.082,75.357 C128.283333,76.8896667 126.149,77.6053333 123.679,77.504 L123.679,77.504 L123.622,84.097 Z M123.85,72.925 C124.356667,72.7603333 124.61,72.4056667 124.61,71.861 C124.584667,71.6203333 124.4675,71.4271667 124.2585,71.2815 C124.0495,71.1358333 123.824667,71.063 123.584,71.063 C123.47,71.063 123.368667,71.082 123.28,71.12 C122.9,71.3353333 122.71,71.6393333 122.71,72.032 C122.71,72.108 122.716333,72.1903333 122.729,72.279 C122.817667,72.659 123.191333,72.8743333 123.85,72.925 Z M116.516,83.223 C119.036667,83.2863333 120.936667,83.3053333 122.216,83.28 L122.216,83.28 L122.387,83.109 L122.463,76.516 C122.716333,76.5413333 122.976,76.554 123.242,76.554 C124.597333,76.554 126.377,76.0536667 128.581,75.053 C129.873,74.065 130.506333,73.058 130.481,72.032 L130.481,72.032 L130.31,72.032 C130.12,72.4626667 129.923667,72.8933333 129.721,73.324 C129.467667,73.8053333 129.176333,74.1916667 128.847,74.483 C127.035667,75.6356667 125.059667,76.212 122.919,76.212 C122.627667,76.212 122.342667,76.1993333 122.064,76.174 L122.064,76.174 L121.988,82.881 L116.516,82.938 L116.516,83.223 Z M147.125,84.686 L147.125,78.815 L140.19,78.815 L140.057,78.644 L139.962,65.933 L132.704,65.933 L132.609,84.686 L147.125,84.686 Z M146.574,84.116 L133.198,84.116 L133.198,66.579 L139.468,66.579 L139.468,79.214 L139.639,79.385 L146.574,79.385 L146.574,84.116 Z M136.105,83.242 L136.105,82.957 L134.49,82.824 L134.414,78.644 L134.243,78.644 L134.167,83.242 L136.105,83.242 Z M146.612,84.762 L167.265,84.705 C167.265,84.705 165.637333,81.57 162.382,75.3 C160.431333,71.5506667 158.772,68.4536667 157.404,66.009 L157.404,66.009 L146.612,84.762 Z M147.6,84.192 L157.404,67.244 L166.277,84.135 L147.6,84.192 Z M157.062,78.701 C157.366,78.701 157.600333,78.5616667 157.765,78.283 C157.904333,78.0423333 157.955,77.77 157.917,77.466 C157.689,77.0606667 157.378667,76.858 156.986,76.858 C156.91,76.858 156.834,76.8643333 156.758,76.877 C156.517333,76.9403333 156.346333,77.1113333 156.245,77.39 C156.169,77.618 156.15,77.8523333 156.188,78.093 C156.390667,78.4983333 156.682,78.701 157.062,78.701 Z M160.824,83.318 L164.719,83.242 L162.382,78.777 L162.154,78.91 C162.306,79.366 162.635333,80.0563333 163.142,80.981 C163.623333,81.855 163.933667,82.52 164.073,82.976 L164.073,82.976 L160.824,83.071 L160.824,83.318 Z M167.531,84.61 L177.43,84.553 L188.07,66.313 L188.146,65.914 L167.759,65.914 C168.227667,67.0286667 169.025667,68.65 170.153,70.778 C171.318333,72.9693333 172.135333,74.6033333 172.604,75.68 C170.387333,79.366 168.696333,82.3426667 167.531,84.61 L167.531,84.61 Z M168.5,84.04 L173.345,75.585 L168.633,66.598 L187.158,66.598 L177.088,83.983 L168.5,84.04 Z M172.699,71.899 C172.762333,71.899 172.806667,71.8736667 172.832,71.823 C172.008667,70.1636667 171.369,68.9223333 170.913,68.099 L170.913,68.099 L170.913,67.7 L174.048,67.7 L174.048,67.396 L170.248,67.396 C171.210667,69.372 171.970667,70.873 172.528,71.899 C172.540667,71.8863333 172.597667,71.8863333 172.699,71.899 Z M206.69,84.762 L206.69,81.114 L196.43,81.038 L196.43,79.176 L200.097,79.005 L200.097,76.63 L196.43,76.63 C196.316,76.3513333 196.259,76.0093333 196.259,75.604 C196.259,75.1986667 196.316,74.844 196.43,74.54 L196.43,74.54 L206.766,74.54 L206.69,65.838 L188.336,65.838 L188.336,84.762 L206.69,84.762 Z M206.177,84.192 L188.887,84.192 L188.887,66.484 L206.177,66.484 L206.177,73.97 L195.898,73.97 L195.727,74.141 C195.727,74.331 195.720667,74.6793333 195.708,75.186 C195.695333,75.642 195.701667,75.9903333 195.727,76.231 C195.752333,76.611 195.809333,76.9403333 195.898,77.219 L195.898,77.219 L199.546,77.219 L199.546,78.492 L195.955,78.492 C195.815667,79.974 195.841,81.057 196.031,81.741 L196.031,81.741 L206.177,81.741 L206.177,84.192 Z M190.046,73.894 L190.103,67.7 L197.589,67.643 L197.589,67.396 C194.143667,67.3073333 191.547,67.2756667 189.799,67.301 L189.799,67.301 L189.799,73.894 L190.046,73.894 Z M207.488,84.667 C209.932667,84.6923333 212.928333,84.6796667 216.475,84.629 C219.439,84.591 222.403,84.5466667 225.367,84.496 L225.367,84.496 L218.831,77.903 C219.464333,77.7383333 220.097667,77.5673333 220.731,77.39 C221.453,77.162 222.042,76.8706667 222.498,76.516 C224.195333,75.1986667 225.044,73.6596667 225.044,71.899 C225.044,71.7216667 225.037667,71.5506667 225.025,71.386 C224.429667,68.992 223.055333,67.3833333 220.902,66.56 C219.394667,65.9773333 217.159,65.724 214.195,65.8 C210.433,65.914 208.197333,65.9266667 207.488,65.838 L207.488,65.838 L207.488,84.667 Z M224.037,84.021 L208.058,84.021 L208.058,66.484 C208.729333,66.5726667 209.521,66.617 210.433,66.617 C211.028333,66.617 211.953,66.5885 213.207,66.5315 C214.461,66.4745 215.398333,66.446 216.019,66.446 C218.261,66.446 220.002667,66.7373333 221.244,67.32 C222.852667,68.0926667 223.916667,69.448 224.436,71.386 C224.55,73.4 223.733,74.9706667 221.985,76.098 C220.731,76.9213333 219.432667,77.333 218.09,77.333 C217.963333,77.3836667 217.906333,77.4913333 217.919,77.656 C217.919,77.7826667 217.950667,77.8903333 218.014,77.979 L218.014,77.979 L224.037,84.021 Z M216.608,72.868 C216.874,72.868 217.095667,72.7761667 217.273,72.5925 C217.450333,72.4088333 217.539,72.1776667 217.539,71.899 C217.539,71.7976667 217.526333,71.7026667 217.501,71.614 C217.349,71.1833333 217.032333,70.968 216.551,70.968 C216.437,70.968 216.323,70.9933333 216.209,71.044 C215.791,71.2846667 215.626333,71.69 215.715,72.26 C215.930333,72.6653333 216.228,72.868 216.608,72.868 Z M219.477,76.212 L221.187,75.452 C221.782333,75.186 222.289,74.7585 222.707,74.1695 C223.125,73.5805 223.353,72.9756667 223.391,72.355 L223.391,72.355 L223.144,72.355 C222.979333,73.913 221.757,75.0593333 219.477,75.794 L219.477,75.794 L219.477,76.212 Z M217.748,83.033 C219.546667,83.1216667 220.908333,83.1596667 221.833,83.147 L221.833,83.147 L218.147,79.461 L217.748,79.461 L220.94,82.729 C220.585333,82.7923333 220.053333,82.8176667 219.344,82.805 C218.634667,82.7923333 218.102667,82.8113333 217.748,82.862 L217.748,82.862 L217.748,83.033 Z M245.013,84.61 C245.532333,84.61 246.058,84.572 246.59,84.496 C248.097333,84.268 249.528667,83.603 250.884,82.501 C252.239333,81.399 253.164,80.126 253.658,78.682 C254.114,77.7066667 254.342,76.6236667 254.342,75.433 C254.342,73.4443333 253.797333,71.652 252.708,70.056 C251.846667,68.7766667 250.738333,67.7823333 249.383,67.073 C248.027667,66.3636667 246.571,66.009 245.013,66.009 C243.265,66.009 241.646833,66.465 240.1585,67.377 C238.670167,68.289 237.495333,69.5303333 236.634,71.101 C235.988,72.279 235.665,73.6596667 235.665,75.243 C235.665,77.0036667 236.045,78.5363333 236.805,79.841 C237.679,81.3483333 238.838,82.52 240.282,83.356 C241.726,84.192 243.303,84.61 245.013,84.61 Z M244.918,84.04 C242.397333,84.04 240.256667,83.1026667 238.496,81.228 C237.001333,79.6193333 236.254,77.6496667 236.254,75.319 C236.254,74.2423333 236.437667,73.2226667 236.805,72.26 C237.387667,70.7526667 238.363,69.4733333 239.731,68.422 C241.073667,67.4086667 242.543,66.807 244.139,66.617 C247.685667,66.541 250.352,67.7633333 252.138,70.284 C253.189333,71.7913333 253.715,73.4823333 253.715,75.357 C253.715,76.2056667 253.594667,77.0226667 253.354,77.808 C252.898,79.2646667 252.062,80.5598333 250.846,81.6935 C249.63,82.8271667 248.293667,83.546 246.837,83.85 C246.191,83.9766667 245.551333,84.04 244.918,84.04 Z M244.918,76.364 C244.981333,76.364 245.038333,76.3576667 245.089,76.345 C245.443667,76.1803333 245.64,75.87 245.678,75.414 C245.64,75.2366667 245.532333,75.0846667 245.355,74.958 C245.177667,74.8313333 244.987667,74.768 244.785,74.768 C244.341667,74.9326667 244.12,75.1986667 244.12,75.566 C244.12,75.6293333 244.126333,75.6926667 244.139,75.756 C244.417667,76.1613333 244.677333,76.364 244.918,76.364 Z M245.26,83.109 C246.843333,82.9316667 248.255667,82.4313333 249.497,81.608 C250.915667,80.658 251.796,79.4673333 252.138,78.036 C251.986,78.036 251.903667,78.017 251.891,77.979 C251.511,79.3216667 250.643333,80.43 249.288,81.304 C248.122667,82.064 246.78,82.5516667 245.26,82.767 L245.26,82.767 L245.26,83.109 Z M270.891,84.838 L270.891,65.914 L264.127,65.914 L263.956,75.87 L255.083,65.971 L255.083,84.838 L270.891,84.838 Z M270.416,84.268 L255.558,84.268 L255.558,67.472 C257.04,69.1186667 258.528333,70.7716667 260.023,72.431 C261.809,74.4196667 263.31,76.0283333 264.526,77.257 L264.526,77.257 L264.602,66.56 L270.416,66.56 L270.416,84.268 Z M269.086,82.805 L269.01,76.915 L268.839,76.915 L268.687,82.463 L268.687,82.463 L266.388,82.463 C265.463333,82.463 264.709667,82.4946667 264.127,82.558 L264.127,82.558 L264.127,82.805 L269.086,82.805 Z M290.537,84.762 L290.537,81.114 L280.277,81.038 L280.277,79.176 L283.944,79.005 L283.944,76.63 L280.277,76.63 C280.163,76.3513333 280.106,76.0093333 280.106,75.604 C280.106,75.1986667 280.163,74.844 280.277,74.54 L280.277,74.54 L290.613,74.54 L290.537,65.838 L272.183,65.838 L272.183,84.762 L290.537,84.762 Z M290.024,84.192 L272.734,84.192 L272.734,66.484 L290.024,66.484 L290.024,73.97 L279.745,73.97 L279.574,74.141 C279.574,74.331 279.567667,74.6793333 279.555,75.186 C279.542333,75.642 279.548667,75.9903333 279.574,76.231 C279.599333,76.611 279.656333,76.9403333 279.745,77.219 L279.745,77.219 L283.393,77.219 L283.393,78.492 L279.802,78.492 C279.662667,79.974 279.688,81.057 279.878,81.741 L279.878,81.741 L290.024,81.741 L290.024,84.192 Z M273.893,73.894 L273.95,67.7 L281.436,67.643 L281.436,67.396 C277.990667,67.3073333 275.394,67.2756667 273.646,67.301 L273.646,67.301 L273.646,73.894 L273.893,73.894 Z" id="READYPLAYERONE" fill="#000000" fill-rule="nonzero"></path>
            <path d="M306.5,78.8 C306.5,78.1 306.616667,77.525 306.85,77.075 C307.083333,76.625 307.366667,76.2291667 307.7,75.8875 C308.033333,75.5458333 308.4,75.225 308.8,74.925 C309.2,74.625 309.566667,74.2791667 309.9,73.8875 C310.233333,73.4958333 310.5125,73.0208333 310.7375,72.4625 C310.9625,71.9041667 311.075,71.2 311.075,70.35 C311.075,69.0666667 310.633333,68.0458333 309.75,67.2875 C308.866667,66.5291667 307.641667,66.15 306.075,66.15 C304.908333,66.15 303.9125,66.2916667 303.0875,66.575 C302.2625,66.8583333 301.533333,67.2166667 300.9,67.65 L300.9,67.65 L302.15,70.05 C302.366667,69.9 302.6125,69.7541667 302.8875,69.6125 C303.1625,69.4708333 303.45,69.3458333 303.75,69.2375 C304.05,69.1291667 304.35,69.0458333 304.65,68.9875 C304.95,68.9291667 305.233333,68.9 305.5,68.9 C306.333333,68.9 306.9125,69.075 307.2375,69.425 C307.5625,69.775 307.725,70.2416667 307.725,70.825 C307.725,71.275 307.616667,71.6625 307.4,71.9875 C307.183333,72.3125 306.9125,72.625 306.5875,72.925 C306.2625,73.225 305.9125,73.5375 305.5375,73.8625 C305.1625,74.1875 304.829167,74.5708333 304.5375,75.0125 C304.245833,75.4541667 304.016667,75.9791667 303.85,76.5875 C303.683333,77.1958333 303.641667,77.9333333 303.725,78.8 L303.725,78.8 L306.5,78.8 Z M305.225,84.275 C305.858333,84.275 306.358333,84.1 306.725,83.75 C307.091667,83.4 307.275,82.9333333 307.275,82.35 C307.275,81.7666667 307.091667,81.3041667 306.725,80.9625 C306.358333,80.6208333 305.858333,80.45 305.225,80.45 C304.625,80.45 304.141667,80.6208333 303.775,80.9625 C303.408333,81.3041667 303.225,81.7666667 303.225,82.35 C303.225,82.9333333 303.408333,83.4 303.775,83.75 C304.141667,84.1 304.625,84.275 305.225,84.275 Z"  fill="#939393" fill-rule="nonzero"></path>
        </g>
    </g>
</svg>