<?xml version="1.0" encoding="UTF-8"?>
<svg width="512px" height="512px" viewBox="0 0 512 512" version="1.1" xmlns="http://www.w3.org/2000/svg" xmlns:xlink="http://www.w3.org/1999/xlink">
    <!-- Generator: Sketch 60.1 (88133) - https://sketch.com -->
    <title>PWA</title>
    <desc>Created with Sketch.</desc>
    <defs>
        <linearGradient x1="50%" y1="0%" x2="50%" y2="100%" id="linearGradient-1">
            <stop stop-color="#2A959D" offset="0%"></stop>
            <stop stop-color="#126970" offset="100%"></stop>
        </linearGradient>
        <path d="M146.141456,-5.90428975e-15 L365.858544,5.90428975e-15 C416.675112,-3.43056238e-15 435.102427,5.29105984 453.680205,15.2265641 C472.257983,25.1620684 486.837932,39.7420171 496.773436,58.3197949 C506.70894,76.8975727 512,95.3248882 512,146.141456 L512,365.858544 C512,416.675112 506.70894,435.102427 496.773436,453.680205 C486.837932,472.257983 472.257983,486.837932 453.680205,496.773436 C435.102427,506.70894 416.675112,512 365.858544,512 L146.141456,512 C95.3248882,512 76.8975727,506.70894 58.3197949,496.773436 C39.7420171,486.837932 25.1620684,472.257983 15.2265641,453.680205 C5.29105984,435.102427 2.28704159e-15,416.675112 -3.93619317e-15,365.858544 L3.93619317e-15,146.141456 C-2.28704159e-15,95.3248882 5.29105984,76.8975727 15.2265641,58.3197949 C25.1620684,39.7420171 39.7420171,25.1620684 58.3197949,15.2265641 C76.8975727,5.29105984 95.3248882,3.43056238e-15 146.141456,-5.90428975e-15 Z" id="path-2"></path>
    </defs>
    <g id="PWA" stroke="none" stroke-width="1" fill="none" fill-rule="evenodd">
        <g id="Path">
            <use fill="#854D4D" xlink:href="#path-2"></use>
            <use fill="url(#linearGradient-1)" xlink:href="#path-2"></use>
        </g>
        <path d="M343.2,141 L372.1,184.3125 L328.75,184.3125 L299.85,141 L270.95,141 L299.85,184.3125 L256.5,184.3125 L227.6,141 L198.7,141 L227.6,184.3125 L184.25,184.3125 L155.35,141 L140.9,141 C125.005,141 112.1445,153.99375 112.1445,169.875 L112,343.125 C112,359.00625 125.005,372 140.9,372 L372.1,372 C387.995,372 401,359.00625 401,343.125 L401,141 L343.2,141 Z M246.125,303.125 L228,343 L209.875,303.125 L170,285 L209.875,266.875 L228,227 L246.125,266.875 L286,285 L246.125,303.125 Z M328.13,256.13 L314.5,286 L300.87,256.13 L271,242.5 L300.87,228.87 L314.5,199 L328.13,228.87 L358,242.5 L328.13,256.13 Z" id="Animated-SVG" fill="#FFFFFF" fill-rule="nonzero"></path>
    </g>
</svg>