<?xml version="1.0" encoding="UTF-8"?>
<svg width="512px" height="512px" viewBox="0 0 512 512" version="1.1" xmlns="http://www.w3.org/2000/svg" xmlns:xlink="http://www.w3.org/1999/xlink">
    <!-- Generator: Sketch 60.1 (88133) - https://sketch.com -->
    <title>PWA</title>
    <desc>Created with Sketch.</desc>
    <defs>
        <linearGradient x1="50%" y1="0%" x2="50%" y2="100%" id="linearGradient-1">
            <stop stop-color="#2A959D" offset="0%"></stop>
            <stop stop-color="#126970" offset="100%"></stop>
        </linearGradient>
        <path d="M146.141456,-5.90428975e-15 L365.858544,5.90428975e-15 C416.675112,-3.43056238e-15 435.102427,5.29105984 453.680205,15.2265641 C472.257983,25.1620684 486.837932,39.7420171 496.773436,58.3197949 C506.70894,76.8975727 512,95.3248882 512,146.141456 L512,365.858544 C512,416.675112 506.70894,435.102427 496.773436,453.680205 C486.837932,472.257983 472.257983,486.837932 453.680205,496.773436 C435.102427,506.70894 416.675112,512 365.858544,512 L146.141456,512 C95.3248882,512 76.8975727,506.70894 58.3197949,496.773436 C39.7420171,486.837932 25.1620684,472.257983 15.2265641,453.680205 C5.29105984,435.102427 2.28704159e-15,416.675112 -3.93619317e-15,365.858544 L3.93619317e-15,146.141456 C-2.28704159e-15,95.3248882 5.29105984,76.8975727 15.2265641,58.3197949 C25.1620684,39.7420171 39.7420171,25.1620684 58.3197949,15.2265641 C76.8975727,5.29105984 95.3248882,3.43056238e-15 146.141456,-5.90428975e-15 Z" id="path-2"></path>
    </defs>
    <g id="PWA" stroke="none" stroke-width="1" fill="none" fill-rule="evenodd">
        <g id="Path">
            <use fill="#854D4D" xlink:href="#path-2"></use>
            <use fill="url(#linearGradient-1)" xlink:href="#path-2"></use>
        </g>
        <g id="ironavirus" transform="translate(52.000000, 52.000000)"></g>
        <g id="spa-white-18dp" transform="translate(102.000000, 101.000000)" fill="#FFFFFF" fill-rule="nonzero">
            <path d="M102,154 C85.3286119,142.975155 66.9433428,134.279503 47,129 C66.9433428,134.279503 85.3286119,142.975155 102,154 Z M264,129 C243.764706,134.182927 224.941176,142.871951 208,154 C224.941176,142.871951 243.764706,134.182927 264,129 Z" id="Shape"></path>
            <path d="M209,119.24269 C206.2149,76.005848 188.730659,33.8538012 155.928367,1 C122.816619,34.1637427 104.558739,76.3157895 101,119.24269 C120.805158,129.780702 139.063037,143.418129 155,160 C170.936963,143.573099 189.194842,129.935673 209,119.24269 L209,119.24269 Z M107.875,159.675 C105.775,158.175 103.375,156.825 101.125,155.325 C103.375,156.975 105.775,158.175 107.875,159.675 Z M208.5,156.55 C206.55,157.9 204.45,158.95 202.5,160.45 C204.45,158.95 206.55,157.9 208.5,156.55 Z M156,208.929167 C122.675,157.815833 65.79,124 1,124 C1,206.903333 53.08,277.028333 125.465,303.0525 C135.23,306.636667 145.46,309.285833 156,311 C166.54,309.13 176.615,306.480833 186.535,303.0525 C258.92,277.028333 311,206.903333 311,124 C246.21,124 189.325,157.815833 156,208.929167 Z" id="Shape"></path>
        </g>
    </g>
</svg>