<?xml version="1.0" encoding="UTF-8"?>
<svg width="512px" height="512px" viewBox="0 0 512 512" version="1.1" xmlns="http://www.w3.org/2000/svg" xmlns:xlink="http://www.w3.org/1999/xlink">
    <!-- Generator: Sketch 60.1 (88133) - https://sketch.com -->
    <title>PWA</title>
    <desc>Created with Sketch.</desc>
    <defs>
        <linearGradient x1="50%" y1="0%" x2="50%" y2="100%" id="linearGradient-1">
            <stop stop-color="#2A959D" offset="0%"></stop>
            <stop stop-color="#126970" offset="100%"></stop>
        </linearGradient>
        <path d="M146.141456,-5.90428975e-15 L365.858544,5.90428975e-15 C416.675112,-3.43056238e-15 435.102427,5.29105984 453.680205,15.2265641 C472.257983,25.1620684 486.837932,39.7420171 496.773436,58.3197949 C506.70894,76.8975727 512,95.3248882 512,146.141456 L512,365.858544 C512,416.675112 506.70894,435.102427 496.773436,453.680205 C486.837932,472.257983 472.257983,486.837932 453.680205,496.773436 C435.102427,506.70894 416.675112,512 365.858544,512 L146.141456,512 C95.3248882,512 76.8975727,506.70894 58.3197949,496.773436 C39.7420171,486.837932 25.1620684,472.257983 15.2265641,453.680205 C5.29105984,435.102427 2.28704159e-15,416.675112 -3.93619317e-15,365.858544 L3.93619317e-15,146.141456 C-2.28704159e-15,95.3248882 5.29105984,76.8975727 15.2265641,58.3197949 C25.1620684,39.7420171 39.7420171,25.1620684 58.3197949,15.2265641 C76.8975727,5.29105984 95.3248882,3.43056238e-15 146.141456,-5.90428975e-15 Z" id="path-2"></path>
    </defs>
    <g id="PWA" stroke="none" stroke-width="1" fill="none" fill-rule="evenodd">
        <g id="Path">
            <use fill="#854D4D" xlink:href="#path-2"></use>
            <use fill="url(#linearGradient-1)" xlink:href="#path-2"></use>
        </g>
        <g id="ironavirus" transform="translate(52.000000, 52.000000)" fill="#FFFFFF" fill-rule="nonzero">
            <g id="Coronavirus">
                <path d="M193.343225,25.9916067 C185.104376,25.9916067 179.611811,31.4841727 179.611811,39.7230216 C179.611811,45.2155875 182.358094,49.4208333 186.477518,52.1671163 C189.223801,53.5402578 191.970084,56.2007194 193.343225,60.3201439 L193.343225,68.0440647 C182.759092,68.8946435 172.655435,70.4956304 162.876649,73.622452 C162.621222,71.0775073 163.688656,68.0902765 165.880396,65.8985312 C168.626679,63.1522482 170.343106,57.5738609 167.596823,53.4544365 C164.85054,46.588729 157.727368,43.842446 150.861661,46.588729 L130.264538,54.7417566 C123.398831,57.4880396 120.652548,64.611211 123.398831,71.4769185 C124.771972,75.5963429 129.06304,78.2568046 134.555606,79.629946 C137.645174,79.629946 139.876529,80.5096148 141.421313,82.633693 C131.934309,87.5769585 123.280146,93.724631 115.245803,100.656175 L109.667416,94.6486811 C108.294275,90.5292566 108.294275,86.2381894 109.667416,83.4919065 C111.040558,77.9993405 109.92488,73.8799161 105.805456,69.7604916 C100.31289,64.2679257 91.9882194,64.2679257 86.4956535,69.7604916 L69.7604916,86.4956535 C64.2679257,91.9882194 64.2679257,100.31289 69.7604916,105.805456 C73.8799161,109.92488 77.9993405,109.753237 83.4919065,108.380096 C86.2381894,108.380096 90.6150779,108.208453 93.3613609,110.954736 L99.3688549,116.533124 C92.9259268,124.199788 87.2981242,132.469441 82.633693,141.421313 C80.5096148,139.554699 79.629946,136.615318 79.629946,134.555606 C78.2568046,129.06304 75.5963429,124.771972 71.4769185,123.398831 C64.611211,120.652548 57.4880396,123.398831 54.7417566,130.264538 L46.588729,150.861661 C43.842446,157.727368 46.588729,164.85054 53.4544365,167.596823 C57.5738609,168.969964 63.1522482,168.626679 65.8985312,165.880396 C68.0902765,163.688656 71.0775073,162.621222 73.622452,162.876649 C70.451775,172.792598 68.4430983,183.030287 67.614958,193.772332 L60.3201439,193.343225 C56.2007194,193.343225 53.5402578,190.596942 52.1671163,186.477518 C49.4208333,182.358094 45.2155875,178.32449 39.7230216,178.32449 C31.4841727,178.32449 25.9916067,183.817056 25.9916067,192.055905 L25.9916067,215.656775 C25.9916067,223.895624 31.4841727,229.388189 39.7230216,229.388189 C45.2155875,229.388189 49.4208333,226.641906 52.1671163,222.522482 C53.5402578,219.776199 56.2007194,217.029916 60.3201439,215.656775 L68.0440647,215.656775 C68.8946435,226.240908 70.4956304,236.344565 73.622452,246.123351 C71.0775073,246.378783 68.0902765,245.311344 65.8985312,243.119604 C63.1522482,240.373321 57.5738609,238.656894 53.4544365,241.403177 C46.588729,244.14946 43.842446,251.272632 46.588729,258.138339 L54.7417566,278.735462 C57.4880396,285.601169 64.611211,288.347452 71.4769185,285.601169 C75.5963429,284.228028 78.2568046,279.93696 79.629946,274.444394 C79.629946,271.354826 80.5096148,269.123471 82.633693,267.578687 C87.5769585,277.065694 93.724631,285.71985 100.656175,293.754197 L94.6486811,299.332584 C90.5292566,300.705725 86.2381894,300.705725 83.4919065,299.332584 C77.9993405,297.959442 73.8799161,299.07512 69.7604916,303.194544 C64.2679257,308.68711 64.2679257,317.011781 69.7604916,322.504347 L86.4956535,339.239508 C91.9882194,344.732074 100.31289,344.732074 105.805456,339.239508 C109.92488,335.120084 109.753237,331.000659 108.380096,325.508094 C108.380096,322.761811 108.208453,318.384922 110.954736,315.638639 L116.533124,309.631145 C124.296013,316.15494 132.771624,321.667705 141.85042,326.366307 C140.07765,328.420609 136.917409,329.476472 134.555606,330.657374 C129.06304,330.657374 124.771972,333.403657 123.398831,337.523082 C120.652548,344.388789 123.398831,351.51196 130.264538,354.258243 L150.861661,362.411271 C157.727368,365.157554 164.85054,362.411271 167.596823,355.545564 C168.969964,351.426139 168.626679,345.847752 165.880396,343.101469 C163.764412,340.985485 163.84632,338.296819 163.734862,335.806655 C173.372585,338.812969 183.363096,340.582564 193.772332,341.385042 L193.343225,348.679856 C193.343225,352.799281 190.596942,355.459742 186.477518,356.832884 C182.358094,359.579167 178.32449,363.784412 178.32449,369.276978 C178.32449,377.515827 183.817056,383.008393 192.055905,383.008393 L215.656775,383.008393 C223.895624,383.008393 229.388189,377.515827 229.388189,369.276978 C229.388189,363.784412 226.641906,359.579167 222.522482,356.832884 C219.776199,355.459742 217.029916,352.799281 215.656775,348.679856 L215.656775,340.955935 C225.623818,340.154954 235.146911,338.633349 244.406924,335.806655 C244.090814,337.915333 243.110322,340.107004 241.403177,341.814149 C240.030036,345.933573 238.656894,351.426139 241.403177,355.545564 C244.14946,362.411271 251.272632,365.157554 258.138339,362.411271 L278.735462,354.258243 C285.601169,351.51196 288.347452,344.388789 285.601169,337.523082 C284.228028,333.403657 279.93696,330.743195 274.444394,329.370054 C271.354826,329.370054 269.123471,328.490392 267.578687,326.366307 C276.530553,321.701883 284.800216,316.074076 292.466876,309.631145 L298.045264,315.638639 C300.791547,318.384922 300.705725,322.675989 299.332584,326.795414 C297.959442,330.914838 299.07512,335.120084 303.194544,339.239508 C308.68711,344.732074 317.011781,344.732074 322.504347,339.239508 L339.239508,322.504347 C344.732074,317.011781 344.732074,308.68711 339.239508,303.194544 C335.120084,299.07512 331.000659,299.246763 325.508094,300.619904 C321.388669,301.993046 318.470743,302.078867 314.351319,299.332584 L308.343825,293.754197 C315.357461,285.624705 321.390303,276.764372 326.366307,267.14958 C327.649741,268.968402 328.471456,271.359879 329.370054,273.157074 C330.743195,280.022782 333.403657,284.228028 337.523082,285.601169 C344.388789,288.347452 351.51196,285.601169 354.258243,278.735462 L362.411271,258.138339 C365.157554,251.272632 362.411271,244.14946 355.545564,241.403177 C351.426139,240.030036 345.847752,240.373321 343.101469,243.119604 C340.985485,245.235588 338.296819,245.15368 335.806655,245.265138 C338.812969,235.627415 340.582564,225.636904 341.385042,215.227668 L348.679856,215.656775 C352.799281,215.656775 355.459742,218.403058 356.832884,222.522482 C359.579167,226.641906 363.784412,230.67551 369.276978,230.67551 C377.515827,230.67551 383.008393,225.182944 383.008393,216.944095 L383.008393,193.343225 C383.008393,185.104376 377.515827,179.611811 369.276978,179.611811 C363.784412,179.611811 359.579167,182.358094 356.832884,186.477518 C355.459742,189.223801 352.799281,191.970084 348.679856,193.343225 L340.955935,193.343225 C340.105356,182.759092 338.50437,172.655435 335.377548,162.876649 C337.621426,163.073863 339.977105,164.043352 341.814149,165.880396 C345.933573,168.626679 351.426139,170.343106 355.545564,167.596823 C362.411271,164.85054 365.157554,157.727368 362.411271,150.861661 L354.258243,130.264538 C351.51196,123.398831 344.388789,120.652548 337.523082,123.398831 C333.403657,124.771972 330.743195,129.06304 329.370054,134.555606 C329.370054,137.645174 328.490392,139.876529 326.366307,141.421313 C321.423039,131.934309 315.275375,123.280146 308.343825,115.245803 L314.351319,109.667416 C318.470743,108.294275 322.761811,108.294275 325.508094,109.667416 C331.000659,111.040558 335.120084,109.92488 339.239508,105.805456 C344.732074,100.31289 344.732074,91.9882194 339.239508,86.4956535 L322.504347,69.7604916 C317.011781,64.2679257 308.68711,64.2679257 303.194544,69.7604916 C299.07512,73.8799161 299.246763,77.9993405 300.619904,83.4919065 C300.619904,86.2381894 300.791547,90.6150779 298.045264,93.3613609 L292.466876,99.3688549 C284.703986,92.8450625 276.22838,87.3323003 267.14958,82.633693 C268.968402,81.350263 271.359879,80.5285463 273.157074,79.629946 C280.022782,78.2568046 284.228028,75.5963429 285.601169,71.4769185 C288.347452,64.611211 285.601169,57.4880396 278.735462,54.7417566 L258.138339,46.588729 C251.272632,43.842446 244.14946,46.588729 241.403177,53.4544365 C240.030036,57.5738609 240.373321,63.1522482 243.119604,65.8985312 C245.311344,68.0902765 246.378783,71.0775073 246.123351,73.622452 C236.207402,70.451775 225.969713,68.4430983 215.227668,67.614958 L215.656775,60.3201439 C215.656775,56.2007194 218.403058,53.5402578 222.522482,52.1671163 C226.641906,49.4208333 230.67551,45.2155875 230.67551,39.7230216 C230.67551,31.4841727 225.182944,25.9916067 216.944095,25.9916067 L193.343225,25.9916067 Z M204.5,94.6486811 C265.331857,94.6486811 314.351319,143.668149 314.351319,204.5 C314.351319,265.331857 265.331857,314.351319 204.5,314.351319 C143.668149,314.351319 94.6486811,265.331857 94.6486811,204.5 C94.6486811,143.668149 143.668149,94.6486811 204.5,94.6486811 Z M204.5,122.111511 C196.916346,122.111511 190.768585,128.259275 190.768585,135.842926 C190.768585,143.426576 196.916346,149.574341 204.5,149.574341 C212.083654,149.574341 218.231415,143.426576 218.231415,135.842926 C218.231415,128.259275 212.083654,122.111511 204.5,122.111511 Z M156.440048,142.708633 C148.856398,142.708633 142.708633,148.856398 142.708633,156.440048 C142.708633,164.023702 148.856398,170.171463 156.440048,170.171463 C164.023702,170.171463 170.171463,164.023702 170.171463,156.440048 C170.171463,148.856398 164.023702,142.708633 156.440048,142.708633 Z M252.559952,142.708633 C244.976298,142.708633 238.828537,148.856398 238.828537,156.440048 C238.828537,164.023702 244.976298,170.171463 252.559952,170.171463 C260.143606,170.171463 266.291367,164.023702 266.291367,156.440048 C266.291367,148.856398 260.143606,142.708633 252.559952,142.708633 Z M135.842926,190.768585 C128.259275,190.768585 122.111511,196.916346 122.111511,204.5 C122.111511,212.083654 128.259275,218.231415 135.842926,218.231415 C143.426576,218.231415 149.574341,212.083654 149.574341,204.5 C149.574341,196.916346 143.426576,190.768585 135.842926,190.768585 Z M204.5,190.768585 C196.916346,190.768585 190.768585,196.916346 190.768585,204.5 C190.768585,212.083654 196.916346,218.231415 204.5,218.231415 C212.083654,218.231415 218.231415,212.083654 218.231415,204.5 C218.231415,196.916346 212.083654,190.768585 204.5,190.768585 Z M273.157074,190.768585 C265.57342,190.768585 259.425659,196.916346 259.425659,204.5 C259.425659,212.083654 265.57342,218.231415 273.157074,218.231415 C280.740729,218.231415 286.888489,212.083654 286.888489,204.5 C286.888489,196.916346 280.740729,190.768585 273.157074,190.768585 Z M156.440048,238.828537 C148.856398,238.828537 142.708633,244.976298 142.708633,252.559952 C142.708633,260.143606 148.856398,266.291367 156.440048,266.291367 C164.023702,266.291367 170.171463,260.143606 170.171463,252.559952 C170.171463,244.976298 164.023702,238.828537 156.440048,238.828537 Z M252.559952,238.828537 C244.976298,238.828537 238.828537,244.976298 238.828537,252.559952 C238.828537,260.143606 244.976298,266.291367 252.559952,266.291367 C260.143606,266.291367 266.291367,260.143606 266.291367,252.559952 C266.291367,244.976298 260.143606,238.828537 252.559952,238.828537 Z M204.5,259.425659 C196.916346,259.425659 190.768585,265.57342 190.768585,273.157074 C190.768585,280.740729 196.916346,286.888489 204.5,286.888489 C212.083654,286.888489 218.231415,280.740729 218.231415,273.157074 C218.231415,265.57342 212.083654,259.425659 204.5,259.425659 Z" id="Shape" transform="translate(204.500000, 204.500000) rotate(9.000000) translate(-204.500000, -204.500000) "></path>
            </g>
        </g>
    </g>
</svg>