<?xml version="1.0" encoding="UTF-8"?>
<svg width="512px" height="512px" viewBox="0 0 512 512" version="1.1" xmlns="http://www.w3.org/2000/svg" xmlns:xlink="http://www.w3.org/1999/xlink">
    <!-- Generator: Sketch 60.1 (88133) - https://sketch.com -->
    <title>PWA</title>
    <desc>Created with Sketch.</desc>
    <defs>
        <linearGradient x1="50%" y1="0%" x2="50%" y2="100%" id="linearGradient-1">
            <stop stop-color="#2A959D" offset="0%"></stop>
            <stop stop-color="#126970" offset="100%"></stop>
        </linearGradient>
        <path d="M146.141456,-5.90428975e-15 L365.858544,5.90428975e-15 C416.675112,-3.43056238e-15 435.102427,5.29105984 453.680205,15.2265641 C472.257983,25.1620684 486.837932,39.7420171 496.773436,58.3197949 C506.70894,76.8975727 512,95.3248882 512,146.141456 L512,365.858544 C512,416.675112 506.70894,435.102427 496.773436,453.680205 C486.837932,472.257983 472.257983,486.837932 453.680205,496.773436 C435.102427,506.70894 416.675112,512 365.858544,512 L146.141456,512 C95.3248882,512 76.8975727,506.70894 58.3197949,496.773436 C39.7420171,486.837932 25.1620684,472.257983 15.2265641,453.680205 C5.29105984,435.102427 2.28704159e-15,416.675112 -3.93619317e-15,365.858544 L3.93619317e-15,146.141456 C-2.28704159e-15,95.3248882 5.29105984,76.8975727 15.2265641,58.3197949 C25.1620684,39.7420171 39.7420171,25.1620684 58.3197949,15.2265641 C76.8975727,5.29105984 95.3248882,3.43056238e-15 146.141456,-5.90428975e-15 Z" id="path-2"></path>
    </defs>
    <g id="PWA" stroke="none" stroke-width="1" fill="none" fill-rule="evenodd">
        <g id="Path">
            <use fill="#854D4D" xlink:href="#path-2"></use>
            <use fill="url(#linearGradient-1)" xlink:href="#path-2"></use>
        </g>
        <g id="push-to-talk" transform="translate(128.000000, 78.000000)" fill="#FFFFFF">
            <path d="M72.7777778,141 L72.7777778,77.0024272 C72.7777778,53.3883495 91.6933333,34.223301 115,34.223301 C138.306667,34.223301 157.222222,53.3883495 157.222222,77.0024272 L157.222222,141 C177.657778,127.139563 191,103.696602 191,77.0024272 C191,34.3944175 157.053333,0 115,0 C72.9466667,0 39,34.3944175 39,77.0024272 C39,103.696602 52.3422222,127.139563 72.7777778,141 Z" id="Path"></path>
            <path d="M240.469333,218.79 L162.986667,180.37 C160.085333,179.18 157.013333,178.5 153.770667,178.5 L140.8,178.5 L140.8,76.5 C140.8,62.39 129.365333,51 115.2,51 C101.034667,51 89.6,62.39 89.6,76.5 L89.6,259.08 C28.16,246.16 29.184,246.33 26.9653333,246.33 C21.6746667,246.33 16.896,248.54 13.4826667,251.94 L0,265.54 L84.3093333,349.52 C88.9173333,354.11 95.4026667,357 102.4,357 L218.282667,357 C231.082667,357 240.981333,347.65 242.858667,335.24 L255.658667,245.65 C255.829333,244.46 256,243.27 256,242.25 C256,231.71 249.514667,222.53 240.469333,218.79 Z" id="Path"></path>
        </g>
    </g>
</svg>