<?xml version="1.0" encoding="UTF-8"?>
<svg width="512px" height="512px" viewBox="0 0 512 512" version="1.1" xmlns="http://www.w3.org/2000/svg" xmlns:xlink="http://www.w3.org/1999/xlink">
    <!-- Generator: Sketch 60.1 (88133) - https://sketch.com -->
    <title>PWA</title>
    <desc>Created with Sketch.</desc>
    <defs>
        <linearGradient x1="50%" y1="0%" x2="50%" y2="100%" id="linearGradient-1">
            <stop stop-color="#2A959D" offset="0%"></stop>
            <stop stop-color="#126970" offset="100%"></stop>
        </linearGradient>
        <path d="M146.141456,-5.90428975e-15 L365.858544,5.90428975e-15 C416.675112,-3.43056238e-15 435.102427,5.29105984 453.680205,15.2265641 C472.257983,25.1620684 486.837932,39.7420171 496.773436,58.3197949 C506.70894,76.8975727 512,95.3248882 512,146.141456 L512,365.858544 C512,416.675112 506.70894,435.102427 496.773436,453.680205 C486.837932,472.257983 472.257983,486.837932 453.680205,496.773436 C435.102427,506.70894 416.675112,512 365.858544,512 L146.141456,512 C95.3248882,512 76.8975727,506.70894 58.3197949,496.773436 C39.7420171,486.837932 25.1620684,472.257983 15.2265641,453.680205 C5.29105984,435.102427 2.28704159e-15,416.675112 -3.93619317e-15,365.858544 L3.93619317e-15,146.141456 C-2.28704159e-15,95.3248882 5.29105984,76.8975727 15.2265641,58.3197949 C25.1620684,39.7420171 39.7420171,25.1620684 58.3197949,15.2265641 C76.8975727,5.29105984 95.3248882,3.43056238e-15 146.141456,-5.90428975e-15 Z" id="path-2"></path>
    </defs>
    <g id="PWA" stroke="none" stroke-width="1" fill="none" fill-rule="evenodd">
        <g id="Path">
            <use fill="#854D4D" xlink:href="#path-2"></use>
            <use fill="url(#linearGradient-1)" xlink:href="#path-2"></use>
        </g>
        <g id="pwalogo-white" transform="translate(49.000000, 178.000000)" fill="#FFFFFF" fill-rule="nonzero">
            <polygon id="Path" points="305 128.059849 317.035585 97.7911582 351.787031 97.7911582 335.294928 51.8751845 355.921262 0 415 156 371.431565 156 361.336102 128.059849"></polygon>
            <polygon id="Path" points="268.922055 156 332 0 290.181485 0.000207290773 247.032527 100.810904 216.349296 0.000414579424 184.205557 0.000414579424 151.259933 100.810904 128.025911 54.8735516 107 119.465948 128.347559 156 169.502129 156 199.273633 65.5945879 227.659134 156"></polygon>
            <path d="M39.8462119,102.447823 L65.7021455,102.447823 C73.5343761,102.447823 80.508681,101.57945 86.6250603,99.8427029 L93.3117518,79.3787201 L112,22.1849361 C110.576036,19.9428937 108.950358,17.823052 107.122965,15.8256868 C97.5276602,5.27510775 83.4888774,0 65.0061894,0 L0,0 L0,156 L39.8462119,156 L39.8462119,102.447823 Z M74.0704994,35.8893603 C77.8184485,39.6364631 79.6922093,44.6507842 79.6922093,50.932748 C79.6922093,57.2628959 78.0440947,62.2833727 74.7480791,65.9941783 C71.1347485,70.1174136 64.4813911,72.1789251 54.7884342,72.1789251 L39.8462119,72.1789251 L39.8462119,30.2683876 L54.8982658,30.2683876 C63.9320196,30.2683876 70.3227641,32.1420452 74.0704994,35.8893603 Z" id="Shape"></path>
        </g>
    </g>
</svg>