<?xml version="1.0" encoding="UTF-8"?>
<svg width="512px" height="512px" viewBox="0 0 512 512" version="1.1" xmlns="http://www.w3.org/2000/svg" xmlns:xlink="http://www.w3.org/1999/xlink">
    <!-- Generator: Sketch 60.1 (88133) - https://sketch.com -->
    <title>Icon512</title>
    <desc>Created with Sketch.</desc>
    <g id="Icon512" stroke="none" stroke-width="1" fill="none" fill-rule="evenodd">
        <g>
            <rect id="Rectangle" fill-opacity="0.01" fill="#FFFFFF" x="0" y="0" width="512" height="512"></rect>
            <g id="facebook" transform="translate(19.000000, 19.000000)" fill-rule="nonzero">
                <path d="M446.895866,473 C461.310678,473 473,461.310769 473,446.892398 L473,26.1057664 C473,11.6855606 461.312513,0 446.895866,0 L26.105969,0 C11.6856513,0 0,11.6855606 0,26.1057664 L0,446.892398 C0,461.308933 11.683816,473 26.105969,473 L446.895866,473 Z" id="Blue_1_" fill="#FFFFFF"></path>
                <path d="M326.010896,473 L326.010896,290.084472 L387.335217,290.084472 L396.517664,218.799045 L326.010896,218.799045 L326.010896,173.287804 C326.010896,152.649028 331.73528,138.584383 361.296316,138.584383 L399,138.567888 L399,74.80963 C392.479291,73.940899 370.097992,72 344.059091,72 C289.698491,72 252.481755,105.220713 252.481755,166.22799 L252.481755,218.799045 L191,218.799045 L191,290.084472 L252.481755,290.084472 L252.481755,473 L326.010896,473 Z" id="f" fill="#000000"></path>
            </g>
        </g>
    </g>
</svg>