<?xml version="1.0" encoding="UTF-8"?>
<svg width="512px" height="512px" viewBox="0 0 512 512" version="1.1" xmlns="http://www.w3.org/2000/svg" xmlns:xlink="http://www.w3.org/1999/xlink">
    <!-- Generator: Sketch 60.1 (88133) - https://sketch.com -->
    <title>Icon512</title>
    <desc>Created with Sketch.</desc>
    <g id="Icon512" stroke="none" stroke-width="1" fill="none" fill-rule="evenodd">
        <g>
            <rect id="Rectangle" fill-opacity="0.01" fill="#FFFFFF" x="0" y="0" width="512" height="512"></rect>
            <g id="twitter-seeklogo.com" transform="translate(20.000000, 72.000000)" fill="#55ACEE" fill-rule="nonzero">
                <path d="M473,45.575552 C455.596632,53.3057729 436.893935,58.5303001 417.26389,60.8800376 C437.300515,48.8506287 452.686553,29.8031984 459.932335,7.10812952 C441.182925,18.2451232 420.414456,26.334043 398.310325,30.6938807 C380.607644,11.804139 355.387552,0 327.47711,0 C273.882899,0 230.432437,43.5169324 230.432437,97.1918011 C230.432437,104.809387 231.292311,112.227696 232.946314,119.341024 C152.294616,115.2879 80.7901095,76.5934746 32.9278174,17.7911179 C24.574754,32.1460045 19.7892169,48.8419646 19.7892169,66.6538766 C19.7892169,100.373304 36.9226856,130.122784 62.9611288,147.551738 C47.0525916,147.04748 32.0904348,142.675512 19.0054683,135.395831 C18.9985479,135.801317 18.9985479,136.208535 18.9985479,136.617487 C18.9985479,183.709278 52.4488642,222.992871 96.8422473,231.920487 C88.6985296,234.141995 80.1257397,235.328993 71.2743993,235.328993 C65.0217125,235.328993 58.9420388,234.720764 53.0180767,233.585751 C65.3660083,272.200466 101.203903,300.300278 143.668192,301.085256 C110.456633,327.15244 68.6134606,342.690861 23.1491276,342.690861 C15.3168331,342.690861 7.59180657,342.231657 0,341.334043 C42.9452651,368.910535 93.9546619,385 148.756502,385 C327.250462,385 424.857426,236.89895 424.857426,108.462224 C424.857426,104.247945 424.764,100.056194 424.577146,95.8887018 C443.535901,82.1853648 459.989429,65.0665907 473,45.575552" id="Path"></path>
            </g>
        </g>
    </g>
</svg>