<?xml version="1.0" encoding="UTF-8"?>
<svg width="512px" height="512px" viewBox="0 0 512 512" version="1.1" xmlns="http://www.w3.org/2000/svg" xmlns:xlink="http://www.w3.org/1999/xlink">
    <!-- Generator: Sketch 60.1 (88133) - https://sketch.com -->
    <title>512Grid</title>
    <desc>Created with Sketch.</desc>
    <g id="Page-1" stroke="none" stroke-width="1" fill="none" fill-rule="evenodd">
        <g id="512Grid">
            <rect id="whitetrans" fill-opacity="0.01" fill="#FFFFFF" x="0" y="0" width="512" height="512"></rect>
            <g id="Google" transform="translate(37.000000, 38.000000)" fill-rule="nonzero">
                <path d="M429,222.803409 C429,204.784683 427.54055,191.635747 424.382038,178 L219,178 L219,259.327673 L339.554625,259.327673 C337.125,279.538727 324,309.976173 294.832775,330.428954 L294.423928,333.151739 L359.36193,383.550119 L363.860925,384 C405.179625,345.770219 429,289.521713 429,222.803409" id="Path" fill="#4285F4"></path>
                <path d="M219.257487,436 C278.270871,436 327.813116,416.608469 364,383.160794 L295.028275,329.835338 C276.571524,342.681705 251.799565,351.649766 219.257487,351.649766 C161.457923,351.649766 112.401205,313.596916 94.9138361,261 L92.3505845,261.217225 L24.8823211,313.329562 L24,315.777523 C59.9424458,387.03743 133.771122,436 219.257487,436" id="Path" fill="#34A853"></path>
                <path d="M94,261.196419 C89.3969546,247.616726 86.7330005,233.065742 86.7330005,218.031619 C86.7330005,202.995825 89.3969546,188.446512 93.7578224,174.866819 L93.6358984,171.974678 L25.4871093,119 L23.2574048,120.061567 C8.47955793,149.646673 0,182.869526 0,218.031619 C0,253.193712 8.47955793,286.414893 23.2574048,316 L94,261.196419" id="Path" fill="#FBBC05"></path>
                <path d="M219.568233,84.348563 C260.675711,84.348563 288.404897,102.042395 304.216369,116.82875 L366,56.7175117 C328.055151,21.5721379 278.675535,0 219.568233,0 C133.94582,0 59.999647,48.9608995 24,120.220806 L94.7835429,175 C112.541893,122.403084 161.676682,84.348563 219.568233,84.348563" id="Path" fill="#EA4335"></path>
            </g>
        </g>
    </g>
</svg>