<?xml version="1.0" encoding="UTF-8"?>
<svg width="512px" height="512px" viewBox="0 0 512 512" version="1.1" xmlns="http://www.w3.org/2000/svg" xmlns:xlink="http://www.w3.org/1999/xlink">
    <!-- Generator: Sketch 60.1 (88133) - https://sketch.com -->
    <title>512Grid</title>
    <desc>Created with Sketch.</desc>
    <g id="Page-1" stroke="none" stroke-width="1" fill="none" fill-rule="evenodd">
        <g id="512Grid">
            <rect id="whitetrans" fill-opacity="0.01" fill="#FFFFFF" x="0" y="0" width="512" height="512"></rect>
            <g id="Angry" transform="translate(120.000000, 36.000000)" fill="#126970">
                <path d="M267.314894,186.078553 C265.038387,179.399457 257.767113,175.820228 251.069368,178.09453 L206.17463,193.332882 C197.862469,156.496655 181.518776,145.455374 170.69056,142.296918 L170.334172,140.560566 C169.980985,138.82954 168.292944,137.705705 166.556353,138.067889 C165.238038,138.339527 164.28198,139.378142 164.053635,140.624481 C163.982678,141.018622 163.97841,141.423416 164.063239,141.838862 L173.782278,189.258314 C174.067708,190.653787 175.22917,191.63914 176.578429,191.782948 C176.689934,191.793601 176.800371,191.80958 176.914544,191.80958 C177.126882,191.80958 177.342956,191.788275 177.560096,191.745665 C178.165102,191.623162 178.68848,191.330219 179.106756,190.936077 C180.821473,196.629821 182.357462,203.553923 183.533328,211.980024 C184.05884,215.756323 186.246785,219.101197 189.496957,221.098535 C191.539785,222.355526 193.868577,223 196.215509,223 C197.602114,223 198.994588,222.776298 200.337444,222.318242 L259.314306,202.296932 C266.009384,200.022631 269.591402,192.762975 267.314894,186.078553" id="Fill-127"></path>
                <path d="M133.5,102.723597 C138.248585,102.723597 142.098363,108.073915 142.098363,114.668494 C142.098363,121.263072 138.248585,126.613391 133.5,126.613391 C128.751415,126.613391 124.901637,121.263072 124.901637,114.668494 C124.901637,108.073915 128.751415,102.723597 133.5,102.723597 Z M98,97.0051844 C98,116.332691 113.895059,132 133.5,132 C153.108096,132 169,116.332691 169,97.0051844 C169,97 169,97 169,97 L98,97 C98,97 98,97 98,97.0051844 L98,97.0051844 Z" id="Fill-128"></path>
                <path d="M137.274687,254.288655 L137.274687,238.362415 L175.874431,238.362415 L175.874431,230.399295 L137.274687,230.399295 L137.274687,213.94218 L175.874431,213.94218 L175.874431,205.97906 L137.274687,205.97906 L137.274687,184.606046 C143.265579,179.493722 147.954654,159.092209 150.261121,147.094441 C150.729077,144.663035 151.990178,142.560772 153.719764,141 L115.277592,141 C117.007178,142.560772 118.26775,144.663035 118.736235,147.094441 C121.042173,159.092209 125.731249,179.493722 131.722669,184.606046 L131.722669,205.97906 L93.1229257,205.97906 L93.1229257,213.94218 L131.722669,213.94218 L131.722669,230.399295 L93.1229257,230.399295 L93.1229257,238.362415 L131.722669,238.362415 L131.722669,254.288655 L89.1947409,254.288655 C87.4424183,254.288655 86.0221592,255.711399 86.0221592,257.473903 C86.0221592,259.231098 87.4424183,260.659151 89.1947409,260.659151 L90.7424319,260.659151 L78.0658532,416.709761 C77.1859905,427.550221 85.2258412,437.047569 96.0200215,437.93413 C106.814202,438.815382 116.282243,430.751396 117.162106,419.910935 L128.970983,274.541524 L140.029017,274.541524 L151.837366,419.910935 C152.717228,430.751396 162.185269,438.815382 172.97945,437.93413 C183.774159,437.047569 191.81401,427.550221 190.934147,416.709761 L178.257039,260.659151 L179.802087,260.659151 C181.554409,260.659151 182.974668,259.231098 182.974668,257.473903 C182.974668,255.711399 181.554409,254.288655 179.802087,254.288655 L137.274687,254.288655" id="Fill-129"></path>
                <path d="M94.2174843,189.258314 L103.936829,141.838862 C104.021661,141.428742 104.017393,141.018622 103.945899,140.624481 C103.718615,139.383468 102.762526,138.339527 101.443636,138.067889 C99.701122,137.705705 98.0188969,138.82954 97.665699,140.560566 L97.3092999,142.296918 C86.4807426,145.455374 70.1381362,156.496655 61.826781,193.332882 L16.9311642,178.09453 C10.231608,175.820228 2.96170645,179.399457 0.685127122,186.078553 C-1.5914522,192.762975 1.99067894,200.022631 8.68596695,202.296932 L67.6641502,222.318242 C69.0070493,222.776298 70.3995667,223 71.7862153,223 C74.1321538,223 76.4620863,222.355526 78.5049787,221.098535 C81.7552532,219.101197 83.9427328,215.756323 84.4687949,211.980024 C85.6446986,203.553923 87.180736,196.629821 88.8949731,190.936077 C89.3132618,191.330219 89.8355893,191.623162 90.439547,191.745665 C90.6572279,191.788275 90.8727747,191.80958 91.0851203,191.80958 C91.199296,191.80958 91.3097371,191.793601 91.4217787,191.782948 C92.7705466,191.63914 93.9315113,190.653787 94.2174843,189.258314" id="Fill-130"></path>
                <path d="M176,88.221519 C176,85.5896624 173.839408,83.4483122 171.169218,83.4483122 L170.503804,83.4483122 C170.187373,71.285865 163.866748,60.6054852 154.366867,54.1814346 L154.366867,57.092827 C154.366867,59.1814346 152.657177,60.8744726 150.546211,60.8744726 C148.435778,60.8744726 146.722353,59.1814346 146.722353,57.092827 L146.722353,50.2204641 C143.752273,49.0970464 140.602365,48.3322785 137.320656,48 L137.320656,57.092827 C137.320656,59.1814346 135.610432,60.8744726 133.5,60.8744726 C131.386366,60.8744726 129.676142,59.1814346 129.676142,57.092827 L129.676142,48 C126.394433,48.3322785 123.244526,49.0970464 120.274446,50.2204641 L120.274446,57.092827 C120.274446,59.1814346 118.564222,60.8744726 116.450588,60.8744726 C114.340155,60.8744726 112.629931,59.1814346 112.629931,57.092827 L112.629931,54.1814346 C103.131651,60.6107595 96.8126271,71.285865 96.4956621,83.4483122 L95.8275808,83.4483122 C93.1600583,83.4483122 91,85.5896624 91,88.221519 C91,90.8639241 93.1600583,93 95.8275808,93 L171.169218,93 C173.839408,93 176,90.8639241 176,88.221519" id="Fill-131"></path>
                <polyline id="Fill-132" points="180.147652 30.6848193 179.697313 0 161.517765 25.3766254 149.104888 4.51956294 145.074032 25.7015099 123 8.50516244 131.23508 36.5799014 135.803489 35.259403 131.702863 21.2841284 148.296179 34.2113884 151.434284 17.7156387 161.147768 34.038466 175.15269 14.4898498 175.489387 37.5283546 195.532664 29.8306874 184.175336 50.2512518 204.753522 51.8232737 183.839167 65.4527035 195.313837 75.9171292 183.016716 76.2839343 183.161015 81 207.127319 80.2768699 191.547794 66.0762722 219 48.186663 191.909863 46.1115941 206.017856 20.749641 180.147652 30.6848193"></polyline>
                <path d="M93.6171626,47.8488869 C94.8717623,49.9062148 97.2303236,50.7770414 99.8245258,49.1605695 C102.215367,47.6692789 102.521485,45.0567991 101.298627,43.0538978 C100.043489,40.99657 97.6451162,40.2890233 95.1531326,41.8401832 C92.9150818,43.2389485 92.4556357,45.938511 93.6171626,47.8488869" id="Fill-133"></path>
                <path d="M82.1273519,15.5101389 C81.1423836,14.0060251 79.5884315,13.370989 77.1170268,14.8044294 C74.6978924,16.2066302 74.6358214,17.8505543 75.5255053,19.2025667 L79.113643,24.6771927 L90.7258148,40 L95,37.5213106 L85.6523297,20.8823397 L82.1273519,15.5101389" id="Fill-134"></path>
                <path d="M64.1699616,30.9055333 C62.7849825,29.6807489 61.1284705,29.4927337 59.2416641,31.6414783 C57.3939542,33.7472481 57.8363334,35.4125252 59.0874205,36.5137568 L64.1340786,40.9724019 L79.7362481,53 L83,49.2826718 L69.1266443,35.2836005 L64.1699616,30.9055333" id="Fill-135"></path>
                <path d="M89.7972305,59.2659434 C91.6690131,57.1678496 91.205679,54.6308689 89.441863,53.0947645 C87.6324732,51.5265465 85.1139761,51.5586602 83.1618968,53.7423904 C81.4105593,55.7066772 81.7529057,58.3828172 83.4282867,59.8386373 C85.237134,61.4068554 87.7659394,61.5460146 89.7972305,59.2659434" id="Fill-136"></path>
            </g>
        </g>
    </g>
</svg>