<?xml version="1.0" encoding="UTF-8"?>
<svg width="512px" height="512px" viewBox="0 0 512 512" version="1.1" xmlns="http://www.w3.org/2000/svg" xmlns:xlink="http://www.w3.org/1999/xlink">
    <!-- Generator: Sketch 60.1 (88133) - https://sketch.com -->
    <title>Commercify</title>
    <desc>Created with Sketch.</desc>
    <g id="Page-1" stroke="none" stroke-width="1" fill="none" fill-rule="evenodd">
        <g id="Commercify" fill-rule="nonzero">
            <rect id="whitetrans" fill="#5B3B82" x="0" y="0" width="512" height="512"></rect>
            <g id="commercify" transform="translate(122.000000, 46.000000)">
                <g id="iPhone" transform="translate(134.000000, 210.500000) rotate(-4.000000) translate(-134.000000, -210.500000) translate(14.000000, 8.000000)" fill="#FFFFFF">
                    <g id="apple">
                        <path d="M193.846154,0 L46.1538461,0 C20.6769231,0 0,20.6181819 0,46.0227273 L0,358.977273 C0,384.381819 20.6769231,405 46.1538461,405 L193.846154,405 C219.323077,405 240,384.381819 240,358.977273 L240,46.0227273 C240,20.6181819 219.323077,0 193.846154,0 Z" id="Shape"></path>
                    </g>
                </g>
                <g id="WooCommerce_logo" transform="translate(6.000000, 134.000000)">
                    <path d="M23.759,0 L232.139,0 C245.326,0 256.002,10.675 256.002,23.863 L256.002,103.405 C256.002,116.592 245.327,127.268 232.139,127.268 L157.412,127.268 L167.669,152.386 L122.56,127.268 L23.865,127.268 C10.678,127.268 0.000485014676,116.593 0.000485014676,103.405 L0.000485014676,23.863 C-0.10266,10.78 10.573,0 23.76,0 L23.759,0 Z" id="Path" fill="#7F54B3"></path>
                    <path d="M14.578,21.75 C16.0349,19.7728 18.2203,18.7321 21.1341,18.524 C26.4414,18.10774 29.4593,20.6053 30.1878,26.0167 C33.4138,47.7667 36.952,66.1857 40.6988,81.2757 L63.4888,37.8807 C65.5701,33.9262 68.1717,31.8449 71.2937,31.6368 C75.8726,31.3246 78.6823,34.2384 79.827,40.3783 C82.4286,54.2193 85.7587,65.9783 89.7132,75.9683 C92.4189,49.5353 96.9978,30.4923 103.4502,18.7323 C105.0112,15.8185 107.3006,14.3616 110.3185,14.1534 C112.712,13.94527 114.8974,14.67373 116.8746,16.2347 C118.8518,17.7957 119.8925,19.7729 120.1006,22.1664 C120.20466,24.0396 119.89247,25.6005 119.0599,27.1615 C115.0014,34.6542 111.6713,47.2465 108.9659,64.7285 C106.3643,81.6915 105.4277,94.9075 106.0521,104.3775 C106.26023,106.9791 105.84397,109.2686 104.8033,111.2458 C103.5545,113.5352 101.6813,114.784 99.2879,114.9921 C96.5822,115.20023 93.7725,113.9515 91.0668,111.1417 C81.3888,101.2555 73.6878,86.4787 68.0688,66.8097 C61.3046,80.1297 56.3098,90.1207 53.0838,96.7807 C46.944,108.5397 41.7408,114.5757 37.3698,114.8877 C34.56,115.09583 32.1665,112.7023 30.0852,107.7072 C24.7779,94.0742 19.0542,67.7462 12.9142,28.7222 C12.49794,26.0165 13.12233,23.623 14.5792,21.7498 L14.578,21.75 Z M238.218,38.088 C234.4717,31.5319 228.9562,27.577 221.568,26.016 C219.5908,25.59974 217.7176,25.39161 215.9485,25.39161 C205.9583,25.39161 197.8415,30.59491 191.4935,41.00161 C186.0821,49.84711 183.3764,59.62961 183.3764,70.34761 C183.3764,78.36061 185.0414,85.22861 188.3715,90.95261 C192.1178,97.50871 197.6333,101.46361 205.0215,103.02461 C206.9987,103.44087 208.8719,103.649 210.641,103.649 C220.735,103.649 228.852,98.4457 235.096,88.039 C240.5074,79.0894 243.2131,69.307 243.2131,58.589 C243.31716,50.4719 241.5481,43.708 238.218,38.088 Z M225.106,66.914 C223.6491,73.7823 221.0475,78.881 217.1971,82.316 C214.1792,85.0217 211.3695,86.1664 208.7678,85.6461 C206.2702,85.12577 204.1889,82.9404 202.628,78.8819 C201.3792,75.6559 200.7548,72.4299 200.7548,69.412 C200.7548,66.8104 200.96293,64.2087 201.48326,61.8153 C202.41985,57.5486 204.18896,53.386 206.99866,49.4313 C210.43276,44.3321 214.07506,42.2508 217.82166,42.9793 C220.31926,43.49963 222.40056,45.685 223.96146,49.7435 C225.21026,52.9695 225.83466,56.1955 225.83466,59.2134 C225.83466,61.9191 225.62653,64.5207 225.1062,66.9142 L225.106,66.914 Z M173.073,38.088 C169.3267,31.5319 163.7071,27.577 156.423,26.016 C154.4458,25.59974 152.5726,25.39161 150.8035,25.39161 C140.8133,25.39161 132.6965,30.59491 126.3485,41.00161 C120.9371,49.84711 118.2314,59.62961 118.2314,70.34761 C118.2314,78.36061 119.8964,85.22861 123.2265,90.95261 C126.9728,97.50871 132.4883,101.46361 139.8765,103.02461 C141.8537,103.44087 143.7269,103.649 145.496,103.649 C155.59,103.649 163.707,98.4457 169.951,88.039 C175.3624,79.0894 178.0681,69.307 178.0681,58.589 C178.0681,50.4719 176.4031,43.708 173.073,38.088 L173.073,38.088 Z M159.857,66.914 C158.4001,73.7823 155.7985,78.881 151.9481,82.316 C148.9302,85.0217 146.1205,86.1664 143.5188,85.6461 C141.0212,85.12577 138.9399,82.9404 137.379,78.8819 C136.1302,75.6559 135.5058,72.4299 135.5058,69.412 C135.5058,66.8104 135.71393,64.2087 136.23426,61.8153 C137.17084,57.5486 138.93996,53.386 141.74966,49.4313 C145.18376,44.3321 148.82606,42.2508 152.57266,42.9793 C155.07026,43.49963 157.15156,45.685 158.71246,49.7435 C159.96126,52.9695 160.58566,56.1955 160.58566,59.2134 C160.68972,61.9191 160.37753,64.5207 159.8572,66.9142 L159.857,66.914 Z" id="Shape" fill="#FFFFFF"></path>
                </g>
            </g>
        </g>
    </g>
</svg>