<?xml version="1.0" encoding="UTF-8"?>
<svg width="512px" height="512px" viewBox="0 0 512 512" version="1.1" xmlns="http://www.w3.org/2000/svg" xmlns:xlink="http://www.w3.org/1999/xlink">
    <!-- Generator: Sketch 60.1 (88133) - https://sketch.com -->
    <title>512Grid</title>
    <desc>Created with Sketch.</desc>
    <g id="Page-1" stroke="none" stroke-width="1" fill="none" fill-rule="evenodd">
        <g id="512Grid">
            <rect id="whitetrans" fill-opacity="0.01" fill="#FFFFFF" x="0" y="0" width="512" height="512"></rect>
            <g id="Muntedduck" transform="translate(53.000000, 67.000000)">
                <path d="M400.824305,238.059276 C399.028207,238.059276 397.21118,238.126535 395.61486,238.186813 L392.756452,238.274376 C390.229738,237.460297 384.257966,235.746481 378.805616,235.746481 C375.91296,235.746481 373.499136,236.226807 371.630104,237.17096 C369.330439,238.329578 367.739192,240.202022 367.028871,242.585248 C366.532915,244.23942 366.557015,246.372649 366.591263,249.39229 C366.687663,257.551476 366.846217,271.170001 354.69909,277.007509 C338.936302,271.299442 327.672637,254.627012 313.475092,233.610715 C293.952674,204.700458 269.65525,168.719202 222.047239,152.504889 C211.351831,148.862792 213.100363,141.550679 219.733621,120.930952 C223.823676,108.22422 228.913889,92.409016 230.42015,73.3127515 C232.659565,44.9608645 223.802747,20.7428215 206.730938,8.52847096 C191.796435,-2.15353374 171.897927,-2.87116649 149.605892,6.77150803 C105.274238,25.9527971 106.765278,47.7063967 107.750849,62.1117162 C107.930966,64.6859302 108.058443,66.8191586 107.938576,68.630055 C100.173878,81.6603876 74.3968284,92.325895 53.6053461,96.7446345 C46.1317523,98.3321828 39.0913275,99.1716418 33.2432276,99.1716418 C28.0325142,99.1716418 24.0039782,98.50477 21.5920572,97.2471678 C17.4036989,95.0574679 13.4037026,93.899484 10.02714,93.899484 C5.4252733,93.899484 2.11403488,95.9768754 0.701003051,99.7522201 C-1.49211368,105.610667 1.50011441,114.421496 9.12401731,124.559725 C18.7545776,137.368612 35.7604284,144.42121 57.0117168,144.42121 C64.4764317,144.42121 72.3698761,143.548122 80.4751484,141.826692 C93.8735822,138.978369 107.743872,133.765855 121.23173,126.55336 C119.699466,127.772257 118.124075,129.011459 116.525218,130.27033 C94.0695548,147.953537 63.3151833,172.172849 60.2874392,206.376203 C58.3093215,228.740203 68.603271,252.774872 90.8864279,277.817146 C95.2682218,282.739688 100.048303,287.504871 105.125197,292.006731 C100.12758,292.797333 94.1894215,293.669786 90.0860481,294.058742 C85.4068071,294.503535 84.434555,297.808706 84.2480957,298.808697 C83.0335732,305.29531 93.9534934,314.833925 98.8769072,318.041381 C98.3416295,318.863074 97.5735947,319.884003 97.0903226,320.524226 C94.2078137,324.368098 90.6219601,329.152951 91.8009664,334.704928 C93.3180096,341.848261 100.052743,342.810181 106.441828,342.810181 C107.957603,342.810181 109.513333,342.757516 111.057648,342.702314 C112.713584,342.644573 114.425331,342.584295 116.116149,342.584295 C117.6389,342.584295 118.962508,342.633152 120.159906,342.735308 C124.889885,343.138858 125.523466,345.749239 126.40122,349.369128 C126.945377,351.604513 127.50856,353.916039 129.570394,355.282777 C130.023224,355.582267 130.605433,355.903964 131.79205,355.903964 C132.533448,355.903964 133.472087,355.782138 134.661241,355.528968 C141.950912,353.97949 159.751435,347.221306 189.075016,334.867998 C191.022058,335.335633 192.991296,335.777253 194.957998,336.189051 C191.037913,337.669367 187.478696,339.020877 184.211219,340.274037 C150.396758,350.47762 150.105653,353.677463 149.980713,355.19458 C149.9712,355.312599 149.985787,355.421101 149.98325,355.535313 C149.785375,355.896985 149.759372,356.216144 149.730832,356.55878 C149.321763,361.515586 153.831669,362.634865 159.543412,364.054267 C160.713539,364.344239 161.966115,364.65515 163.304943,365.026974 C167.172389,366.100568 171.169848,367.210329 173.302714,368.479987 C173.821503,368.788359 173.891266,369.733147 172.768071,373.837803 C171.755863,377.53891 170.063777,383.734283 175.584621,386.649229 C177.288124,387.547698 179.781859,387.967745 183.429865,387.967745 C186.11767,387.967745 189.195517,387.750107 192.471874,387.51978 C195.112747,387.333233 199.101961,387.053413 202.245133,387.053413 C204.585387,387.053413 205.653406,387.212676 206.093551,387.31166 C207.276363,393.142188 212.221975,397.349001 219.460909,398.628176 C220.823838,398.87056 222.270483,399 223.646096,399 C225.043907,399 226.352927,398.872463 227.537641,398.620562 C230.271744,398.03808 232.22259,396.805858 233.187232,395.043185 C233.367983,394.696107 233.773247,393.863628 234.356091,392.63204 C254.986482,349.096923 269.645736,339.544349 276.547268,337.727107 C277.449756,337.4898 277.946347,337.407313 278.642715,337.324192 C278.787317,337.312137 279.199557,337.307061 279.748153,337.298812 C281.976151,337.259472 284.244106,337.203001 285.321003,336.973942 C323.040328,328.956886 357.563207,310.813658 385.173139,284.499189 C403.378291,275.581761 418.461835,255.786265 415.664311,244.433581 C414.272842,238.783889 407.002831,238.059276 400.824305,238.059276 Z" id="Path" fill="#FFFFFF"></path>
                <path d="M181.986607,54.2295652 C183.107666,59.4611523 179.307455,64.6952755 173.49484,65.9183674 C167.686705,67.1408253 162.067332,63.8887577 160.945633,58.6584387 C159.823934,53.4268517 163.625425,48.1927285 169.43548,46.9696366 C175.244895,45.7465447 180.865548,48.9992463 181.986607,54.2295652 L181.986607,54.2295652 Z M224.663783,281.968437 L223.935191,281.224517 L223.722286,281.220689 C213.931229,273.614968 195.247267,239.946526 188.123891,227.112948 C187.325818,225.674235 186.638021,224.435857 186.079625,223.439285 C188.26349,221.638182 189.450401,219.172272 190.087202,217.017073 C192.817351,218.441112 196.291391,219.27563 199.817064,219.262869 C204.597216,227.904081 229.638354,272.469101 247.456674,290.818916 C239.162324,291.727443 231.284858,288.741554 224.663783,281.968437 L224.663783,281.968437 Z M172.440281,223.829268 C176.303979,225.291503 179.688532,225.749008 182.550035,225.156605 C183.126535,226.18106 183.866568,227.516033 184.75359,229.111892 C195.50093,248.462636 207.244738,268.711845 216.28103,279.3 C195.02624,272.544961 180.025778,240.949755 172.440281,223.829268 L172.440281,223.829268 Z M163.163836,163.492683 L187.053864,213.077265 C186.93153,214.507028 186.359158,218.505539 183.551177,220.133386 C180.702628,221.773296 175.984205,220.795572 169.838339,217.38687 C160.156824,193.53294 158.695786,172.235061 163.163836,163.492683 L163.163836,163.492683 Z M180.012911,160.459778 L209.461358,210.362249 C206.964286,213.272555 203.287009,213.939434 201.176621,214.068119 C196.782655,214.331194 192.742626,212.790779 191.069304,211.064627 L166.594848,160.102883 C170.17325,159.344086 174.712694,159.429031 180.012911,160.459778 L180.012911,160.459778 Z M211.090134,172.867009 C220.143472,186.234658 229.887143,202.49299 229.920375,205.411774 C229.702177,206.536496 229.092727,207.356566 227.999229,207.993333 C224.885518,209.800169 218.626745,209.454641 214.190678,208.080194 L187.053864,161.546341 C194.179786,163.77918 202.307663,167.489932 211.090134,172.867009 L211.090134,172.867009 Z M247.456674,200.821039 C244.109636,204.914315 237.969329,204.527146 235.344377,204.134999 C234.541344,199.412419 228.297607,189.217823 222.126464,180.036585 C230.257648,185.672309 238.775573,192.559793 247.456674,200.821039 L247.456674,200.821039 Z M250.773157,205.339024 C269.29023,224.074373 288.394995,249.207159 305.911007,281.914955 C302.615579,283.125486 299.332328,284.202922 296.095221,285.139024 C274.767869,263.211929 251.954948,219.41668 246.482436,208.601121 C248.060293,207.828536 249.528559,206.765677 250.773157,205.339024 L250.773157,205.339024 Z M286.854242,290.743703 C284.696398,291.207708 282.274444,290.970906 280.084932,290.137616 C267.917528,282.104882 244.881101,245.434372 226.997658,213.245194 C228.284004,212.938631 229.496881,212.500226 230.57612,211.878778 C231.79533,211.17669 232.783999,210.28324 233.529459,209.231707 C235.705671,209.654112 238.503838,209.813474 241.337473,209.348829 C246.043309,218.966861 268.34631,263.353942 290.302866,287.230062 L290.323185,288.474876 C290.332633,289.219845 289.036787,290.277138 286.854242,290.743703 L286.854242,290.743703 Z M268.988332,293.546819 C266.097848,294.167009 261.800196,294.226348 256.896504,291.497384 C241.401923,280.042374 213.647484,230.986754 206.538642,218.138868 C209.719874,217.241124 212.390095,215.53305 214.353585,213.12439 C216.909898,213.827527 220.17483,214.352009 223.405149,214.283099 L223.357321,214.667846 L224.441646,214.221208 C224.542338,214.214189 224.644917,214.207808 224.745609,214.20079 L223.434098,214.813323 L222.925605,215.619187 C233.294973,234.41375 257.5145,276.608998 273.761124,291.621805 C272.308645,292.49977 270.690653,293.179937 268.988332,293.546819 L268.988332,293.546819 Z M254.987194,302.220742 C264.978727,309.301804 274.760435,306.57954 279.840132,301.975515 C286.924622,305.938522 295.625407,303.230234 295.557373,298.841577 C300.650423,297.485845 305.899253,295.763544 311.286059,293.651805 C310.111669,291.395216 308.925198,289.188181 307.733005,287.002111 C308.525257,286.706061 309.315602,286.415729 310.107854,286.105702 L312.730679,285.078421 L311.427214,282.581053 C293.205414,247.626169 273.050671,220.969584 253.45292,201.274625 C253.512689,201.115799 253.577544,200.962692 253.633498,200.79942 L252.636506,200.46144 C216.068917,164.040917 181.565889,151.849495 165.342523,155.291554 C164.084202,155.558381 162.906633,155.921138 161.842243,156.366483 L161.180973,156.772441 C151.217416,165.247353 153.330937,194.450859 165.988532,223.261114 C168.901935,229.889842 171.992736,236.552241 175.31371,242.933202 C186.148998,265.818642 202.486179,293.042551 225.505366,293.523474 C234.428694,302.634322 244.844967,304.949994 254.987194,302.220742 L254.987194,302.220742 Z M205.747259,339.636585 C213.277676,342.469547 238.684386,351.599369 251.35363,350.812575 C244.082838,360.282278 236.532838,373.177072 228.732056,389.475051 C228.226701,390.534125 227.880533,391.253945 227.835052,391.391024 C227.051752,392.109593 222.546514,392.809383 218.134767,391.253945 C215.80066,390.430221 212.908136,388.73082 212.392674,385.307606 C211.515252,379.531519 202.58816,380.155571 192.253655,380.877269 C187.09272,381.235928 180.672819,381.684094 178.831433,380.720787 C177.948957,380.262606 178.224376,378.660849 179.16623,375.24765 C180.266009,371.286136 181.766281,365.858693 176.83844,362.958131 C173.983818,361.274377 169.580283,360.067583 165.322669,358.895841 C162.302542,358.065232 157.495987,356.745144 155.87822,355.932686 C160.878074,352.900679 183.365097,345.81139 205.747259,339.636585 L205.747259,339.636585 Z M372.864288,248.676054 C372.835724,246.602551 372.810968,244.457194 373.031863,243.707859 C373.243871,242.988035 373.675504,242.499171 374.423245,242.11488 C377.874406,240.353172 385.701565,241.954492 390.669789,243.57185 C386.014499,257.043845 374.246783,273.200103 365.145672,278.1606 C364.356672,278.593649 363.397558,279.034397 362.416862,279.3 C373.120729,270.811597 372.956327,256.71986 372.864288,248.676054 L372.864288,248.676054 Z M13.6937492,120.800479 C6.5040464,111.220622 5.12995508,104.669732 6.13910298,101.970885 C6.49579551,101.014235 7.1476162,100.483752 8.24752394,100.248406 C9.56258962,99.9698071 12.5982842,99.9367315 18.1809665,102.857567 C18.6709428,103.113904 19.2040775,103.346069 19.7600609,103.564877 C19.8165478,103.752518 19.8781121,103.94652 19.9491968,104.14879 C20.4315568,105.520794 21.3188453,107.371759 22.7151506,109.318135 C23.4342478,110.278601 24.2510864,111.270235 25.238655,112.192538 C26.1646593,113.178447 27.3362863,113.988164 28.4799873,114.858945 C29.7169868,115.597423 30.9292336,116.461843 32.3103065,117.023493 C33.6456821,117.700908 35.0375445,118.240932 36.475739,118.661374 C39.297545,119.588129 42.203764,120.17713 44.9246552,120.440463 C47.6334874,120.854545 50.1880914,120.781397 52.3523645,120.867267 C54.5172724,120.886985 56.3191409,120.695528 57.5777197,120.658636 C58.831221,120.591212 59.5503182,120.551776 59.5503182,120.551776 C59.5503182,120.551776 58.8293169,120.511067 57.5707381,120.439191 C56.3191409,120.339964 54.5198111,120.333604 52.3904456,120.077267 C50.2667922,119.755416 47.7718486,119.553145 45.2013775,118.860464 C42.6029804,118.317896 39.8985909,117.445208 37.3776252,116.296464 C36.0936591,115.762165 34.873796,115.127367 33.7510396,114.381892 C32.556564,113.748366 31.5848624,112.854687 30.5769839,112.104124 C29.6757323,111.235888 28.7522668,110.450977 28.0807709,109.542032 C27.3439025,108.686517 26.7726867,107.800471 26.2827105,106.970399 C25.889841,106.264997 25.5858273,105.606664 25.3287801,104.989675 C32.6016265,106.112976 42.7229357,105.436833 54.4639589,102.938348 C77.7390984,97.9839951 104.885177,86.259944 113.325842,71.1971589 C115.975014,68.2343426 120.386069,64.4433625 124.167518,67.0436186 C128.068287,69.7335607 133.619235,78.8007454 138.268297,106.394755 L138.34192,108.207556 C119.209999,121.973393 98.6278252,131.478831 78.7234936,135.715696 C49.6619382,141.902118 25.3509941,136.327596 13.6937492,120.800479 L13.6937492,120.800479 Z M165.970503,321.47747 L143.573398,311.351092 C125.236557,301.585487 108.909867,288.97808 95.4896187,273.910567 C74.4099904,250.245999 64.6408716,227.829238 66.4632649,207.28799 C69.2479173,175.824633 97.5733507,153.54546 120.330748,135.641851 C132.268597,126.249067 141.965404,118.612594 145.716755,111.34704 C147.279713,111.709081 148.854723,111.856815 150.638422,112.121213 C152.588313,112.105995 154.736111,112.357078 156.90167,112.08634 C159.094505,111.950654 161.359651,111.669136 163.646999,111.177749 C165.967966,110.84107 168.236918,110.033293 170.580086,109.43602 C172.848404,108.579421 175.202355,107.89782 177.398361,106.814866 C186.373949,102.977609 194.229333,96.9934651 198.726642,91.3745331 C199.926135,90.0335219 200.865559,88.6931448 201.596927,87.424415 C202.380309,86.2057751 203.050148,85.1481833 203.411074,84.1609708 C204.239492,82.2784827 204.717767,81.2012355 204.717767,81.2012355 C204.717767,81.2012355 204.103114,82.202397 203.031118,83.9504669 C202.562358,84.8546191 201.760581,85.8025207 200.840187,86.8797679 C199.981321,87.9975943 198.902348,89.1610721 197.577893,90.2922134 C192.572496,95.0621554 184.41264,99.6609044 175.666041,102.068384 C173.528392,102.795637 171.274029,103.113295 169.135111,103.619899 C166.947351,103.858301 164.821754,104.326862 162.748172,104.330667 C160.682835,104.493617 158.70884,104.464451 156.862343,104.324326 C154.994913,104.32179 153.354569,103.839914 151.800492,103.677597 C150.38089,103.233764 148.904834,102.91674 147.966679,102.492562 C147.048187,101.979617 142.50267,100.256909 142.50267,100.256909 C138.604791,79.8418369 133.612715,67.7524467 127.316483,63.423168 C124.869922,61.7410391 122.234968,61.183711 119.492181,61.766401 C117.503596,62.1874087 115.690718,63.1898384 114.090336,64.3862867 C114.046568,63.6476209 113.995822,62.8969083 113.943174,62.1341487 C113.02278,48.7734926 111.764929,30.4704335 152.000936,13.0797692 C172.135431,4.36224542 189.759934,4.7490146 202.942948,14.1747698 C218.198276,25.070882 226.070152,47.1604748 224.007987,73.2648586 C222.559841,91.6180075 217.5906,107.034881 213.602014,119.418469 C207.31149,138.947777 202.765973,153.054707 219.906492,158.886679 C265.497405,174.400562 288.153311,207.914429 308.144451,237.48642 C323.346497,259.969123 337.038867,280.202858 357.955476,284.74581 L357.944058,284.778147 C358.702701,285.024157 359.500038,285.153503 360.324016,285.187108 C364.554277,285.847151 369.081399,285.877586 373.966276,285.176963 L374.107728,285.8015 C347.168912,309.114805 313.780359,324.782127 277.923044,331.318527 C276.894181,331.413634 275.857707,331.591801 274.815524,331.861906 C260.866889,334.188861 246.570014,335.150712 232.148814,334.635231 C208.947394,333.802092 186.558535,329.261041 165.970503,321.47747 L165.970503,321.47747 Z M113.01171,297.082749 C113.129319,297.054527 113.239421,297.03409 113.348689,297.013654 C113.557217,297.208288 113.772417,297.399029 113.985948,297.593663 L113.01171,297.082749 Z M132.614933,348.61404 C131.709527,344.857407 130.026791,337.860573 120.761595,337.063498 C117.463329,336.780292 114.12829,336.896266 110.908645,337.009676 C102.668055,337.30057 98.7154624,337.094894 98.0649395,333.993733 C97.4841608,331.23024 100.003193,327.837544 102.229301,324.840823 C104.42434,321.878702 106.325185,319.323448 105.70573,316.666317 C105.490792,315.742377 104.868166,314.460264 103.134073,313.577331 C98.9234269,311.444962 91.3352612,303.515217 90.6042155,300.658177 C90.6530364,300.653692 90.7018573,300.647925 90.7557505,300.640236 C96.5692441,300.084078 105.616965,298.633452 110.65503,297.790244 C116.360103,304.661493 135.639294,325.451445 168.543326,337.124367 C152.850253,343.507376 137.311886,349.47647 133.068904,350.341463 C132.909761,349.843612 132.746813,349.164432 132.614933,348.61404 L132.614933,348.61404 Z M383.584094,277.757235 C379.521715,279.056345 375.733176,279.872341 372.159251,280.273171 C381.762742,272.917362 392.250162,257.97759 396.363488,245.322482 C408.565272,244.884251 409.873333,246.293075 409.984143,246.736917 C411.66157,253.38395 400.766574,268.732032 385.666549,277.090848 L383.584094,277.757235 Z M400.824305,238.059276 C399.028207,238.059276 397.21118,238.126535 395.61486,238.186813 L392.756452,238.274376 C390.229738,237.460297 384.257966,235.746481 378.805616,235.746481 C375.91296,235.746481 373.499136,236.226807 371.630104,237.17096 C369.330439,238.329578 367.739192,240.202022 367.028871,242.585248 C366.532915,244.23942 366.557015,246.372649 366.591263,249.39229 C366.687663,257.551476 366.846217,271.170001 354.69909,277.007509 C338.936302,271.299442 327.672637,254.627012 313.475092,233.610715 C293.952674,204.700458 269.65525,168.719202 222.047239,152.504889 C211.351831,148.862792 213.100363,141.550679 219.733621,120.930952 C223.823676,108.22422 228.913889,92.409016 230.42015,73.3127515 C232.659565,44.9608645 223.802747,20.7428215 206.730938,8.52847096 C191.796435,-2.15353374 171.897927,-2.87116649 149.605892,6.77150803 C105.274238,25.9527971 106.765278,47.7063967 107.750849,62.1117162 C107.930966,64.6859302 108.058443,66.8191586 107.938576,68.630055 C100.173878,81.6603876 74.3968284,92.325895 53.6053461,96.7446345 C46.1317523,98.3321828 39.0913275,99.1716418 33.2432276,99.1716418 C28.0325142,99.1716418 24.0039782,98.50477 21.5920572,97.2471678 C17.4036989,95.0574679 13.4037026,93.899484 10.02714,93.899484 C5.4252733,93.899484 2.11403488,95.9768754 0.701003051,99.7522201 C-1.49211368,105.610667 1.50011441,114.421496 9.12401731,124.559725 C18.7545776,137.368612 35.7604284,144.42121 57.0117168,144.42121 C64.4764317,144.42121 72.3698761,143.548122 80.4751484,141.826692 C93.8735822,138.978369 107.743872,133.765855 121.23173,126.55336 C119.699466,127.772257 118.124075,129.011459 116.525218,130.27033 C94.0695548,147.953537 63.3151833,172.172849 60.2874392,206.376203 C58.3093215,228.740203 68.603271,252.774872 90.8864279,277.817146 C95.2682218,282.739688 100.048303,287.504871 105.125197,292.006731 C100.12758,292.797333 94.1894215,293.669786 90.0860481,294.058742 C85.4068071,294.503535 84.434555,297.808706 84.2480957,298.808697 C83.0335732,305.29531 93.9534934,314.833925 98.8769072,318.041381 C98.3416295,318.863074 97.5735947,319.884003 97.0903226,320.524226 C94.2078137,324.368098 90.6219601,329.152951 91.8009664,334.704928 C93.3180096,341.848261 100.052743,342.810181 106.441828,342.810181 C107.957603,342.810181 109.513333,342.757516 111.057648,342.702314 C112.713584,342.644573 114.425331,342.584295 116.116149,342.584295 C117.6389,342.584295 118.962508,342.633152 120.159906,342.735308 C124.889885,343.138858 125.523466,345.749239 126.40122,349.369128 C126.945377,351.604513 127.50856,353.916039 129.570394,355.282777 C130.023224,355.582267 130.605433,355.903964 131.79205,355.903964 C132.533448,355.903964 133.472087,355.782138 134.661241,355.528968 C141.950912,353.97949 159.751435,347.221306 189.075016,334.867998 C191.022058,335.335633 192.991296,335.777253 194.957998,336.189051 C191.037913,337.669367 187.478696,339.020877 184.211219,340.274037 C150.396758,350.47762 150.105653,353.677463 149.980713,355.19458 C149.9712,355.312599 149.985787,355.421101 149.98325,355.535313 C149.785375,355.896985 149.759372,356.216144 149.730832,356.55878 C149.321763,361.515586 153.831669,362.634865 159.543412,364.054267 C160.713539,364.344239 161.966115,364.65515 163.304943,365.026974 C167.172389,366.100568 171.169848,367.210329 173.302714,368.479987 C173.821503,368.788359 173.891266,369.733147 172.768071,373.837803 C171.755863,377.53891 170.063777,383.734283 175.584621,386.649229 C177.288124,387.547698 179.781859,387.967745 183.429865,387.967745 C186.11767,387.967745 189.195517,387.750107 192.471874,387.51978 C195.112747,387.333233 199.101961,387.053413 202.245133,387.053413 C204.585387,387.053413 205.653406,387.212676 206.093551,387.31166 C207.276363,393.142188 212.221975,397.349001 219.460909,398.628176 C220.823838,398.87056 222.270483,399 223.646096,399 C225.043907,399 226.352927,398.872463 227.537641,398.620562 C230.271744,398.03808 232.22259,396.805858 233.187232,395.043185 C233.367983,394.696107 233.773247,393.863628 234.356091,392.63204 C254.986482,349.096923 269.645736,339.544349 276.547268,337.727107 C277.449756,337.4898 277.946347,337.407313 278.642715,337.324192 C278.787317,337.312137 279.199557,337.307061 279.748153,337.298812 C281.976151,337.259472 284.244106,337.203001 285.321003,336.973942 C323.040328,328.956886 357.563207,310.813658 385.173139,284.499189 C403.378291,275.581761 418.461835,255.786265 415.664311,244.433581 C414.272842,238.783889 407.002831,238.059276 400.824305,238.059276 Z" id="duck" fill="#AF15A0"></path>
            </g>
        </g>
    </g>
</svg>