<?xml version="1.0" encoding="UTF-8"?>
<svg width="512px" height="512px" viewBox="0 0 512 512" version="1.1" xmlns="http://www.w3.org/2000/svg" xmlns:xlink="http://www.w3.org/1999/xlink">
    <!-- Generator: Sketch 60.1 (88133) - https://sketch.com -->
    <title>512Grid</title>
    <desc>Created with Sketch.</desc>
    <g id="Page-1" stroke="none" stroke-width="1" fill="none" fill-rule="evenodd">
        <g id="512Grid">
            <rect id="whitetrans" fill-opacity="0.01" fill="#FFFFFF" x="0" y="0" width="512" height="512"></rect>
            <g id="Hammered" transform="translate(144.000000, 49.000000)" fill="#126970">
                <path d="M280.672481,59.5625089 C280.622482,66.9052155 274.917007,72.7517765 265.667138,72.8125057 C260.489433,72.8235473 256.439491,73.6461513 253.495088,75.5784425 C250.528463,77.499692 248.961818,80.6962537 249.000707,84.4062528 C249.000707,91.0312512 249.000707,96 249.000707,96 L252.333993,96 C252.333993,96 252.339549,91.0312512 252.333993,84.4062528 C252.378437,81.4967744 253.306202,79.7245873 255.345062,78.3333377 C257.400588,76.9531297 260.844984,76.119484 265.667138,76.1250049 C271.039284,76.1305257 275.639219,74.3362553 278.883618,71.3329227 C282.133572,68.3461526 284.005768,64.1503203 284.005768,59.5625089 C284.005768,55.681364 284.972421,52.4351148 287.1835,50.1550112 C289.389025,47.8749076 293.027862,46.3235538 299,46.3125122 L299,43 C292.47787,42.9944921 287.783492,44.7501167 284.783534,47.8583451 C281.778021,50.9610527 280.666926,55.1679267 280.672481,59.5625089" id="Fill-145"></path>
                <path d="M254.738889,47.273125 C257.75,46.3345833 261.361111,46.3125 263,46.3125 L263,43 C261.3,43.0055208 257.405556,42.9834375 253.75,44.1152083 C250.144444,45.1420833 246.288889,47.8748958 246.327778,52.9375 C246.355556,56.5922917 248.566667,59.396875 250.622222,61.5223958 C251.772222,62.6596875 252.966667,63.7472917 253.788889,64.5202083 C253.55,64.53125 253.288889,64.53125 253,64.53125 C249.238889,64.5422917 246.383333,64.5146875 244.033333,65.0115625 C241.705556,65.4366667 239.655556,66.78375 238.788889,69.069375 C238.2,70.5489583 238,72.2880208 238,74.4742708 C238,82.75 238,96 238,96 L241.327778,96 C241.327778,96 241.327778,82.75 241.327778,74.4742708 C241.322222,72.5088542 241.544444,71.1396875 241.888889,70.3005208 C242.25,69.4558333 242.611111,69.0804167 243.327778,68.705 C244.744444,67.9376042 248,67.8161458 253,67.84375 C255,67.7719792 256.072222,67.8658333 257.361111,66.9107292 C257.783333,66.5629167 258.122222,65.8728125 258.1,65.2820833 C257.911111,63.5927083 257.061111,63.173125 256.266667,62.27875 C255.427778,61.4782292 254.394444,60.589375 253.388889,59.595625 C251.355556,57.6026042 249.622222,55.2507292 249.666667,52.9375 C249.7,49.7188542 251.683333,48.3110417 254.738889,47.273125" id="Fill-146"></path>
                <path d="M244.211475,107 L219.795153,110.477921 C217.574979,110.249037 215.360398,110.578407 213.347142,111.39904 L193.276098,114.257299 L194.064623,119.778429 L206.31193,118.036677 C206.222452,118.220901 206.127382,118.405125 206.043496,118.594931 C200.260978,132.272149 193.410315,147.317088 187.432063,159.459108 C183.56773,144.347178 178.814209,133.377491 173.199461,126.538882 C170.336164,128.688159 167.243579,130.435494 164,131.758555 L165.325394,168.30743 C165.375725,169.80355 166.410315,171.020544 167.780447,171.400156 L168.390017,179.673477 L166.382353,191.659186 C166.449461,192.116954 166.51657,192.563557 166.583679,193.03249 C167.897887,202.148775 174.155758,206.145872 179.56918,206.843689 C180.380075,206.944175 181.163007,207 181.934756,207 C191.989851,207 199.047432,197.554346 214.678128,164.790432 C223.089064,147.16636 230.46541,129.748842 230.772991,129.017529 C232.858948,124.093731 231.751657,118.628426 228.407415,114.888126 L245,112.526712 L244.211475,107" id="Fill-147"></path>
                <path d="M18.1857905,280.984386 L11.787278,256.599218 L23.8503229,253.439733 L30.2488354,277.824902 L18.1857905,280.984386 Z M74.8703355,162.856646 L78.1536353,155.210022 C79.5711691,155.294051 80.9494826,154.47617 81.4873611,153.075689 L99.7808315,105.571387 C99.9433156,105.156844 100.004947,104.731098 99.9996924,104.316556 C99.9825359,102.983298 99.1701153,101.73407 97.8534337,101.229897 C96.1109316,100.552064 94.172328,101.425964 93.5111857,103.156958 L92.1664896,106.641354 C89.6283756,107.235157 87.3367893,108.585221 85.5886843,110.478671 C84.47931,111.391784 83.4931995,112.489761 82.6975876,113.778203 L46.8726414,171.629257 L15.0761806,207.649619 C13.871557,204.019573 13.0703422,201.375465 13.0703422,201.375465 L12.5828899,199.661277 C12.5828899,199.661277 12.1010404,197.935885 11.9945853,197.515741 C11.9945853,197.515741 11.3166344,194.843624 9.8486744,195.230156 L3.84236499,196.804297 C2.36880214,197.190829 3.09717922,199.851743 3.09717922,199.851743 C3.20363433,200.266285 3.63505767,202.008483 3.63505767,202.008483 L4.05527521,203.739477 C4.05527521,203.739477 5.50642646,210.282522 6.66622688,217.172887 L3.36611844,220.914971 C-1.54762536,226.483282 -1.0209527,234.975797 4.54833047,239.894285 C5.38876555,240.633738 6.29643544,241.238746 7.24892854,241.731715 C6.91835741,246.526961 6.8903429,251.008499 8.21262744,256.039025 C10.493008,264.727607 18.886153,296.725789 18.886153,296.725789 C19.3119735,298.339142 20.9312117,299.319479 22.5000239,298.904937 L43.7238113,293.336626 C45.2926234,292.927685 46.2227049,291.28072 45.7968845,289.672968 C45.7968845,289.672968 37.4037394,257.669185 35.1233589,248.980603 C33.5881641,243.137798 30.8427428,238.818716 27.6266779,234.068285 L67.7938721,188.569471 C68.2925303,188.003676 68.7463652,187.393067 69.1441711,186.748846 L71.4469633,183.029169 L68.1636635,202.938402 L74.8703355,162.856646 L74.8703355,162.856646 Z" id="Fill-148"></path>
                <path d="M70.2817827,53.999607 C69.871597,53.8267943 69.4614112,53.6539816 69.0512255,53.4867435 C68.2477109,53.1634165 67.4161015,52.8791118 66.5732541,52.6282547 C67.8824771,51.9202801 69.3771265,51.3795436 70.9111088,50.8276579 C70.9167278,51.9704515 70.8099671,53.0797975 70.6076837,54.1389721 C70.5009231,54.0943752 70.3941624,54.0497784 70.2817827,53.999607 Z M62.1511146,51.6638483 C58.7572489,51.1677087 55.1610999,51.2067309 51.4862851,51.7307436 C51.4469522,51.3962674 51.4413333,51.0562166 51.3851434,50.727315 C53.4360722,50.1196833 55.7398551,49.0828072 57.3749791,47.1316961 C59.2123865,44.9464518 60.0102821,41.9305915 59.8136177,37.9280266 C59.7855228,37.2925219 59.712476,36.6681663 59.6450482,36.0438108 C61.6454061,35.8152521 63.634526,35.4473283 65.5899321,34.9344648 C67.6801937,38.8534107 69.7198844,42.9061471 70.5571129,47.2153152 C70.5683509,47.2766358 70.5683509,47.3323818 70.5795888,47.3881279 C70.3941624,47.4550231 70.2143549,47.5219183 70.0289285,47.5888136 C67.247532,48.5810929 64.3818507,49.6012452 62.1511146,51.6638483 Z M57.9649723,59.22301 C57.408693,60.850794 56.8861276,62.3782353 56.0769941,63.7105654 C54.2452057,66.720851 50.7895312,68.6552382 47.2439531,68.6552382 C47.2158582,68.6552382 47.1877632,68.6552382 47.1540493,68.6552382 C45.1031206,68.6385144 43.0746678,68.0085843 41.360878,67.3953779 C40.9113594,67.2337145 40.4730787,67.0553272 40.0460361,66.8657907 C44.4513186,66.7877462 48.6037469,64.4965844 50.4411543,60.8284956 C51.2390499,59.2397338 51.6323787,57.3387942 51.6773305,55.0922292 C53.5203569,54.813499 55.3409074,54.6462609 57.1165059,54.6462609 C58.0155432,54.6462609 58.9033425,54.6852832 59.7799038,54.757753 C58.9988652,56.190426 58.4762998,57.7234418 57.9649723,59.22301 Z M28.6226439,55.6998609 C27.3134209,53.2860578 26.4818115,50.6213976 25.8861993,47.9177151 C27.5887511,48.3748326 29.3868256,48.7037342 31.2017571,48.7929278 C31.9322248,49.5677976 32.7694533,50.2590484 33.7752512,50.7663373 C35.4609461,51.6248261 37.3095914,51.8533848 38.8941446,51.9593023 C41.9677282,52.1655626 45.0581687,52.0038991 48.0924195,51.4743118 C48.1317524,51.753042 48.1429903,52.0429213 48.1710852,52.3272261 C46.5752941,52.6840007 44.968265,53.1355435 43.3612359,53.6818546 C40.8495506,54.5403435 38.0119643,55.7333085 36.0228443,58.085791 C35.157521,59.1003687 34.5169569,60.4104004 34.2079129,61.8040512 C32.0108906,60.4382734 30.0611035,58.3477973 28.6226439,55.6998609 Z M15.9799325,38.9314551 C15.2831787,37.7496393 15.187656,36.1553029 15.7102214,34.6668839 C16.1316451,33.4794934 16.9183027,32.5039379 17.8735297,31.9018808 C17.9634335,32.5150871 18.0870511,33.1394426 18.2949535,33.7637982 C18.6433304,34.8229727 19.1434199,35.7706553 19.6210334,36.6904647 C19.9750293,37.3594171 20.3065493,37.9949218 20.5650225,38.6415758 C21.0875879,39.9404583 21.3348232,41.3675566 21.5652015,42.8615502 C19.413131,41.9696138 17.1037291,40.8379694 15.9799325,38.9314551 Z M25.6726779,19.6154558 C25.8131525,19.4203447 25.9592461,19.2252336 26.0997206,19.0356971 C26.3750508,19.4426431 26.6784759,19.8495891 26.9987579,20.2621098 C26.7964745,20.6133098 26.5941911,20.9700843 26.3975267,21.3212843 C25.0152569,23.7741096 23.689177,26.0819953 21.5764394,27.1300206 C21.6775811,26.773246 21.7562469,26.4164715 21.8911025,26.0541223 C22.705855,23.8800271 23.9926021,21.9121922 25.6726779,19.6154558 Z M27.4426575,12.0897418 C27.8303673,9.73168474 30.3139578,7.66908164 33.1009733,7.4015007 C33.3706844,7.37362768 33.6403956,7.35690388 33.9044878,7.35690388 C34.0112485,7.35690388 34.1123902,7.36247848 34.2191508,7.36805308 C32.0165096,8.67251018 29.7576785,10.14978 27.7629396,12.0116974 C27.6393219,12.1176148 27.5213233,12.2291069 27.4033247,12.3461735 C27.4145626,12.2625545 27.4258006,12.1733608 27.4426575,12.0897418 Z M38.7143371,8.65021177 C39.736992,9.18537365 40.5798394,9.79857998 41.1810706,10.289145 C41.7935397,10.7908593 42.3722949,11.3371704 42.9285742,11.9113545 C42.4846746,11.8277355 42.040775,11.7385418 41.5800184,11.6995196 C37.0735941,11.2925736 32.4660282,13.1489164 29.5273002,16.5494242 C29.3362548,16.7724083 29.1620663,17.0121162 28.9766398,17.2462496 C28.7574995,16.917348 28.5271212,16.5884464 28.3360758,16.2372464 C28.8811171,15.6184655 29.4542534,15.0164084 30.0667225,14.4477989 C32.0446045,12.6081799 34.4101963,11.1309101 36.6690274,9.81530379 C37.3095914,9.43623079 37.9951073,9.04600858 38.7143371,8.65021177 Z M50.3343936,3.95639606 C55.4757629,2.81917705 60.4429438,3.27071989 64.3200419,5.22183094 C65.0954616,5.61205314 65.8034534,6.08031979 66.4777313,6.58760866 C63.1681505,7.23983721 59.8810455,8.05372925 56.6726063,9.02928477 C55.784807,9.30244031 55.2847175,10.2389736 55.5600477,11.1197609 C55.8297589,12.0005482 56.773748,12.5022624 57.6671662,12.2291069 C61.4318848,11.0807387 65.3146019,10.14978 69.208557,9.4696784 C69.2591279,9.4585292 69.3040797,9.4529546 69.3546506,9.44737999 C70.7931102,11.3761926 71.6696715,13.6060338 71.7595752,15.8693226 C71.7932891,16.7947067 72.6136606,17.5584273 73.5070789,17.4748083 C74.43983,17.4413607 75.1646788,16.6609162 75.1253459,15.7411068 C75.0466802,13.6506306 74.456687,11.5936021 73.473365,9.68708792 C75.3557242,10.7518371 76.2491425,13.5112656 76.9852293,16.3041417 C77.6033174,18.6454749 78.4854977,21.7115065 79.8171966,24.6994937 C80.2891912,25.7586683 80.8061376,26.7955445 81.328703,27.8324206 C81.5815572,28.3229857 81.8231735,28.8079761 82.0591708,29.287392 C81.4523206,28.640738 80.671282,27.9996587 79.6654841,27.6150111 C78.8282556,27.2972587 77.9966462,27.2080651 77.1875126,27.2526619 L76.2322856,25.3517223 C75.5018178,23.9023255 74.6758273,22.2578176 73.3609853,20.9254875 C70.3548295,17.8817543 65.9720229,17.4692337 62.1061627,17.1013099 C61.2464583,17.0232654 60.3979919,16.9396464 59.5663824,16.8337289 C56.7231771,16.4658051 53.6552125,15.6407639 50.1939191,14.3028592 L48.9802188,13.8234433 C48.9240289,13.8011449 48.8678391,13.7788465 48.8172683,13.7621227 C47.2158582,11.5991767 45.4908304,9.47525301 43.321903,7.70810386 C42.9510502,7.4015007 42.5745783,7.11719595 42.1924875,6.85518961 C44.7097918,5.66222457 47.4687124,4.5863262 50.3343936,3.95639606 Z M73.5464118,32.0022236 L73.7374572,31.9074554 C74.2824985,31.645449 74.8331588,31.3722935 75.3782002,31.1493094 L76.400855,33.1896141 C77.8898855,36.1553029 79.1597756,39.0262234 78.3562611,41.573817 C77.8112197,43.3242423 76.2828564,44.8070867 73.7486951,46.0725216 C72.815944,41.713182 70.8886329,37.7440647 68.8657991,33.9310363 C70.4672092,33.373576 72.0349054,32.7380712 73.5464118,32.0022236 Z M64.2076623,25.2346556 C63.4322426,23.7908335 62.2297803,21.5944399 60.2518984,20.2676844 C60.7632258,20.3234304 61.2689343,20.384751 61.7858807,20.4349225 C65.3988866,20.7749732 68.8096092,21.0983002 70.9560607,23.2723954 C71.8944308,24.2200779 72.5687087,25.5579826 73.2148918,26.8457159 L73.8723128,28.150173 C73.3047955,28.3954555 72.7597542,28.6574619 72.2484267,28.908319 L72.0573813,29.0030872 C70.512161,29.7556586 68.9051319,30.396738 67.2643889,30.9430491 L64.2076623,25.2346556 Z M57.6840232,28.1111508 C56.9310795,26.2325096 56.0095663,24.4486366 54.9869114,22.7372335 C55.8915677,22.4752272 56.7456531,22.3804589 57.5379296,22.6201668 C59.1337208,23.1051573 60.2350414,24.9559255 61.2296014,26.8066937 L63.9548081,31.885157 C62.3533979,32.2698046 60.7351309,32.5596839 59.1056259,32.7436458 C58.7516299,31.1660332 58.2852544,29.6218682 57.6840232,28.1111508 Z M39.422329,46.9533088 C41.5575424,45.6990232 43.1758095,43.9095756 44.7266488,42.1480011 C45.8673023,44.0433661 46.7719585,46.0780962 47.3844276,48.2020199 C44.659221,48.6647119 41.8834434,48.8096516 39.1189039,48.6201151 C38.2704375,48.5643691 37.3320673,48.4584516 36.455506,48.2131691 C37.4669229,47.9177151 38.4671019,47.5163437 39.422329,46.9533088 Z M30.9769977,42.1814487 C29.3587307,38.7920901 29.1171144,36.3838616 30.252149,35.0292331 C30.6230018,34.5888394 31.1961381,34.215341 31.9041299,33.9421855 C32.6065028,33.6801791 33.3482085,33.5519633 34.0955332,33.5519633 C34.6799074,33.5519633 35.2642817,33.6300077 35.8261799,33.7972458 C36.9780714,34.131722 38.1692958,34.8396966 39.5684225,36.027087 C40.731552,37.0137917 41.7879207,38.1231377 42.7487668,39.3161027 C42.6251492,39.4498932 42.5071505,39.5836837 42.3891519,39.7174742 C40.8832645,41.4288773 39.4672808,43.0399375 37.7085392,44.0712391 C36.2813175,44.9074295 34.6574315,45.364547 32.8031672,45.4537406 C32.0895563,44.4391629 31.4995631,43.2852201 30.9769977,42.1814487 Z M52.2392288,18.5618559 C53.160742,18.8517352 54.0597793,19.108167 54.9419596,19.3255765 C54.3238715,19.4537923 53.7226403,19.6154558 53.1326471,19.8272907 C52.84046,19.3980463 52.5370349,18.9855257 52.2392288,18.5618559 Z M46.6651978,16.5159766 C46.9236711,16.8727512 47.1877632,17.2351004 47.4462365,17.5918749 C48.2947029,18.7681162 49.1487883,19.9610812 49.9803977,21.1707701 C46.625865,22.6201668 42.9285742,23.3281414 39.2649974,23.1943509 C37.1915928,23.1218811 35.5339928,22.7818303 34.2135319,22.1463256 C33.196496,21.6613351 32.213174,20.9310621 31.1849001,19.9109098 C31.4714682,19.4928146 31.7692743,19.0970177 32.0839374,18.7290939 C34.1180092,16.3710369 37.2084497,14.9885354 40.3269852,14.9885354 C40.6416482,14.9885354 40.9563113,14.9996846 41.2709743,15.0331322 C43.0802868,15.1947957 44.8446474,15.808002 46.6651978,16.5159766 Z M25.0433519,43.3242423 L24.987162,42.9340201 C24.7118319,41.1111249 24.4252637,39.2269091 23.700415,37.4095885 C23.374514,36.6068457 22.9868041,35.8654235 22.6103323,35.1462997 C22.1776706,34.3101093 21.7618659,33.5240903 21.4977737,32.7213474 C21.3067283,32.1360141 21.2055866,31.4949348 21.1550157,30.8371316 C21.5483445,30.7367888 21.9416733,30.6197221 22.3406211,30.4692078 C25.8637234,29.1145793 27.628084,25.9816524 29.3418737,22.954643 C29.3643497,22.9156208 29.3812066,22.8765986 29.4036825,22.8375763 C30.5050032,23.8354303 31.5950859,24.6103001 32.7469773,25.1621858 C34.5001,25.9983762 36.5959806,26.4499191 39.1526178,26.5391127 C43.3162841,26.689627 47.5305212,25.8813096 51.3514295,24.2256525 L51.8290431,24.0138176 C52.8741739,25.7307953 53.812544,27.4979444 54.5486308,29.343138 C55.0206253,30.5305285 55.3914782,31.7513665 55.6892843,32.9833538 C53.5821657,33.078122 51.4076194,33.1840395 49.3117388,34.0258045 C47.6541388,34.6891823 46.299964,35.70376 45.0806447,36.8577028 C44.0636088,35.6424394 42.9622881,34.5052204 41.7542068,33.485068 C40.6416482,32.5373855 38.9110015,31.2050554 36.775788,30.5862745 C34.7922871,30.0120904 32.6402167,30.0957094 30.7072866,30.8204078 C29.4373964,31.2998237 28.4147416,31.996649 27.6617979,32.8885855 C24.5713573,36.5733981 27.0998996,41.8748455 27.9258901,43.6141216 C28.1618873,44.1046867 28.4147416,44.606401 28.6788338,45.1081152 C27.5831321,44.8962803 26.4143837,44.5896772 25.1838264,44.1938803 C25.1388746,43.904001 25.0883037,43.608547 25.0433519,43.3242423 Z M37.6748253,63.2868955 C37.5793026,63.2645971 37.4837799,63.2255749 37.3882572,63.1977019 C37.4669229,62.1273781 37.9332985,61.0291813 38.6019575,60.2375877 C40.062893,58.5094608 42.3835329,57.5562037 44.4569376,56.8482291 C45.7380657,56.4134101 47.0135748,56.0622101 48.2890839,55.7556069 C48.1935612,57.1715561 47.912612,58.3645211 47.4237605,59.3400766 C45.8560643,62.4674289 41.5800184,64.2011304 37.6748253,63.2868955 Z M56.447847,38.0841155 C56.5995595,41.1724455 56.0376612,43.497055 54.784628,44.9910486 C53.8968288,46.0502231 52.5707488,46.8473914 50.6715326,47.4438739 C49.884875,44.6677216 48.6655557,42.0030614 47.0922405,39.5781091 C48.1542283,38.5300837 49.2667869,37.6492965 50.5760099,37.1252838 C52.17742,36.4842044 54.0148274,36.40616 55.9646144,36.3225409 C56.0713751,36.3169663 56.1781358,36.3113917 56.2848965,36.3058171 C56.3523243,36.8967251 56.4197521,37.487633 56.447847,38.0841155 Z M84.3067639,38.7809409 C84.4079056,38.7586424 84.5090473,38.7307694 84.598951,38.6973218 C84.6326649,39.4443186 84.6382839,40.2303376 84.610189,41.0498043 C84.4865714,45.3199502 83.626867,48.5922421 81.980505,51.050642 C80.362238,53.4588705 77.2380835,55.6831371 73.9060267,55.2092958 C73.8947887,55.2037212 73.8779318,55.1981466 73.8610748,55.1981466 C74.2431656,53.4198483 74.3555453,51.5189087 74.2263087,49.5510738 C78.2495004,47.7727755 80.660044,45.4816136 81.5759382,42.5716709 C82.7503057,38.8366869 81.1545145,35.1518743 79.4182488,31.6956205 L79.1429187,31.1493094 C79.5025336,31.4391887 79.8621485,31.8517094 80.2386203,32.3924458 C81.2893701,33.892014 82.0198379,35.6368648 82.3457389,37.4318869 C82.5086894,38.3405472 83.3796317,38.9370297 84.3067639,38.7809409 Z M68.0791415,62.4172575 C68.7871333,63.0193146 69.8491211,62.9356956 70.4559712,62.2332956 C71.4280552,61.1016512 72.2034749,59.8027687 72.815944,58.3923941 C73.0182274,58.436991 73.2148918,58.4871624 73.4284131,58.52061 C77.5920794,59.1003687 82.1434555,56.8538037 84.7843775,52.9014102 C86.7903543,49.9078484 87.8354851,46.0613723 87.9815787,41.1501471 C88.0827204,37.8444076 87.7680573,35.0292331 87.0207326,32.5373855 C86.3576926,30.3298427 85.3350378,28.3006873 84.3460968,26.3328524 C83.8516263,25.3461477 83.3515368,24.359443 82.9020182,23.3504398 C81.665842,20.5742875 80.8342325,17.675494 80.2442393,15.4512274 C79.4632007,12.507837 78.1595967,7.57988799 73.8779318,6.20853566 C72.8328009,5.87405948 71.7820512,5.83503726 70.7425393,5.9075071 C69.3658885,4.45253572 67.7195266,3.18152625 65.8427863,2.23941834 C61.2689343,-0.062892687 55.4982389,-0.609203779 49.6039259,0.689678715 C45.5807342,1.57604059 41.8103967,3.22612307 38.5794815,4.91522777 C36.6465514,4.17938018 34.6686695,3.88392622 32.7694533,4.06788812 C28.3978846,4.49713255 24.7567837,7.64120863 24.1106007,11.5545799 C23.8970794,12.8757608 24.009459,14.2526878 24.4533587,15.6574877 C23.9139363,16.3431639 23.4082279,17.0121162 22.9474713,17.647621 C21.3516801,19.8272907 19.7390321,22.2132208 18.7332341,24.8890302 C18.3848572,25.8199889 18.0589562,26.9683571 17.8735297,28.233792 C17.7161982,28.2839635 17.5644857,28.3229857 17.4071542,28.3843063 C15.170799,29.2372206 13.3952004,31.1214364 12.5298771,33.5575379 C11.6701727,35.9936394 11.8612181,38.5691059 13.0692994,40.6149852 C14.6988044,43.3855629 17.6543894,44.8851311 20.6155934,46.09482 C21.1213018,46.3066549 21.6551052,46.5129152 22.2057655,46.7191755 C22.8744245,50.3147944 23.8465085,53.9605848 25.655821,57.2886227 C27.7741775,61.1852702 30.8702371,64.1119368 34.3652444,65.6561018 C34.5562898,66.2079875 34.7922871,66.7431494 35.146283,67.2448637 C36.3936972,68.995289 38.3210083,69.8649271 40.2202245,70.5450286 C42.0857268,71.2084064 44.5524603,71.9777016 47.1259544,72 C47.1652873,72 47.2046202,72 47.2439531,72 C51.9470417,72 56.5377507,69.4356826 58.9651513,65.4386923 C59.9597112,63.799759 60.5665614,62.0214607 61.1565546,60.2989084 C61.7914997,58.4481402 62.3871118,56.6921402 63.4097667,55.2761911 C64.9325111,55.5939434 66.3990656,56.0343371 67.7925733,56.5917974 C68.1802831,56.7478863 68.567993,56.9095497 68.9557028,57.0712132 C69.1692241,57.1659815 69.3827455,57.2551751 69.6018858,57.3443688 C69.1467482,58.3477973 68.5792309,59.2676068 67.893715,60.0592004 C67.2868649,60.7616004 67.3711496,61.820775 68.0791415,62.4172575 L68.0791415,62.4172575 Z" id="Fill-149"></path>
                <path d="M115.209517,228.82037 L117.985208,212.247095 L158.358898,218.996266 L159.74394,210.706828 L119.37025,203.963258 L122.241268,186.835487 L162.614958,193.584658 L164,185.29522 L123.62631,178.55165 L127.349661,156.310192 C132.149644,153.448096 137.532803,143.32714 141.917834,133.323805 C136.89916,132.472457 131.953383,130.713752 127.349661,127.946872 C125.398266,126.776269 123.525375,125.432036 121.781456,123.947779 C119.005765,121.584169 116.588951,118.912505 114.553444,116 C114.962788,129.055865 116.431942,149.286574 121.540335,155.341224 L117.816984,177.582682 L77.448901,170.833512 L76.0582517,179.122949 L116.431942,185.866519 L113.566532,202.99429 L73.1928411,196.24512 L71.8021918,204.534557 L112.175882,211.278127 L109.400191,227.851402 L65.2638969,220.474923 L64.9162346,220.418913 C63.0882036,220.110859 61.3498919,221.348674 61.0470892,223.180192 C60.7386791,225.011709 61.9779271,226.74241 63.8059581,227.050463 L64.209695,227.117675 L63.5872673,230.875927 C63.5704449,230.971143 63.5704449,231.06636 63.5536225,231.167177 C62.8751202,233.222734 62.4882057,235.412714 62.4882057,237.69791 L62.4882057,404.225996 C62.4882057,415.702387 71.8021918,425 83.2918712,425 C94.7759432,425 104.089929,415.702387 104.089929,404.225996 L104.089929,250.708967 L111.884295,251.991589 L111.884295,404.225996 C111.884295,415.702387 121.198281,425 132.68796,425 C144.172032,425 153.486018,415.702387 153.486018,404.225996 L153.486018,244.967971 L153.957044,242.111476 L158.577589,242.878809 C160.411228,243.186862 162.149539,241.954648 162.452342,240.123131 C162.760752,238.291613 161.521504,236.560913 159.687866,236.252859 L159.345811,236.19685 L115.209517,228.82037" id="Fill-150"></path>
                <path d="M172.632134,104.604249 L171.988676,109.639961 C157.681516,107.79391 142.540657,114.788581 142.389585,114.856326 L140.257778,110.255311 C140.929213,109.939168 156.847817,102.554963 172.632134,104.604249 Z M177.018843,117.583062 C185.618806,107.381794 187.940851,93.9400566 184.421413,82 L111,99.0660951 C112.393228,107.664065 116.684816,115.832983 123.779645,121.918742 C139.670273,135.552424 163.506214,133.616046 177.018843,117.583062 L177.018843,117.583062 Z" id="Fill-151"></path>
                <path d="M108.19286,94.8694255 L108.846638,94.7175853 L184.422328,77.1941002 L185.076107,77.04226 C187.797391,76.4067806 189.496097,73.6792805 188.870258,70.9349093 C188.238831,68.1961618 185.528723,66.4865535 182.801851,67.1164092 L182.125721,67.2738731 C178.907119,54.7161253 169.916266,45.110826 158.695861,40.6849651 L159.388754,43.7105219 C159.886073,45.8812745 158.544989,48.0407797 156.388078,48.54129 C154.236755,49.0418004 152.085432,47.6864859 151.588114,45.521357 L149.950873,38.3792433 C146.654041,37.9124753 143.256627,37.8674856 139.831274,38.2948877 L141.993773,47.742723 C142.491092,49.9134757 141.150007,52.0786046 138.993097,52.5734912 C136.836186,53.0740015 134.690451,51.718687 134.193132,49.5535581 L132.030634,40.1057228 C128.761741,41.2304651 125.727537,42.7657383 122.967139,44.6384343 L124.598791,51.7749242 C125.09611,53.9456768 123.755026,56.1108057 121.598115,56.6113161 C119.441205,57.1118264 117.29547,55.7565119 116.798151,53.5857593 L116.105257,50.5602025 C107.941406,59.4850326 104.035498,72.0765227 106.600322,84.7861107 L105.918604,84.9435747 C103.197321,85.5734303 101.504202,88.3121779 102.130041,91.0509254 C102.75588,93.7896729 105.471576,95.4992812 108.19286,94.8694255" id="Fill-152"></path>
            </g>
        </g>
    </g>
</svg>