<?xml version="1.0" encoding="UTF-8"?>
<svg width="512px" height="512px" viewBox="0 0 512 512" version="1.1" xmlns="http://www.w3.org/2000/svg" xmlns:xlink="http://www.w3.org/1999/xlink">
    <!-- Generator: Sketch 60.1 (88133) - https://sketch.com -->
    <title>512Grid</title>
    <desc>Created with Sketch.</desc>
    <g id="Page-1" stroke="none" stroke-width="1" fill="none" fill-rule="evenodd">
        <g id="512Grid">
            <rect id="whitetrans" fill-opacity="0.01" fill="#FFFFFF" x="0" y="0" width="512" height="512"></rect>
            <g id="Hatoff" transform="translate(135.000000, 45.000000)" fill="#126970">
                <path d="M12.3202798,247.879338 C12.9391458,247.960371 13.5521177,248 14.1650897,248 C14.9607745,248 15.7446714,247.92429 16.5108864,247.793573 C14.9607745,243.118498 14.1061501,238.122249 14.1061501,232.923714 C14.1061501,215.042028 24.055157,199.492556 38.6957571,191.540671 C46.0691028,169.449407 57.4267664,145.681883 73.6705241,130.7026 L71.2657878,142.496161 C70.8708924,144.417886 72.1086243,146.292884 74.0182678,146.684445 C74.2599202,146.734721 74.4956787,146.757197 74.7314371,146.757197 C74.8611043,146.757197 74.9789835,146.73827 75.1027567,146.724666 C76.5939289,146.564966 77.8788125,145.471315 78.1911925,143.921041 L88.9299901,91.2631667 C89.0242935,90.8053596 89.0183996,90.3505099 88.9417781,89.9169535 C88.6883377,88.533477 87.6333186,87.3741721 86.1775102,87.0748822 C84.2501848,86.6744488 82.3935869,87.9207016 82.0045855,89.8406524 L81.4564471,92.508828 C15.5442767,118.618029 0.726857726,227.279792 0.119779701,231.971427 C-0.888087699,239.746459 4.57561452,246.868495 12.3202798,247.879338" id="Fill-65"></path>
                <path d="M105.787216,96.8181763 C108.378316,110.240737 113.649659,133.060635 120.382954,138.781346 L120.382954,162.687425 L76.999855,162.687425 L76.999855,171.595416 L120.382954,171.595416 L120.382954,190.005264 L78.9788375,190.005264 C79.1571242,190.942385 79.2046673,191.920482 79.0917524,192.916396 L78.4261487,198.913255 L120.382954,198.913255 L120.382954,216.729237 L76.4471662,216.729237 L70.8667922,266.899636 L60.0745035,399.182709 C59.0820408,411.310048 68.1211769,421.937875 80.250616,422.926068 C92.3859979,423.913667 103.023772,414.891654 104.016234,402.763127 L117.346137,239.387009 L129.653863,239.387009 L142.989709,402.763127 C143.976228,414.891654 154.619945,423.913667 166.749384,422.926068 C178.878823,421.937875 187.917959,411.310048 186.925496,399.182709 L172.62096,223.85563 L174.421655,223.85563 C176.388752,223.85563 177.98739,222.260506 177.98739,220.292434 C177.98739,218.324955 176.388752,216.729237 174.421655,216.729237 L126.622989,216.729237 L126.622989,198.913255 L170.006088,198.913255 L170.006088,190.005264 L126.622989,190.005264 L126.622989,171.595416 L170.006088,171.595416 L170.006088,162.687425 L126.622989,162.687425 L126.622989,138.781346 C133.356284,133.060635 138.627627,110.240737 141.218727,96.8181763 C141.741702,94.0953004 143.162052,91.7483417 145.105378,90 L101.900565,90 C103.84389,91.7483417 105.258298,94.0953004 105.787216,96.8181763" id="Fill-66"></path>
                <path d="M124,80 C146.091852,80 164,62.0918519 164,40 C164,17.9075556 146.091852,0 124,0 C101.908148,0 84,17.9075556 84,40 C84,62.0918519 101.908148,80 124,80" id="Fill-67"></path>
                <path d="M159.069666,90.2808148 L169.749903,143.160916 C170.066615,144.717733 171.345194,145.815999 172.829049,145.976373 C172.94635,145.990034 173.069516,146.009041 173.198546,146.009041 C173.427283,146.009041 173.66775,145.98647 173.908216,145.935982 C175.415531,145.624144 176.482969,144.372631 176.676515,142.907287 C182.62953,161.775006 186.823033,193.476813 183.855323,244.911171 C183.39785,252.771285 189.32154,259.515908 197.086852,259.975647 C197.362509,259.991684 197.644031,260 197.919688,260 C205.315503,260 211.520714,254.152878 211.960592,246.576686 C216.306587,171.294695 207.010499,122.17804 184.324526,100.592277 C177.767412,94.3543175 171.315869,91.5548981 166.260205,90.3348668 L165.961088,88.8522971 C165.573995,86.9242437 163.720643,85.6739195 161.80864,86.0748548 C160.359975,86.3754078 159.310133,87.5390112 159.057936,88.9271383 C158.981691,89.3631184 158.975826,89.8204816 159.069666,90.2808148" id="Fill-68"></path>
                <path d="M65.623054,276.224734 L65.7009666,275.513344 L74.8826694,193.672596 L74.9665753,192.964172 C75.2962056,190.013593 73.1506119,187.36086 70.1719524,187.033348 C67.1932929,186.705835 64.5083041,188.827547 64.1786738,191.778126 L64.0947679,192.513842 C50.3222137,191.353309 37.4726244,197.011799 29.0400815,206.712577 L32.3303914,207.073909 C34.6857499,207.332597 36.387841,209.432949 36.1241368,211.765882 C35.8664258,214.098222 33.7388119,215.78147 31.3834534,215.521596 L23.6221576,214.668402 C21.9859926,217.811217 20.7333974,221.197886 19.9482779,224.782724 L30.2207574,225.911812 C32.5761158,226.170499 34.2722137,228.271444 34.0145027,230.603784 C33.7507984,232.939684 31.6291778,234.619372 29.2678261,234.360092 L19.0013398,233.231004 C18.9713735,236.898314 19.4448425,240.474845 20.3438342,243.895927 L28.10513,244.749714 C30.4604885,245.008402 32.1625796,247.108753 31.8988754,249.444653 C31.6351711,251.777587 29.5135505,253.457275 27.158192,253.197994 L23.8678821,252.836662 C29.9450665,264.130504 41.2244168,272.440541 54.9190584,274.300598 L54.8351525,275.038688 C54.5055222,277.985707 56.6571092,280.639033 59.6297754,280.966546 C62.6144281,281.294652 65.2934236,279.172347 65.623054,276.224734" id="Fill-69"></path>
            </g>
        </g>
    </g>
</svg>