<?xml version="1.0" encoding="UTF-8"?>
<svg width="512px" height="512px" viewBox="0 0 512 512" version="1.1" xmlns="http://www.w3.org/2000/svg" xmlns:xlink="http://www.w3.org/1999/xlink">
    <!-- Generator: Sketch 60.1 (88133) - https://sketch.com -->
    <title>512Grid</title>
    <desc>Created with Sketch.</desc>
    <g id="Page-1" stroke="none" stroke-width="1" fill="none" fill-rule="evenodd">
        <g id="512Grid">
            <rect id="whitetrans" fill-opacity="0.01" fill="#FFFFFF" x="0" y="0" width="512" height="512"></rect>
            <g id="Pointing" transform="translate(156.000000, 84.000000)" fill="#126970">
                <path d="M271.50899,32.7509956 C270.33032,30.3239169 267.40198,29.3143777 264.971301,30.4913016 L213.99513,55.1857814 C213.947983,55.2067045 213.906075,55.2433199 213.858928,55.2694738 L134.43752,93.7418098 L134.217502,92.6695013 C133.871758,90.9695001 132.216382,89.865807 130.50862,90.2214995 C129.214702,90.488269 128.277004,91.5082697 128.051747,92.7322706 C127.983647,93.1193478 127.978408,93.5168866 128.062225,93.9248869 L137.606833,140.49446 C137.884475,141.864922 139.026475,142.832615 140.351824,142.973846 C140.461834,142.984308 140.566604,143 140.681852,143 C140.891393,143 141.100935,142.979077 141.315715,142.937231 C143.012999,142.592 144.113092,140.933845 143.76211,139.233843 L140.147522,121.595677 L140.147522,118.880905 L250.324361,65.5113275 C253.917995,63.76948 251.812104,55.5623971 248.187039,49.479008 L269.240705,39.2737697 C271.671385,38.0968457 272.687661,35.1780743 271.50899,32.7509956" id="Fill-96"></path>
                <path d="M124.005788,52.4716434 C124.005788,52.4716434 115.399643,86.9704256 87.5769632,65.0455133 C87.5769632,65.0455133 111.480585,64.7657353 124.005788,52.4716434 Z M63,57.3462374 C67.6818273,76.823092 86.9194032,88.729799 105.957081,83.9412905 C125.005279,79.152782 136.646722,59.482235 131.964895,40.0053803 L131.964895,40 L63,57.340857 L63,57.3462374 L63,57.3462374 Z" id="Fill-97"></path>
                <path d="M94.3281166,206.286671 L56.6349788,206.286671 C60.895214,202.220343 61.816346,195.629 58.6447212,190.505323 L94.3281166,190.505323 L94.3281166,206.286671 Z M99.8235061,206.286671 L99.8235061,190.505323 L138.029547,190.505323 L138.029547,182.614649 L99.8235061,182.614649 L99.8235061,166.307256 L138.029547,166.307256 L138.029547,158.416582 L99.8235061,158.416582 L99.8235061,137.238014 C105.753293,132.172201 110.395589,111.956294 112.677484,100.067679 C113.143283,97.6583933 114.388905,95.5752554 116.100326,94.0286833 L78.0512965,94.0286833 C79.7627178,95.5752554 81.0135731,97.6583933 81.474139,100.067679 C83.7560341,111.956294 88.3983297,132.172201 94.3281166,137.238014 L94.3281166,158.416582 L56.1220757,158.416582 L56.1220757,166.307256 L94.3281166,166.307256 L94.3281166,182.614649 L56.1220757,182.614649 L56.1220757,186.733581 L52.5631569,181.473131 L28.3101715,145.686295 C34.4964099,139.016045 43.8647404,130.509899 54.0338278,125.449347 L50.9982793,140.35746 C50.6528548,142.067106 51.746699,143.734668 53.4424192,144.081858 C53.6570011,144.123942 53.8663492,144.144983 54.0756974,144.144983 C54.1908389,144.144983 54.295513,144.129202 54.4054208,144.118681 C55.7295479,143.976649 56.8704955,143.003466 57.1478818,141.625228 L66.6836909,94.7914485 C66.7674302,94.3863939 66.7621965,93.9813393 66.6941583,93.592066 C66.469109,92.3663813 65.532276,91.3353333 64.239551,91.0670504 C62.5281297,90.7093398 60.8795129,91.8192946 60.5340884,93.5289406 L60.010718,96.0802585 C59.5292172,96.4064064 59.0791186,96.7693774 58.6499549,97.1586506 C28.7812048,103.760514 5.34467729,133.545178 2.71735777,136.996033 C2.71212406,137.001293 2.70689036,137.006554 2.70165665,137.011814 C2.60744998,137.138065 2.53941182,137.227493 2.50277589,137.280097 C2.43997144,137.364264 2.3876344,137.453692 2.32482995,137.54312 C2.16781882,137.764058 2.0160414,137.984997 1.87473138,138.211197 C1.78575841,138.358489 1.70201914,138.511042 1.61827988,138.663595 C1.50313838,138.863492 1.39323059,139.063389 1.28855651,139.273807 C1.19958354,139.457923 1.11584427,139.647299 1.032105,139.836675 C0.958833144,140.015531 0.88032758,140.194386 0.812289425,140.373241 C0.733783862,140.58892 0.660512003,140.804598 0.592473848,141.020277 C0.540136805,141.188611 0.487799763,141.356945 0.440696425,141.52528 C0.383125678,141.746219 0.330788636,141.972418 0.283685298,142.193357 C0.241815664,142.372212 0.205179734,142.551067 0.179011213,142.729923 C0.142375284,142.93508 0.116206762,143.145498 0.0900382413,143.350656 C0.0638697201,143.561074 0.0429349032,143.766231 0.0272337905,143.976649 C0.016766382,144.150244 0.0115326778,144.323839 0.00629897357,144.497434 C0.000255612476,144.744675 -0.00416843489,144.991916 0.00629897357,145.244417 C0.0115326778,145.375929 0.016766382,145.5127 0.0272337905,145.644211 C0.0429349032,145.928276 0.0691034244,146.21234 0.105739354,146.496404 C0.121440467,146.596353 0.137141579,146.696301 0.152842692,146.79625 C0.19994603,147.106616 0.257516777,147.406462 0.325554932,147.711568 C0.346489749,147.795735 0.367424566,147.879902 0.388359382,147.958809 C0.466864946,148.269176 0.555837918,148.579542 0.655278298,148.884648 C0.686680524,148.968815 0.712849045,149.047722 0.74425127,149.131889 C0.848925355,149.426474 0.964066848,149.72106 1.09490945,150.010384 C1.13677909,150.105072 1.18388243,150.199761 1.23098576,150.294449 C1.36182837,150.562732 1.49267098,150.831014 1.6444484,151.094037 C1.70201914,151.204506 1.7700573,151.304455 1.83286175,151.409664 C1.94276954,151.59378 2.04744362,151.777895 2.16781882,151.962011 L37.6052302,204.256137 C40.0336689,207.843763 43.9798819,209.774348 47.9941331,209.774348 C48.3709598,209.774348 48.7425528,209.727004 49.1193795,209.695442 C49.2502221,211.31566 50.5848167,212.59921 52.2334335,212.59921 L53.8192459,212.59921 L41.2164861,367.903453 C40.3476912,378.645291 48.3029216,388.056234 58.984912,388.934729 C69.672136,389.807964 79.0404666,381.817341 79.9144952,371.075504 L91.6589275,226.355284 L102.492695,226.355284 L114.237128,371.075504 C115.105922,381.817341 124.479487,389.807964 135.161477,388.934729 C145.843467,388.056234 153.803932,378.645291 152.935137,367.903453 L140.332377,212.59921 L141.918189,212.59921 C143.650545,212.59921 145.058412,211.184149 145.058412,209.44294 C145.058412,207.696471 143.650545,206.286671 141.918189,206.286671 L99.8235061,206.286671 L99.8235061,206.286671 Z" id="Fill-98"></path>
                <path d="M135.862767,29.7340693 C135.241761,27.2170403 132.684678,25.6788559 130.14847,26.2951655 L129.517027,26.4505377 C126.338939,14.9271026 117.817069,6.20554538 107.275627,2.28498791 L107.964473,5.06097048 C108.460234,7.04973411 107.233878,9.0643931 105.22996,9.55122587 C103.226043,10.0380586 101.196032,8.82097672 100.70549,6.83221309 L99.082525,0.280687062 C95.9931517,-0.102564262 92.8255003,-0.102564262 89.6265377,0.337656854 L91.7765745,9.01260238 C92.2671169,11.001366 91.0459795,13.0108459 89.0420617,13.5028578 C87.0329253,13.9896905 85.0081333,12.7726086 84.5175909,10.783845 L82.3675541,2.11407854 C79.3303661,3.1913255 76.5175752,4.64664472 73.9657111,6.40752919 L75.5886758,12.9590552 C76.0792182,14.9478188 74.8580808,16.9624778 72.8489444,17.4493106 C70.8450266,17.9413224 68.8202346,16.7190615 68.3296922,14.7302978 L67.6408455,11.9543153 C60.1365907,20.282263 56.6610457,31.9299958 59.2285654,43.5984449 L58.5971225,43.7538171 C56.060914,44.3753057 54.5162274,46.913051 55.1372332,49.4300799 C55.7634575,51.9471089 58.3205401,53.4801142 60.8515301,52.8638046 L61.4620988,52.7136116 L131.792309,35.5553462 L132.402877,35.4051531 C134.939086,34.7888435 136.483773,32.2510983 135.862767,29.7340693" id="Fill-99"></path>
            </g>
        </g>
    </g>
</svg>