<?xml version="1.0" encoding="UTF-8"?>
<svg width="512px" height="512px" viewBox="0 0 512 512" version="1.1" xmlns="http://www.w3.org/2000/svg" xmlns:xlink="http://www.w3.org/1999/xlink">
    <!-- Generator: Sketch 60.1 (88133) - https://sketch.com -->
    <title>512Grid</title>
    <desc>Created with Sketch.</desc>
    <g id="Page-1" stroke="none" stroke-width="1" fill="none" fill-rule="evenodd">
        <g id="512Grid">
            <rect id="whitetrans" fill-opacity="0.01" fill="#FFFFFF" x="0" y="0" width="512" height="512"></rect>
            <g id="Pointup" transform="translate(150.000000, 37.000000)" fill="#126970">
                <path d="M14.2280452,173.345313 C15.4262711,179.893016 21.0477984,184.73504 27.7542864,184.989946 C27.9390875,184.997043 28.1238885,185 28.3086895,185 C34.7826859,185 40.4876718,180.666604 42.1389582,174.406335 C46.1091991,159.396475 52.1420577,150.000452 57.9543473,144.12402 L55.0631058,158.129635 C54.6696585,160.051186 55.915575,161.926014 57.8530048,162.317539 C58.0914578,162.367811 58.335872,162.390285 58.5743249,162.390285 C58.6995127,162.390285 58.8247005,162.371359 58.9498882,162.357757 C60.4521416,162.198071 61.7517099,161.10452 62.0736213,159.553795 L72.92919,106.901293 C73.0245712,106.442936 73.0186098,105.988719 72.9411126,105.555202 C72.6847758,104.171851 71.617699,103.012652 70.1452523,102.713389 C68.1958998,102.312992 66.3180831,103.559132 65.9246358,105.478908 L65.5133045,107.483259 C58.115303,109.522504 45.9720887,114.592228 34.8303765,127.075506 L29.0538548,95.5677515 C29.0717388,95.3294058 29.0717388,95.0886945 29.0478935,94.8432517 L25.733398,65.7284162 C25.4710998,63.4330828 23.3667529,61.7670291 21.0477984,62.0266661 C18.7407665,62.2857117 17.0596735,64.3758196 17.3219717,66.6711531 L19.6409262,87.0860773 C11.0089309,86.9784373 -0.883907891,90.9132102 0.0520197761,95.9929885 L14.2280452,173.345313" id="Fill-49"></path>
                <path d="M89.1453581,111.818176 C91.7567717,125.240737 97.0694411,148.060635 103.855523,153.781346 L103.855523,177.687425 L60.1323138,177.687425 L60.1323138,186.595416 L103.855523,186.595416 L103.855523,205.005264 L60.1323138,205.005264 L60.1323138,213.913255 L103.855523,213.913255 L103.855523,231.729237 L55.6821296,231.729237 C53.6996115,231.729237 52.0884412,233.324955 52.0884412,235.292434 C52.0884412,237.260506 53.6996115,238.85563 55.6821296,238.85563 L57.4969423,238.85563 L43.0742728,414.182709 C42.080019,426.310048 51.1840296,436.937875 63.4145492,437.926068 C75.6390792,438.913667 86.3662391,429.891654 87.3604929,417.763127 L100.800888,254.387009 L113.199112,254.387009 L126.639507,417.763127 C127.633761,429.891654 138.360921,438.913667 150.585451,437.926068 C162.81597,436.937875 171.919981,426.310048 170.925727,414.182709 L156.503058,238.85563 L158.31787,238.85563 C160.300388,238.85563 161.911559,237.260506 161.911559,235.292434 C161.911559,233.324955 160.300388,231.729237 158.31787,231.729237 L110.144477,231.729237 L110.144477,213.913255 L153.867686,213.913255 L153.867686,205.005264 L110.144477,205.005264 L110.144477,186.595416 L153.867686,186.595416 L153.867686,177.687425 L110.144477,177.687425 L110.144477,153.781346 C116.930559,148.060635 122.243228,125.240737 124.854642,111.818176 C125.387706,109.0953 126.813202,106.748342 128.771762,105 L85.2282378,105 C87.1867979,106.748342 88.6182838,109.0953 89.1453581,111.818176" id="Fill-50"></path>
                <path d="M67,55.0047402 C67,77.093974 85.132,95 107.5,95 C129.868,95 148,77.093974 148,55.0047402 C148,55.0029626 148,55.0017776 148,55 L67,55 C67,55.0017776 67,55.0029626 67,55.0047402" id="Fill-51"></path>
                <path d="M142.070954,106.2808 L152.954542,159.160127 C153.271134,160.717532 154.573341,161.815794 156.084619,161.976168 C156.210061,161.989829 156.335503,162.008837 156.460945,162.008837 C156.699882,162.008837 156.938819,161.986266 157.18373,161.935778 C158.718901,161.62394 159.812039,160.371838 160.003189,158.905905 C166.066219,177.772965 170.343195,209.475852 167.314666,260.911222 C166.854712,268.771309 172.887876,275.515909 180.790723,275.975647 C181.077447,275.991684 181.358198,276 181.644923,276 C189.177417,276 195.491332,270.152898 195.939339,262.576732 C200.371624,187.294998 190.897765,138.178511 167.798514,116.592821 C161.12022,110.354883 154.543474,107.554879 149.400352,106.334852 L149.095707,104.852287 C148.695487,102.924241 146.807883,101.673921 144.860545,102.074855 C143.385108,102.375407 142.315864,103.539006 142.059007,104.927722 C141.981352,105.363701 141.975379,105.820469 142.070954,106.2808" id="Fill-52"></path>
                <path d="M64.3970496,50 L148.596987,50 C151.584746,50 154,47.6276153 154,44.694954 C154,41.7658091 151.584746,39.3875637 148.596987,39.3875637 L147.857502,39.3875637 C147.499686,25.8741136 140.438795,14.0057434 129.823603,6.86749106 L129.823603,10.1043193 C129.823603,12.4222001 127.909291,14.3040497 125.547709,14.3040497 C123.19209,14.3040497 121.277778,12.4222001 121.277778,10.1043193 L121.277778,2.4667409 C117.956058,1.21783977 114.437539,0.36921995 110.769931,0 L110.769931,10.1043193 C110.769931,12.4222001 108.855618,14.3040497 106.5,14.3040497 C104.138418,14.3040497 102.224105,12.4222001 102.224105,10.1043193 L102.224105,0.000586063412 C98.5564972,0.370392076 95.0379787,1.2190119 91.7162586,2.46791303 L91.7162586,10.1043193 C91.7162586,12.4222001 89.8079096,14.3040497 87.4463277,14.3040497 C85.0847458,14.3040497 83.1763967,12.4222001 83.1763967,10.1043193 L83.1763967,6.86983532 C72.5612053,14.0086737 65.5003139,25.8752857 65.1424984,39.3875637 L64.3970496,39.3875637 C61.4152542,39.3875637 59,41.7658091 59,44.694954 C59,47.6276153 61.4152542,50 64.3970496,50" id="Fill-53"></path>
            </g>
        </g>
    </g>
</svg>