<?xml version="1.0" encoding="UTF-8"?>
<svg width="512px" height="512px" viewBox="0 0 512 512" version="1.1" xmlns="http://www.w3.org/2000/svg" xmlns:xlink="http://www.w3.org/1999/xlink">
    <!-- Generator: Sketch 60.1 (88133) - https://sketch.com -->
    <title>512Grid</title>
    <desc>Created with Sketch.</desc>
    <g id="Page-1" stroke="none" stroke-width="1" fill="none" fill-rule="evenodd">
        <g id="512Grid">
            <rect id="whitetrans" fill-opacity="0.01" fill="#FFFFFF" x="0" y="0" width="512" height="512"></rect>
            <g id="Sitting" transform="translate(152.000000, 109.000000)" fill="#126970">
                <path d="M146.289911,294.050228 L153,245 L55,245 L61.7100888,294.050228 C62.7145581,301.436012 60.5654609,308.530559 56.3023062,314 L151.697694,314 C147.434539,308.530559 145.285442,301.436012 146.289911,294.050228" id="Fill-105"></path>
                <path d="M1.19488414,203.855282 L14.288112,300.399204 C15.7545536,311.182868 24.9256323,319 35.4525875,319 C36.4127576,319 37.3903853,318.935637 38.3680129,318.801061 C50.0704491,317.197847 58.2639001,306.355672 56.6694359,294.589015 L47.8009562,229.220003 L80.2256077,237.072242 C89.8447658,239.395147 99.4872008,234.778593 103.99709,226.434857 C108.50698,234.778593 118.149415,239.400999 127.774392,237.072242 L160.199044,229.220003 L151.330564,294.589015 C149.7361,306.355672 157.929551,317.197847 169.631987,318.801061 C170.609615,318.935637 171.587242,319 172.547412,319 C183.074368,319 192.245446,311.182868 193.711888,300.399204 L206.805116,203.855282 C207.672179,197.465829 205.612177,191.076377 201.300141,186.383757 C196.476014,189.941254 190.685898,192.211499 185.308945,194.317912 C173.321368,199.010532 167.798935,201.936105 166.80385,206.862771 C165.127917,215.177251 157.795709,221.209783 149.369489,221.209783 C148.176551,221.209783 146.977793,221.086909 145.813951,220.847012 C141.152762,219.893275 137.137505,217.172492 134.507221,213.187861 C131.882756,209.20323 130.957501,204.422843 131.906033,199.736074 C132.051513,199.010532 132.214451,198.296692 132.394847,197.600406 L107.057996,197.600406 L107.057996,180.046965 L141.583383,180.046965 C144.015814,177.250117 146.715929,174.821891 149.538247,172.715478 L149.538247,171.270245 L107.057996,171.270245 L107.057996,153.13169 L149.538247,153.13169 L149.538247,144.35497 L107.057996,144.35497 L107.057996,120.798252 C111.556247,116.948198 115.391108,105.251755 118.178511,94 C116.85755,94.5324544 115.507493,95.0122484 114.110882,95.4276798 C106.033815,97.8207989 97.8112676,97.7330317 90.2346531,95.6266188 C92.9813213,106.363473 96.6590636,117.135435 100.947823,120.798252 L100.947823,144.35497 L58.4675726,144.35497 L58.4675726,153.13169 L100.947823,153.13169 L100.947823,171.270245 L58.4675726,171.270245 L58.4675726,172.715478 C61.2840714,174.821891 63.9841859,177.250117 66.4166167,180.046965 L100.947823,180.046965 L100.947823,197.600406 L75.6051531,197.600406 C75.7855487,198.296692 75.9484866,199.010532 76.0939669,199.736074 C77.0424986,204.422843 76.1172438,209.20323 73.492779,213.187861 C70.862495,217.172492 66.8530576,219.893275 62.1918685,220.847012 C61.0222068,221.086909 59.8234491,221.209783 58.6305105,221.209783 C50.204291,221.209783 42.8720833,215.177251 41.1961502,206.862771 C40.2010649,201.936105 34.6786323,199.010532 22.6910547,194.317912 C17.3141025,192.211499 11.5239861,189.941254 6.69985907,186.383757 C2.38782268,191.076377 0.327821487,197.465829 1.19488414,203.855282" id="Fill-106"></path>
                <path d="M139.115815,77.4146013 L149.073692,125.819028 C149.38963,127.343851 150.65923,128.42054 152.139455,128.577678 C152.26232,128.589318 152.385184,128.606778 152.508049,128.606778 C152.742076,128.606778 152.976104,128.589318 153.215982,128.536939 C155.117457,128.152823 156.340252,126.307902 155.948256,124.416423 L155.73178,123.339734 C158.920407,127.43697 162.261152,132.1744 165.637002,137.633502 C166.672574,139.315464 167.713997,141.067266 168.75542,142.883087 C172.137121,148.778684 175.51297,155.407594 178.765955,162.839655 C177.379341,163.410009 175.893265,163.980363 174.606113,164.480877 C162.003722,169.357986 140.923678,177.523359 136.28408,200.250218 C134.739497,207.804498 139.648227,215.178359 147.248276,216.714823 C148.190238,216.906881 149.132199,217 150.056609,217 C156.597682,217 162.448374,212.431348 163.799884,205.808259 C165.280109,198.568256 173.073231,195.053013 184.792167,190.513461 C193.948501,186.969119 203.41492,183.302558 207.38754,174.182714 C208.885317,170.748951 210.102261,165.249109 207.393391,158.53872 C204.157958,150.518846 200.752855,143.214823 197.277544,136.568454 C195.112788,132.424658 192.918779,128.531119 190.718919,124.887838 C172.72804,95.0839338 154.450478,81.6573363 148.658293,77.9034761 C147.850898,76.9548262 146.914787,76.122575 145.873364,75.4300024 L145.294145,72.6073323 C145.030864,71.3327659 144.106455,70.378296 142.948018,70 C141.912445,72.5840526 140.625293,75.0691662 139.115815,77.4146013" id="Fill-107"></path>
                <path d="M1.6124598,174.876786 C5.58507971,184.06179 15.0514995,187.754549 24.2078326,191.324215 C35.9267688,195.896202 43.7198906,199.436561 45.194265,206.728294 C46.5516255,213.398706 52.4023176,218 58.9433913,218 C59.8678007,218 60.8097621,217.906216 61.7517235,217.712785 C69.3517725,216.165344 74.2605032,208.738796 72.7159205,201.130541 C68.0763217,178.241299 46.9962781,170.017585 34.3997381,165.10563 C33.1067352,164.601539 31.6206594,164.02711 30.2340454,163.45268 C33.4870302,155.961656 36.8628795,149.297106 40.2504302,143.353523 C41.964683,140.334839 43.6847864,137.48614 45.3931885,134.842594 C48.0786562,130.675052 50.7173183,126.994016 53.26822,123.69398 L53.0458937,124.754915 C52.6597481,126.65991 53.8825427,128.518012 55.7840176,128.904872 C56.0180453,128.957626 56.2579237,128.975211 56.4919514,128.975211 C56.6148159,128.975211 56.7376804,128.957626 56.860545,128.945903 C58.3407701,128.787642 59.6103702,127.70326 59.9263076,126.167542 L68.9129706,82.159238 C66.8067215,79.6856759 64.9520521,76.9600684 63.4133201,74 L63.1266362,75.4184882 C62.0910637,76.1160093 61.1549529,76.9542069 60.3475574,77.8979118 C54.9298166,81.4382709 38.5420281,93.5305898 21.6978857,119.719868 C18.3688419,124.907315 15.0163953,130.657467 11.7283064,136.993772 C8.25299529,143.693491 4.84204182,151.043839 1.60660911,159.121016 C-1.10226132,165.87935 0.114682632,171.418488 1.6124598,174.876786" id="Fill-108"></path>
                <path d="M126.424608,64.3369991 L125.958917,69.5110048 C125.772641,69.4936811 106.621109,68.0558157 94.0008905,82.6365796 L90.030877,79.2526875 C104.438184,62.593082 125.533974,64.2561553 126.424608,64.3369991 Z M113.792747,91.4023617 C134.614944,85.32175 146.519163,63.655601 140.389509,43 C140.389509,43 140.389509,43 140.383688,43 L65,65.0183972 C65,65.0241717 65,65.0241717 65.0058211,65.0241717 C71.1354754,85.6739982 92.982192,97.4829733 113.792747,91.4023617 L113.792747,91.4023617 Z" id="Fill-109"></path>
                <path d="M61.8020735,61.7794394 L62.4820045,61.5793115 L140.515818,38.5057396 L141.189888,38.3056117 C144.003396,37.4697833 145.60944,34.5149535 144.782972,31.6896181 C143.956504,28.8642828 141.008182,27.2456011 138.194674,28.0814295 L137.491297,28.2874435 C133.341373,15.3674205 123.329974,5.90254714 111.302228,1.98239436 L112.216618,5.10203546 C112.867242,7.33875926 111.601163,9.68143314 109.373803,10.3406781 C107.152304,10.999923 104.813576,9.71674983 104.162952,7.48591214 L102.000068,0.128268053 C98.5183516,-0.148379365 94.9604364,0.0164318625 91.3966597,0.681562888 L94.2511979,10.4171975 C94.9076831,12.6480352 93.6357431,14.9965952 91.4142441,15.649954 C89.1868837,16.3091989 86.8540167,15.0319119 86.1975316,12.7951881 L83.3429933,3.05955346 C79.9902297,4.44279055 76.9129555,6.23805571 74.1346164,8.36882943 L76.2916392,15.7264735 C76.9481243,17.9573112 75.6761843,20.3058712 73.4488239,20.9651161 C71.2214635,21.624361 68.8885965,20.3411879 68.2379728,18.1103502 L67.3235827,14.9907091 C59.3285311,24.8322939 56.0226593,38.2290922 59.5102368,51.3492432 L58.8068598,51.5552572 C55.9933519,52.3851994 54.3873078,55.3518015 55.2196373,58.1771369 C56.0461052,61.0024722 58.994427,62.6152678 61.8020735,61.7794394" id="Fill-110"></path>
            </g>
        </g>
    </g>
</svg>