<?xml version="1.0" encoding="UTF-8"?>
<svg width="512px" height="512px" viewBox="0 0 512 512" version="1.1" xmlns="http://www.w3.org/2000/svg" xmlns:xlink="http://www.w3.org/1999/xlink">
    <!-- Generator: Sketch 60.1 (88133) - https://sketch.com -->
    <title>SmileyIcon</title>
    <desc>Created with Sketch.</desc>
    <defs>
        <linearGradient x1="50%" y1="0.105574324%" x2="50%" y2="100%" id="linearGradient-1">
            <stop stop-color="#126970" offset="0%"></stop>
            <stop stop-color="#093A3E" offset="100%"></stop>
        </linearGradient>
    </defs>
    <g id="SmileyIcon" stroke="none" stroke-width="1" fill="none" fill-rule="evenodd">
        <path d="M146.141456,-5.90428975e-15 L365.858544,5.90428975e-15 C416.675112,-3.43056238e-15 435.102427,5.29105984 453.680205,15.2265641 C472.257983,25.1620684 486.837932,39.7420171 496.773436,58.3197949 C506.70894,76.8975727 512,95.3248882 512,146.141456 L512,365.858544 C512,416.675112 506.70894,435.102427 496.773436,453.680205 C486.837932,472.257983 472.257983,486.837932 453.680205,496.773436 C435.102427,506.70894 416.675112,512 365.858544,512 L146.141456,512 C95.3248882,512 76.8975727,506.70894 58.3197949,496.773436 C39.7420171,486.837932 25.1620684,472.257983 15.2265641,453.680205 C5.29105984,435.102427 2.28704159e-15,416.675112 -3.93619317e-15,365.858544 L3.93619317e-15,146.141456 C-2.28704159e-15,95.3248882 5.29105984,76.8975727 15.2265641,58.3197949 C25.1620684,39.7420171 39.7420171,25.1620684 58.3197949,15.2265641 C76.8975727,5.29105984 95.3248882,3.43056238e-15 146.141456,-5.90428975e-15 Z" id="darkGreen" fill="url(#linearGradient-1)"></path>
        <g id="SmileyLight" transform="translate(35.000000, 40.000000)" fill-rule="nonzero">
            <path d="M0.154426477,207.940648 C4.77065318,88.7302714 107.309816,-4.29183725 229.296062,0.152872379 C351.282308,4.60718181 446.455153,104.848344 441.838926,224.05872 C437.320917,343.269096 334.781753,436.300804 212.795507,431.846495 C90.8092615,427.392185 -4.36358263,327.151024 0.154426477,207.940648" id="head" fill="#EDF6F5"></path>
            <path d="M384,285.118463 C280.179626,314.205614 148,248 148,248 C238.86736,441.94948 384,285.118463 384,285.118463" id="smile" fill="#126970"></path>
        </g>
    </g>
</svg>