<?xml version="1.0" encoding="UTF-8"?>
<svg width="512px" height="512px" viewBox="0 0 512 512" version="1.1" xmlns="http://www.w3.org/2000/svg" xmlns:xlink="http://www.w3.org/1999/xlink">
    <!-- Generator: Sketch 60.1 (88133) - https://sketch.com -->
    <title>StarIcon</title>
    <desc>Created with Sketch.</desc>
    <g id="StarIcon" stroke="none" stroke-width="1" fill="none" fill-rule="evenodd">
        <path d="M146.141456,-5.90428975e-15 L365.858544,5.90428975e-15 C416.675112,-3.43056238e-15 435.102427,5.29105984 453.680205,15.2265641 C472.257983,25.1620684 486.837932,39.7420171 496.773436,58.3197949 C506.70894,76.8975727 512,95.3248882 512,146.141456 L512,365.858544 C512,416.675112 506.70894,435.102427 496.773436,453.680205 C486.837932,472.257983 472.257983,486.837932 453.680205,496.773436 C435.102427,506.70894 416.675112,512 365.858544,512 L146.141456,512 C95.3248882,512 76.8975727,506.70894 58.3197949,496.773436 C39.7420171,486.837932 25.1620684,472.257983 15.2265641,453.680205 C5.29105984,435.102427 2.28704159e-15,416.675112 -3.93619317e-15,365.858544 L3.93619317e-15,146.141456 C-2.28704159e-15,95.3248882 5.29105984,76.8975727 15.2265641,58.3197949 C25.1620684,39.7420171 39.7420171,25.1620684 58.3197949,15.2265641 C76.8975727,5.29105984 95.3248882,3.43056238e-15 146.141456,-5.90428975e-15 Z" id="lightGreen" fill="#EDF6F5"></path>
        <path d="M463,185.753684 L314.167,172.929474 L256,36 L197.833,173.136316 L49,185.753684 L162.022,283.59 L128.074,429 L256,351.847895 L383.926,429 L350.185,283.59 L463,185.753684 Z M259.897288,317.15544 L182.658176,364.790155 L203.200493,274.976684 L135,214.541451 L224.975349,206.567358 L259.897288,122 L295.024651,206.777202 L385,214.751295 L316.799507,275.186528 L337.341824,365 L259.897288,317.15544 Z" id="Shape" fill="#EE199C" fill-rule="nonzero"></path>
    </g>
</svg>