<?xml version="1.0" encoding="UTF-8"?>
<svg width="512px" height="512px" viewBox="0 0 512 512" version="1.1" xmlns="http://www.w3.org/2000/svg" xmlns:xlink="http://www.w3.org/1999/xlink">
    <!-- Generator: Sketch 60.1 (88133) - https://sketch.com -->
    <title>512Grid</title>
    <desc>Created with Sketch.</desc>
    <g id="Page-1" stroke="none" stroke-width="1" fill="none" fill-rule="evenodd">
        <g id="512Grid">
            <rect id="whitetrans" fill-opacity="0.01" fill="#FFFFFF" x="0" y="0" width="512" height="512"></rect>
            <g id="Thumbsup" transform="translate(134.000000, 38.000000)" fill="#126970">
                <path d="M3.87462457,218.229327 C7.52163282,218.874396 15.116616,220 23.7089202,220 C34.112926,220 45.9686534,218.349312 54.0062347,212.193831 C59.6714903,207.854761 63.0175318,201.865597 63.6843796,194.876754 C65.1597066,179.402222 67.6264532,167.681684 70.4649823,158.859799 C70.9075804,159.890366 71.8222831,160.695811 73.0025447,160.936969 C73.238597,160.987458 73.4805506,161.01003 73.7166029,161.01003 C73.8405304,161.01003 73.9644579,160.991022 74.0883853,160.977954 C75.5814162,160.816984 76.862,159.718703 77.1806706,158.161271 L87.9328535,105.281045 C88.0213732,104.821299 88.0213732,104.364524 87.9387548,103.929132 C87.6908999,102.540392 86.6286645,101.376179 85.1710415,101.075027 C83.2472151,100.673493 81.3824018,101.924428 80.9929155,103.852508 L80.4322913,106.611574 C76.1597444,107.707479 70.9488896,109.913544 65.5432916,114.288253 C49.5625499,127.220524 39.5244253,152.715605 35.6944765,190.085066 C33.422473,190.942189 29.3092614,191.397182 24.5055968,191.42807 L24.5587086,191.103159 L22.8060201,181.907657 C22.7588097,179.702779 20.9294043,177.938046 18.7341177,177.985565 C16.5447325,178.033084 14.7920441,179.876223 14.8392546,182.081101 L16.5388312,191.121573 C13.9304531,190.908925 11.2925685,190.586985 8.7845127,190.149811 C1.07740465,188.791364 -3.82658217,216.86494 3.87462457,218.229327" id="Fill-8"></path>
                <path d="M104.437851,111.792147 C107.011944,125.165221 112.230815,147.899387 118.904609,153.598756 L118.904609,177.416234 L75.9048814,177.416234 L75.9048814,186.29099 L118.904609,186.29099 L118.904609,204.632153 L75.9048814,204.632153 L75.9048814,213.506909 L118.904609,213.506909 L118.904609,231.256421 L71.5342242,231.256421 C69.5786201,231.256421 68,232.845594 68,234.806323 C68,236.766461 69.5786201,238.356225 71.5342242,238.356225 L74.2084538,238.356225 L74.2084538,414.056278 C74.2084538,426.179787 83.9923643,436 96.0558495,436 C108.119335,436 117.909136,426.179787 117.909136,414.056278 L117.909136,253.828475 L126.096755,253.828475 L126.096755,414.056278 C126.096755,426.179787 135.880665,436 147.944151,436 C160.007636,436 169.791546,426.179787 169.791546,414.056278 L169.791546,238.356225 L172.465776,238.356225 C174.42138,238.356225 176,236.766461 176,234.806323 C176,232.845594 174.42138,231.256421 172.465776,231.256421 L125.089501,231.256421 L125.089501,213.506909 L168.089228,213.506909 L168.089228,204.632153 L125.089501,204.632153 L125.089501,186.29099 L168.089228,186.29099 L168.089228,177.416234 L125.089501,177.416234 L125.089501,153.598756 C131.769185,147.899387 136.988056,125.165221 139.556259,111.792147 C140.080502,109.078838 141.482411,106.741819 143.414453,105 L100.585547,105 C102.511699,106.741819 103.919498,109.078838 104.437851,111.792147" id="Fill-9"></path>
                <path d="M83,55.0047402 C83,77.093974 100.908148,95 123,95 C145.091852,95 163,77.093974 163,55.0047402 C163,55.0035551 163,55.0017776 163,55 L83,55 C83,55.0017776 83,55.0035551 83,55.0047402" id="Fill-10"></path>
                <path d="M157.069343,105.280879 L167.821979,158.161182 C168.140663,159.718617 169.421301,160.816899 170.914395,160.977869 C171.038327,160.990937 171.16226,161.009945 171.286193,161.009945 C171.522255,161.009945 171.758317,160.987373 172.000281,160.936884 C173.174691,160.695725 174.089432,159.891467 174.532049,158.863275 C177.376599,167.684579 179.837548,179.403946 181.312937,194.876718 C181.979813,201.865571 185.325996,207.854744 190.99149,212.19382 C199.02941,218.349309 210.885637,220 221.290081,220 C229.882747,220 237.483952,218.874394 241.125212,218.229324 C248.826743,216.864935 243.92255,188.791319 236.215117,190.149768 C233.706956,190.586942 231.074862,190.908883 228.460472,191.121531 L230.16012,182.081046 C230.207333,179.876166 228.45457,178.033023 226.265093,177.985504 C224.075616,177.937985 222.240231,179.702721 222.193019,181.907602 L220.440257,191.103117 L220.493371,191.428028 C215.695405,191.397141 211.576119,190.942147 209.309921,190.085023 C205.47391,152.715508 195.435362,127.22039 179.453947,114.288101 C174.054023,109.914573 168.842948,107.708505 164.570222,106.612598 L164.009574,103.85234 C163.620071,101.924258 161.749278,100.673915 159.831272,101.074856 C158.373587,101.376007 157.311307,102.539628 157.063442,103.927776 C156.98082,104.363763 156.974918,104.820539 157.069343,105.280879" id="Fill-11"></path>
                <path d="M79.3970496,51 L163.60295,51 C166.584746,51 169,48.5795982 169,45.5883187 C169,42.6006259 166.584746,40.1748441 163.60295,40.1748441 L162.857502,40.1748441 C162.499686,26.3912865 155.438795,14.2856908 144.823603,7.00475878 L144.823603,10.3068826 C144.823603,12.6710933 142.909291,14.5905575 140.553672,14.5905575 C138.19209,14.5905575 136.277778,12.6710933 136.277778,10.3068826 L136.277778,2.51604623 C132.956058,1.24218201 129.437539,0.377197712 125.769931,0 L125.769931,10.3068826 C125.769931,12.6710933 123.861582,14.5905575 121.5,14.5905575 C119.138418,14.5905575 117.230069,12.6710933 117.230069,10.3068826 L117.230069,0.000597777674 C113.562461,0.37779549 110.037979,1.24337756 106.722222,2.51724178 L106.722222,10.3068826 C106.722222,12.6710933 104.80791,14.5905575 102.446328,14.5905575 C100.090709,14.5905575 98.1763967,12.6710933 98.1763967,10.3068826 L98.1763967,7.00714989 C87.5612053,14.2886797 80.5003139,26.3924821 80.1424984,40.1748441 L79.3970496,40.1748441 C76.4152542,40.1748441 74,42.6006259 74,45.5883187 C74,48.5795982 76.4152542,51 79.3970496,51" id="Fill-12"></path>
            </g>
        </g>
    </g>
</svg>